M48
; DRILL file {KiCad 9.0.3+dfsg-1} date 2026-02-26T15:00:52+0100
; FORMAT={-:-/ absolute / metric / decimal}
; #@! TF.CreationDate,2026-02-26T15:00:52+01:00
; #@! TF.GenerationSoftware,Kicad,Pcbnew,9.0.3+dfsg-1
; #@! TF.FileFunction,MixedPlating,1,2
FMAT,2
METRIC
; #@! TA.AperFunction,Plated,PTH,ViaDrill
T1C0.300
; #@! TA.AperFunction,Plated,PTH,ComponentDrill
T2C0.800
; #@! TA.AperFunction,Plated,PTH,ComponentDrill
T3C1.000
; #@! TA.AperFunction,Plated,PTH,ComponentDrill
T4C1.500
; #@! TA.AperFunction,NonPlated,NPTH,ComponentDrill
T5C0.500
; #@! TA.AperFunction,NonPlated,NPTH,ComponentDrill
T6C1.700
; #@! TA.AperFunction,NonPlated,NPTH,ComponentDrill
T7C4.000
%
G90
G05
T1
X118.2Y-143.761
X127.796Y-132.695
X131.707Y-134.558
X132.734Y-115.4
X133.011Y-137.133
X134.0Y-123.716
X135.217Y-118.276
X136.185Y-132.06
X137.003Y-125.185
X137.358Y-137.156
X137.425Y-126.107
X137.446Y-134.618
X137.472Y-114.75
X137.477Y-138.303
X140.609Y-133.965
X142.411Y-135.409
X143.919Y-142.967
X145.492Y-135.026
X146.011Y-121.659
X146.4Y-132.522
X146.934Y-127.948
X149.272Y-131.529
X149.885Y-130.044
X150.044Y-122.031
X152.225Y-125.211
X153.972Y-132.861
X155.385Y-128.612
X159.052Y-133.089
X175.289Y-127.107
T2
X170.818Y-147.0
X173.318Y-147.0
T3
X112.79Y-124.8
X112.79Y-127.34
X112.79Y-129.88
X112.79Y-132.42
X112.79Y-134.96
X112.79Y-137.5
X125.04Y-122.22
X125.04Y-124.76
X125.04Y-127.3
X125.04Y-129.84
X125.04Y-132.38
X125.04Y-134.92
X125.04Y-137.46
X125.04Y-140.0
X131.26Y-150.25
X133.8Y-150.25
X136.0Y-61.3
X136.0Y-63.84
X136.0Y-66.38
X136.0Y-68.92
X136.0Y-71.46
X136.0Y-74.0
X136.0Y-76.54
X136.0Y-79.08
X136.34Y-150.25
X138.88Y-150.25
X141.26Y-112.5
X141.42Y-150.25
X143.8Y-112.5
X143.96Y-150.25
X146.34Y-112.5
X146.5Y-150.25
X148.88Y-112.5
X149.04Y-150.25
X151.42Y-112.5
X153.96Y-112.5
X156.5Y-112.5
X159.04Y-112.5
X165.04Y-122.26
X165.04Y-124.8
X165.04Y-127.34
X165.04Y-129.88
X165.04Y-132.42
X165.04Y-134.96
X165.04Y-137.5
X165.04Y-140.04
X176.0Y-61.38
X176.0Y-63.92
X176.0Y-66.46
X176.0Y-69.0
X176.0Y-71.54
X176.0Y-74.08
X176.0Y-76.62
X176.0Y-79.16
X178.44Y-124.765
X178.44Y-127.305
X178.44Y-129.845
X178.44Y-132.385
X178.44Y-134.925
X178.44Y-137.465
T4
X112.11Y-85.18
X118.46Y-82.64
X122.15Y-67.86
X128.5Y-65.32
X132.11Y-50.54
X132.11Y-85.18
X138.46Y-48.0
X138.46Y-82.64
X142.15Y-67.86
X148.5Y-65.32
X152.11Y-50.54
X152.11Y-85.18
X158.46Y-48.0
X158.46Y-82.64
X162.15Y-67.86
X168.5Y-65.32
X172.11Y-50.54
X172.15Y-85.18
X178.46Y-48.0
X178.5Y-82.64
X182.15Y-67.86
X188.5Y-65.32
X192.11Y-50.54
X198.46Y-48.0
T5
X118.9Y-95.75
X119.0Y-109.0
X119.7Y-95.75
X119.8Y-109.0
X120.5Y-95.75
X120.6Y-109.0
X121.3Y-95.75
X121.4Y-109.0
X122.1Y-95.75
X122.2Y-109.0
X122.9Y-95.75
X123.0Y-109.0
X123.7Y-95.75
X123.8Y-109.0
X124.5Y-95.75
X124.6Y-109.0
X125.3Y-95.75
X125.4Y-109.0
X126.1Y-95.75
X126.2Y-109.0
X126.9Y-95.75
X127.0Y-109.0
X127.7Y-95.75
X127.8Y-109.0
X128.5Y-95.75
X128.6Y-109.0
X129.3Y-95.75
X129.4Y-109.0
X130.1Y-95.75
X130.2Y-109.0
X130.9Y-95.75
X131.0Y-109.0
X131.7Y-95.75
X131.8Y-109.0
X159.9Y-95.75
X160.1Y-109.0
X160.7Y-95.75
X160.9Y-109.0
X161.5Y-95.75
X161.7Y-109.0
X162.3Y-95.75
X162.5Y-109.0
X163.1Y-95.75
X163.3Y-109.0
X163.9Y-95.75
X164.1Y-109.0
X164.7Y-95.75
X164.9Y-109.0
X165.5Y-95.75
X165.7Y-109.0
X166.3Y-95.75
X166.5Y-109.0
X167.1Y-95.75
X167.3Y-109.0
X167.9Y-95.75
X168.1Y-109.0
X168.7Y-95.75
X168.9Y-109.0
X169.5Y-95.75
X169.7Y-109.0
X170.3Y-95.75
X170.5Y-109.0
X171.1Y-95.75
X171.3Y-109.0
X171.9Y-95.75
X172.1Y-109.0
X172.7Y-95.75
X172.9Y-109.0
T6
X110.84Y-87.72
X120.88Y-70.4
X121.0Y-87.72
X130.84Y-53.08
X130.84Y-87.72
X131.04Y-70.4
X140.88Y-70.4
X141.0Y-53.08
X141.0Y-87.72
X150.84Y-53.08
X150.84Y-87.72
X151.04Y-70.4
X160.88Y-70.4
X161.0Y-53.08
X161.0Y-87.72
X170.84Y-53.08
X170.88Y-87.72
X171.04Y-70.4
X180.88Y-70.4
X181.0Y-53.08
X181.04Y-87.72
X190.84Y-53.08
X191.04Y-70.4
X201.0Y-53.08
T7
X115.92Y-87.72
X125.96Y-70.4
X135.92Y-53.08
X135.92Y-87.72
X145.96Y-70.4
X155.92Y-53.08
X155.92Y-87.72
X165.96Y-70.4
X175.92Y-53.08
X175.96Y-87.72
X185.96Y-70.4
X195.92Y-53.08
M30
