%TF.GenerationSoftware,KiCad,Pcbnew,9.0.3+dfsg-1*%
%TF.CreationDate,2026-02-27T14:07:46+01:00*%
%TF.ProjectId,tastiera_isomorfa,74617374-6965-4726-915f-69736f6d6f72,rev?*%
%TF.SameCoordinates,Original*%
%TF.FileFunction,Legend,Top*%
%TF.FilePolarity,Positive*%
%FSLAX46Y46*%
G04 Gerber Fmt 4.6, Leading zero omitted, Abs format (unit mm)*
G04 Created by KiCad (PCBNEW 9.0.3+dfsg-1) date 2026-02-27 14:07:46*
%MOMM*%
%LPD*%
G01*
G04 APERTURE LIST*
%ADD10C,0.150000*%
%ADD11C,0.120000*%
G04 APERTURE END LIST*
D10*
X142804819Y-138119047D02*
X142328628Y-138452380D01*
X142804819Y-138690475D02*
X141804819Y-138690475D01*
X141804819Y-138690475D02*
X141804819Y-138309523D01*
X141804819Y-138309523D02*
X141852438Y-138214285D01*
X141852438Y-138214285D02*
X141900057Y-138166666D01*
X141900057Y-138166666D02*
X141995295Y-138119047D01*
X141995295Y-138119047D02*
X142138152Y-138119047D01*
X142138152Y-138119047D02*
X142233390Y-138166666D01*
X142233390Y-138166666D02*
X142281009Y-138214285D01*
X142281009Y-138214285D02*
X142328628Y-138309523D01*
X142328628Y-138309523D02*
X142328628Y-138690475D01*
X142804819Y-137166666D02*
X142804819Y-137738094D01*
X142804819Y-137452380D02*
X141804819Y-137452380D01*
X141804819Y-137452380D02*
X141947676Y-137547618D01*
X141947676Y-137547618D02*
X142042914Y-137642856D01*
X142042914Y-137642856D02*
X142090533Y-137738094D01*
X141804819Y-136547618D02*
X141804819Y-136452380D01*
X141804819Y-136452380D02*
X141852438Y-136357142D01*
X141852438Y-136357142D02*
X141900057Y-136309523D01*
X141900057Y-136309523D02*
X141995295Y-136261904D01*
X141995295Y-136261904D02*
X142185771Y-136214285D01*
X142185771Y-136214285D02*
X142423866Y-136214285D01*
X142423866Y-136214285D02*
X142614342Y-136261904D01*
X142614342Y-136261904D02*
X142709580Y-136309523D01*
X142709580Y-136309523D02*
X142757200Y-136357142D01*
X142757200Y-136357142D02*
X142804819Y-136452380D01*
X142804819Y-136452380D02*
X142804819Y-136547618D01*
X142804819Y-136547618D02*
X142757200Y-136642856D01*
X142757200Y-136642856D02*
X142709580Y-136690475D01*
X142709580Y-136690475D02*
X142614342Y-136738094D01*
X142614342Y-136738094D02*
X142423866Y-136785713D01*
X142423866Y-136785713D02*
X142185771Y-136785713D01*
X142185771Y-136785713D02*
X141995295Y-136738094D01*
X141995295Y-136738094D02*
X141900057Y-136690475D01*
X141900057Y-136690475D02*
X141852438Y-136642856D01*
X141852438Y-136642856D02*
X141804819Y-136547618D01*
X141804819Y-135357142D02*
X141804819Y-135547618D01*
X141804819Y-135547618D02*
X141852438Y-135642856D01*
X141852438Y-135642856D02*
X141900057Y-135690475D01*
X141900057Y-135690475D02*
X142042914Y-135785713D01*
X142042914Y-135785713D02*
X142233390Y-135833332D01*
X142233390Y-135833332D02*
X142614342Y-135833332D01*
X142614342Y-135833332D02*
X142709580Y-135785713D01*
X142709580Y-135785713D02*
X142757200Y-135738094D01*
X142757200Y-135738094D02*
X142804819Y-135642856D01*
X142804819Y-135642856D02*
X142804819Y-135452380D01*
X142804819Y-135452380D02*
X142757200Y-135357142D01*
X142757200Y-135357142D02*
X142709580Y-135309523D01*
X142709580Y-135309523D02*
X142614342Y-135261904D01*
X142614342Y-135261904D02*
X142376247Y-135261904D01*
X142376247Y-135261904D02*
X142281009Y-135309523D01*
X142281009Y-135309523D02*
X142233390Y-135357142D01*
X142233390Y-135357142D02*
X142185771Y-135452380D01*
X142185771Y-135452380D02*
X142185771Y-135642856D01*
X142185771Y-135642856D02*
X142233390Y-135738094D01*
X142233390Y-135738094D02*
X142281009Y-135785713D01*
X142281009Y-135785713D02*
X142376247Y-135833332D01*
X150674286Y-48267200D02*
X150817143Y-48314819D01*
X150817143Y-48314819D02*
X151055238Y-48314819D01*
X151055238Y-48314819D02*
X151150476Y-48267200D01*
X151150476Y-48267200D02*
X151198095Y-48219580D01*
X151198095Y-48219580D02*
X151245714Y-48124342D01*
X151245714Y-48124342D02*
X151245714Y-48029104D01*
X151245714Y-48029104D02*
X151198095Y-47933866D01*
X151198095Y-47933866D02*
X151150476Y-47886247D01*
X151150476Y-47886247D02*
X151055238Y-47838628D01*
X151055238Y-47838628D02*
X150864762Y-47791009D01*
X150864762Y-47791009D02*
X150769524Y-47743390D01*
X150769524Y-47743390D02*
X150721905Y-47695771D01*
X150721905Y-47695771D02*
X150674286Y-47600533D01*
X150674286Y-47600533D02*
X150674286Y-47505295D01*
X150674286Y-47505295D02*
X150721905Y-47410057D01*
X150721905Y-47410057D02*
X150769524Y-47362438D01*
X150769524Y-47362438D02*
X150864762Y-47314819D01*
X150864762Y-47314819D02*
X151102857Y-47314819D01*
X151102857Y-47314819D02*
X151245714Y-47362438D01*
X151579048Y-47314819D02*
X151817143Y-48314819D01*
X151817143Y-48314819D02*
X152007619Y-47600533D01*
X152007619Y-47600533D02*
X152198095Y-48314819D01*
X152198095Y-48314819D02*
X152436191Y-47314819D01*
X153340952Y-48314819D02*
X152769524Y-48314819D01*
X153055238Y-48314819D02*
X153055238Y-47314819D01*
X153055238Y-47314819D02*
X152960000Y-47457676D01*
X152960000Y-47457676D02*
X152864762Y-47552914D01*
X152864762Y-47552914D02*
X152769524Y-47600533D01*
X153960000Y-47314819D02*
X154055238Y-47314819D01*
X154055238Y-47314819D02*
X154150476Y-47362438D01*
X154150476Y-47362438D02*
X154198095Y-47410057D01*
X154198095Y-47410057D02*
X154245714Y-47505295D01*
X154245714Y-47505295D02*
X154293333Y-47695771D01*
X154293333Y-47695771D02*
X154293333Y-47933866D01*
X154293333Y-47933866D02*
X154245714Y-48124342D01*
X154245714Y-48124342D02*
X154198095Y-48219580D01*
X154198095Y-48219580D02*
X154150476Y-48267200D01*
X154150476Y-48267200D02*
X154055238Y-48314819D01*
X154055238Y-48314819D02*
X153960000Y-48314819D01*
X153960000Y-48314819D02*
X153864762Y-48267200D01*
X153864762Y-48267200D02*
X153817143Y-48219580D01*
X153817143Y-48219580D02*
X153769524Y-48124342D01*
X153769524Y-48124342D02*
X153721905Y-47933866D01*
X153721905Y-47933866D02*
X153721905Y-47695771D01*
X153721905Y-47695771D02*
X153769524Y-47505295D01*
X153769524Y-47505295D02*
X153817143Y-47410057D01*
X153817143Y-47410057D02*
X153864762Y-47362438D01*
X153864762Y-47362438D02*
X153960000Y-47314819D01*
X155245714Y-48314819D02*
X154674286Y-48314819D01*
X154960000Y-48314819D02*
X154960000Y-47314819D01*
X154960000Y-47314819D02*
X154864762Y-47457676D01*
X154864762Y-47457676D02*
X154769524Y-47552914D01*
X154769524Y-47552914D02*
X154674286Y-47600533D01*
X184880952Y-49304819D02*
X184547619Y-48828628D01*
X184309524Y-49304819D02*
X184309524Y-48304819D01*
X184309524Y-48304819D02*
X184690476Y-48304819D01*
X184690476Y-48304819D02*
X184785714Y-48352438D01*
X184785714Y-48352438D02*
X184833333Y-48400057D01*
X184833333Y-48400057D02*
X184880952Y-48495295D01*
X184880952Y-48495295D02*
X184880952Y-48638152D01*
X184880952Y-48638152D02*
X184833333Y-48733390D01*
X184833333Y-48733390D02*
X184785714Y-48781009D01*
X184785714Y-48781009D02*
X184690476Y-48828628D01*
X184690476Y-48828628D02*
X184309524Y-48828628D01*
X185833333Y-49304819D02*
X185261905Y-49304819D01*
X185547619Y-49304819D02*
X185547619Y-48304819D01*
X185547619Y-48304819D02*
X185452381Y-48447676D01*
X185452381Y-48447676D02*
X185357143Y-48542914D01*
X185357143Y-48542914D02*
X185261905Y-48590533D01*
X186214286Y-48400057D02*
X186261905Y-48352438D01*
X186261905Y-48352438D02*
X186357143Y-48304819D01*
X186357143Y-48304819D02*
X186595238Y-48304819D01*
X186595238Y-48304819D02*
X186690476Y-48352438D01*
X186690476Y-48352438D02*
X186738095Y-48400057D01*
X186738095Y-48400057D02*
X186785714Y-48495295D01*
X186785714Y-48495295D02*
X186785714Y-48590533D01*
X186785714Y-48590533D02*
X186738095Y-48733390D01*
X186738095Y-48733390D02*
X186166667Y-49304819D01*
X186166667Y-49304819D02*
X186785714Y-49304819D01*
X187261905Y-49304819D02*
X187452381Y-49304819D01*
X187452381Y-49304819D02*
X187547619Y-49257200D01*
X187547619Y-49257200D02*
X187595238Y-49209580D01*
X187595238Y-49209580D02*
X187690476Y-49066723D01*
X187690476Y-49066723D02*
X187738095Y-48876247D01*
X187738095Y-48876247D02*
X187738095Y-48495295D01*
X187738095Y-48495295D02*
X187690476Y-48400057D01*
X187690476Y-48400057D02*
X187642857Y-48352438D01*
X187642857Y-48352438D02*
X187547619Y-48304819D01*
X187547619Y-48304819D02*
X187357143Y-48304819D01*
X187357143Y-48304819D02*
X187261905Y-48352438D01*
X187261905Y-48352438D02*
X187214286Y-48400057D01*
X187214286Y-48400057D02*
X187166667Y-48495295D01*
X187166667Y-48495295D02*
X187166667Y-48733390D01*
X187166667Y-48733390D02*
X187214286Y-48828628D01*
X187214286Y-48828628D02*
X187261905Y-48876247D01*
X187261905Y-48876247D02*
X187357143Y-48923866D01*
X187357143Y-48923866D02*
X187547619Y-48923866D01*
X187547619Y-48923866D02*
X187642857Y-48876247D01*
X187642857Y-48876247D02*
X187690476Y-48828628D01*
X187690476Y-48828628D02*
X187738095Y-48733390D01*
X154880952Y-72304819D02*
X154547619Y-71828628D01*
X154309524Y-72304819D02*
X154309524Y-71304819D01*
X154309524Y-71304819D02*
X154690476Y-71304819D01*
X154690476Y-71304819D02*
X154785714Y-71352438D01*
X154785714Y-71352438D02*
X154833333Y-71400057D01*
X154833333Y-71400057D02*
X154880952Y-71495295D01*
X154880952Y-71495295D02*
X154880952Y-71638152D01*
X154880952Y-71638152D02*
X154833333Y-71733390D01*
X154833333Y-71733390D02*
X154785714Y-71781009D01*
X154785714Y-71781009D02*
X154690476Y-71828628D01*
X154690476Y-71828628D02*
X154309524Y-71828628D01*
X155833333Y-72304819D02*
X155261905Y-72304819D01*
X155547619Y-72304819D02*
X155547619Y-71304819D01*
X155547619Y-71304819D02*
X155452381Y-71447676D01*
X155452381Y-71447676D02*
X155357143Y-71542914D01*
X155357143Y-71542914D02*
X155261905Y-71590533D01*
X156214286Y-71400057D02*
X156261905Y-71352438D01*
X156261905Y-71352438D02*
X156357143Y-71304819D01*
X156357143Y-71304819D02*
X156595238Y-71304819D01*
X156595238Y-71304819D02*
X156690476Y-71352438D01*
X156690476Y-71352438D02*
X156738095Y-71400057D01*
X156738095Y-71400057D02*
X156785714Y-71495295D01*
X156785714Y-71495295D02*
X156785714Y-71590533D01*
X156785714Y-71590533D02*
X156738095Y-71733390D01*
X156738095Y-71733390D02*
X156166667Y-72304819D01*
X156166667Y-72304819D02*
X156785714Y-72304819D01*
X157642857Y-71638152D02*
X157642857Y-72304819D01*
X157404762Y-71257200D02*
X157166667Y-71971485D01*
X157166667Y-71971485D02*
X157785714Y-71971485D01*
X164880952Y-84104819D02*
X164547619Y-83628628D01*
X164309524Y-84104819D02*
X164309524Y-83104819D01*
X164309524Y-83104819D02*
X164690476Y-83104819D01*
X164690476Y-83104819D02*
X164785714Y-83152438D01*
X164785714Y-83152438D02*
X164833333Y-83200057D01*
X164833333Y-83200057D02*
X164880952Y-83295295D01*
X164880952Y-83295295D02*
X164880952Y-83438152D01*
X164880952Y-83438152D02*
X164833333Y-83533390D01*
X164833333Y-83533390D02*
X164785714Y-83581009D01*
X164785714Y-83581009D02*
X164690476Y-83628628D01*
X164690476Y-83628628D02*
X164309524Y-83628628D01*
X165833333Y-84104819D02*
X165261905Y-84104819D01*
X165547619Y-84104819D02*
X165547619Y-83104819D01*
X165547619Y-83104819D02*
X165452381Y-83247676D01*
X165452381Y-83247676D02*
X165357143Y-83342914D01*
X165357143Y-83342914D02*
X165261905Y-83390533D01*
X166166667Y-83104819D02*
X166785714Y-83104819D01*
X166785714Y-83104819D02*
X166452381Y-83485771D01*
X166452381Y-83485771D02*
X166595238Y-83485771D01*
X166595238Y-83485771D02*
X166690476Y-83533390D01*
X166690476Y-83533390D02*
X166738095Y-83581009D01*
X166738095Y-83581009D02*
X166785714Y-83676247D01*
X166785714Y-83676247D02*
X166785714Y-83914342D01*
X166785714Y-83914342D02*
X166738095Y-84009580D01*
X166738095Y-84009580D02*
X166690476Y-84057200D01*
X166690476Y-84057200D02*
X166595238Y-84104819D01*
X166595238Y-84104819D02*
X166309524Y-84104819D01*
X166309524Y-84104819D02*
X166214286Y-84057200D01*
X166214286Y-84057200D02*
X166166667Y-84009580D01*
X167404762Y-83104819D02*
X167500000Y-83104819D01*
X167500000Y-83104819D02*
X167595238Y-83152438D01*
X167595238Y-83152438D02*
X167642857Y-83200057D01*
X167642857Y-83200057D02*
X167690476Y-83295295D01*
X167690476Y-83295295D02*
X167738095Y-83485771D01*
X167738095Y-83485771D02*
X167738095Y-83723866D01*
X167738095Y-83723866D02*
X167690476Y-83914342D01*
X167690476Y-83914342D02*
X167642857Y-84009580D01*
X167642857Y-84009580D02*
X167595238Y-84057200D01*
X167595238Y-84057200D02*
X167500000Y-84104819D01*
X167500000Y-84104819D02*
X167404762Y-84104819D01*
X167404762Y-84104819D02*
X167309524Y-84057200D01*
X167309524Y-84057200D02*
X167261905Y-84009580D01*
X167261905Y-84009580D02*
X167214286Y-83914342D01*
X167214286Y-83914342D02*
X167166667Y-83723866D01*
X167166667Y-83723866D02*
X167166667Y-83485771D01*
X167166667Y-83485771D02*
X167214286Y-83295295D01*
X167214286Y-83295295D02*
X167261905Y-83200057D01*
X167261905Y-83200057D02*
X167309524Y-83152438D01*
X167309524Y-83152438D02*
X167404762Y-83104819D01*
X164880952Y-89104819D02*
X164547619Y-88628628D01*
X164309524Y-89104819D02*
X164309524Y-88104819D01*
X164309524Y-88104819D02*
X164690476Y-88104819D01*
X164690476Y-88104819D02*
X164785714Y-88152438D01*
X164785714Y-88152438D02*
X164833333Y-88200057D01*
X164833333Y-88200057D02*
X164880952Y-88295295D01*
X164880952Y-88295295D02*
X164880952Y-88438152D01*
X164880952Y-88438152D02*
X164833333Y-88533390D01*
X164833333Y-88533390D02*
X164785714Y-88581009D01*
X164785714Y-88581009D02*
X164690476Y-88628628D01*
X164690476Y-88628628D02*
X164309524Y-88628628D01*
X165833333Y-89104819D02*
X165261905Y-89104819D01*
X165547619Y-89104819D02*
X165547619Y-88104819D01*
X165547619Y-88104819D02*
X165452381Y-88247676D01*
X165452381Y-88247676D02*
X165357143Y-88342914D01*
X165357143Y-88342914D02*
X165261905Y-88390533D01*
X166166667Y-88104819D02*
X166785714Y-88104819D01*
X166785714Y-88104819D02*
X166452381Y-88485771D01*
X166452381Y-88485771D02*
X166595238Y-88485771D01*
X166595238Y-88485771D02*
X166690476Y-88533390D01*
X166690476Y-88533390D02*
X166738095Y-88581009D01*
X166738095Y-88581009D02*
X166785714Y-88676247D01*
X166785714Y-88676247D02*
X166785714Y-88914342D01*
X166785714Y-88914342D02*
X166738095Y-89009580D01*
X166738095Y-89009580D02*
X166690476Y-89057200D01*
X166690476Y-89057200D02*
X166595238Y-89104819D01*
X166595238Y-89104819D02*
X166309524Y-89104819D01*
X166309524Y-89104819D02*
X166214286Y-89057200D01*
X166214286Y-89057200D02*
X166166667Y-89009580D01*
X167166667Y-88200057D02*
X167214286Y-88152438D01*
X167214286Y-88152438D02*
X167309524Y-88104819D01*
X167309524Y-88104819D02*
X167547619Y-88104819D01*
X167547619Y-88104819D02*
X167642857Y-88152438D01*
X167642857Y-88152438D02*
X167690476Y-88200057D01*
X167690476Y-88200057D02*
X167738095Y-88295295D01*
X167738095Y-88295295D02*
X167738095Y-88390533D01*
X167738095Y-88390533D02*
X167690476Y-88533390D01*
X167690476Y-88533390D02*
X167119048Y-89104819D01*
X167119048Y-89104819D02*
X167738095Y-89104819D01*
X164880952Y-90804819D02*
X164547619Y-90328628D01*
X164309524Y-90804819D02*
X164309524Y-89804819D01*
X164309524Y-89804819D02*
X164690476Y-89804819D01*
X164690476Y-89804819D02*
X164785714Y-89852438D01*
X164785714Y-89852438D02*
X164833333Y-89900057D01*
X164833333Y-89900057D02*
X164880952Y-89995295D01*
X164880952Y-89995295D02*
X164880952Y-90138152D01*
X164880952Y-90138152D02*
X164833333Y-90233390D01*
X164833333Y-90233390D02*
X164785714Y-90281009D01*
X164785714Y-90281009D02*
X164690476Y-90328628D01*
X164690476Y-90328628D02*
X164309524Y-90328628D01*
X165833333Y-90804819D02*
X165261905Y-90804819D01*
X165547619Y-90804819D02*
X165547619Y-89804819D01*
X165547619Y-89804819D02*
X165452381Y-89947676D01*
X165452381Y-89947676D02*
X165357143Y-90042914D01*
X165357143Y-90042914D02*
X165261905Y-90090533D01*
X166166667Y-89804819D02*
X166785714Y-89804819D01*
X166785714Y-89804819D02*
X166452381Y-90185771D01*
X166452381Y-90185771D02*
X166595238Y-90185771D01*
X166595238Y-90185771D02*
X166690476Y-90233390D01*
X166690476Y-90233390D02*
X166738095Y-90281009D01*
X166738095Y-90281009D02*
X166785714Y-90376247D01*
X166785714Y-90376247D02*
X166785714Y-90614342D01*
X166785714Y-90614342D02*
X166738095Y-90709580D01*
X166738095Y-90709580D02*
X166690476Y-90757200D01*
X166690476Y-90757200D02*
X166595238Y-90804819D01*
X166595238Y-90804819D02*
X166309524Y-90804819D01*
X166309524Y-90804819D02*
X166214286Y-90757200D01*
X166214286Y-90757200D02*
X166166667Y-90709580D01*
X167119048Y-89804819D02*
X167738095Y-89804819D01*
X167738095Y-89804819D02*
X167404762Y-90185771D01*
X167404762Y-90185771D02*
X167547619Y-90185771D01*
X167547619Y-90185771D02*
X167642857Y-90233390D01*
X167642857Y-90233390D02*
X167690476Y-90281009D01*
X167690476Y-90281009D02*
X167738095Y-90376247D01*
X167738095Y-90376247D02*
X167738095Y-90614342D01*
X167738095Y-90614342D02*
X167690476Y-90709580D01*
X167690476Y-90709580D02*
X167642857Y-90757200D01*
X167642857Y-90757200D02*
X167547619Y-90804819D01*
X167547619Y-90804819D02*
X167261905Y-90804819D01*
X167261905Y-90804819D02*
X167166667Y-90757200D01*
X167166667Y-90757200D02*
X167119048Y-90709580D01*
X111324285Y-121454819D02*
X111324285Y-122169104D01*
X111324285Y-122169104D02*
X111276666Y-122311961D01*
X111276666Y-122311961D02*
X111181428Y-122407200D01*
X111181428Y-122407200D02*
X111038571Y-122454819D01*
X111038571Y-122454819D02*
X110943333Y-122454819D01*
X112324285Y-122454819D02*
X111752857Y-122454819D01*
X112038571Y-122454819D02*
X112038571Y-121454819D01*
X112038571Y-121454819D02*
X111943333Y-121597676D01*
X111943333Y-121597676D02*
X111848095Y-121692914D01*
X111848095Y-121692914D02*
X111752857Y-121740533D01*
X112943333Y-121454819D02*
X113038571Y-121454819D01*
X113038571Y-121454819D02*
X113133809Y-121502438D01*
X113133809Y-121502438D02*
X113181428Y-121550057D01*
X113181428Y-121550057D02*
X113229047Y-121645295D01*
X113229047Y-121645295D02*
X113276666Y-121835771D01*
X113276666Y-121835771D02*
X113276666Y-122073866D01*
X113276666Y-122073866D02*
X113229047Y-122264342D01*
X113229047Y-122264342D02*
X113181428Y-122359580D01*
X113181428Y-122359580D02*
X113133809Y-122407200D01*
X113133809Y-122407200D02*
X113038571Y-122454819D01*
X113038571Y-122454819D02*
X112943333Y-122454819D01*
X112943333Y-122454819D02*
X112848095Y-122407200D01*
X112848095Y-122407200D02*
X112800476Y-122359580D01*
X112800476Y-122359580D02*
X112752857Y-122264342D01*
X112752857Y-122264342D02*
X112705238Y-122073866D01*
X112705238Y-122073866D02*
X112705238Y-121835771D01*
X112705238Y-121835771D02*
X112752857Y-121645295D01*
X112752857Y-121645295D02*
X112800476Y-121550057D01*
X112800476Y-121550057D02*
X112848095Y-121502438D01*
X112848095Y-121502438D02*
X112943333Y-121454819D01*
X114229047Y-122454819D02*
X113657619Y-122454819D01*
X113943333Y-122454819D02*
X113943333Y-121454819D01*
X113943333Y-121454819D02*
X113848095Y-121597676D01*
X113848095Y-121597676D02*
X113752857Y-121692914D01*
X113752857Y-121692914D02*
X113657619Y-121740533D01*
X136173214Y-131154819D02*
X136173214Y-131964342D01*
X136173214Y-131964342D02*
X136220833Y-132059580D01*
X136220833Y-132059580D02*
X136268452Y-132107200D01*
X136268452Y-132107200D02*
X136363690Y-132154819D01*
X136363690Y-132154819D02*
X136554166Y-132154819D01*
X136554166Y-132154819D02*
X136649404Y-132107200D01*
X136649404Y-132107200D02*
X136697023Y-132059580D01*
X136697023Y-132059580D02*
X136744642Y-131964342D01*
X136744642Y-131964342D02*
X136744642Y-131154819D01*
X137744642Y-132154819D02*
X137173214Y-132154819D01*
X137458928Y-132154819D02*
X137458928Y-131154819D01*
X137458928Y-131154819D02*
X137363690Y-131297676D01*
X137363690Y-131297676D02*
X137268452Y-131392914D01*
X137268452Y-131392914D02*
X137173214Y-131440533D01*
X138363690Y-131154819D02*
X138458928Y-131154819D01*
X138458928Y-131154819D02*
X138554166Y-131202438D01*
X138554166Y-131202438D02*
X138601785Y-131250057D01*
X138601785Y-131250057D02*
X138649404Y-131345295D01*
X138649404Y-131345295D02*
X138697023Y-131535771D01*
X138697023Y-131535771D02*
X138697023Y-131773866D01*
X138697023Y-131773866D02*
X138649404Y-131964342D01*
X138649404Y-131964342D02*
X138601785Y-132059580D01*
X138601785Y-132059580D02*
X138554166Y-132107200D01*
X138554166Y-132107200D02*
X138458928Y-132154819D01*
X138458928Y-132154819D02*
X138363690Y-132154819D01*
X138363690Y-132154819D02*
X138268452Y-132107200D01*
X138268452Y-132107200D02*
X138220833Y-132059580D01*
X138220833Y-132059580D02*
X138173214Y-131964342D01*
X138173214Y-131964342D02*
X138125595Y-131773866D01*
X138125595Y-131773866D02*
X138125595Y-131535771D01*
X138125595Y-131535771D02*
X138173214Y-131345295D01*
X138173214Y-131345295D02*
X138220833Y-131250057D01*
X138220833Y-131250057D02*
X138268452Y-131202438D01*
X138268452Y-131202438D02*
X138363690Y-131154819D01*
X139268452Y-131583390D02*
X139173214Y-131535771D01*
X139173214Y-131535771D02*
X139125595Y-131488152D01*
X139125595Y-131488152D02*
X139077976Y-131392914D01*
X139077976Y-131392914D02*
X139077976Y-131345295D01*
X139077976Y-131345295D02*
X139125595Y-131250057D01*
X139125595Y-131250057D02*
X139173214Y-131202438D01*
X139173214Y-131202438D02*
X139268452Y-131154819D01*
X139268452Y-131154819D02*
X139458928Y-131154819D01*
X139458928Y-131154819D02*
X139554166Y-131202438D01*
X139554166Y-131202438D02*
X139601785Y-131250057D01*
X139601785Y-131250057D02*
X139649404Y-131345295D01*
X139649404Y-131345295D02*
X139649404Y-131392914D01*
X139649404Y-131392914D02*
X139601785Y-131488152D01*
X139601785Y-131488152D02*
X139554166Y-131535771D01*
X139554166Y-131535771D02*
X139458928Y-131583390D01*
X139458928Y-131583390D02*
X139268452Y-131583390D01*
X139268452Y-131583390D02*
X139173214Y-131631009D01*
X139173214Y-131631009D02*
X139125595Y-131678628D01*
X139125595Y-131678628D02*
X139077976Y-131773866D01*
X139077976Y-131773866D02*
X139077976Y-131964342D01*
X139077976Y-131964342D02*
X139125595Y-132059580D01*
X139125595Y-132059580D02*
X139173214Y-132107200D01*
X139173214Y-132107200D02*
X139268452Y-132154819D01*
X139268452Y-132154819D02*
X139458928Y-132154819D01*
X139458928Y-132154819D02*
X139554166Y-132107200D01*
X139554166Y-132107200D02*
X139601785Y-132059580D01*
X139601785Y-132059580D02*
X139649404Y-131964342D01*
X139649404Y-131964342D02*
X139649404Y-131773866D01*
X139649404Y-131773866D02*
X139601785Y-131678628D01*
X139601785Y-131678628D02*
X139554166Y-131631009D01*
X139554166Y-131631009D02*
X139458928Y-131583390D01*
X124880952Y-80804819D02*
X124547619Y-80328628D01*
X124309524Y-80804819D02*
X124309524Y-79804819D01*
X124309524Y-79804819D02*
X124690476Y-79804819D01*
X124690476Y-79804819D02*
X124785714Y-79852438D01*
X124785714Y-79852438D02*
X124833333Y-79900057D01*
X124833333Y-79900057D02*
X124880952Y-79995295D01*
X124880952Y-79995295D02*
X124880952Y-80138152D01*
X124880952Y-80138152D02*
X124833333Y-80233390D01*
X124833333Y-80233390D02*
X124785714Y-80281009D01*
X124785714Y-80281009D02*
X124690476Y-80328628D01*
X124690476Y-80328628D02*
X124309524Y-80328628D01*
X125833333Y-80804819D02*
X125261905Y-80804819D01*
X125547619Y-80804819D02*
X125547619Y-79804819D01*
X125547619Y-79804819D02*
X125452381Y-79947676D01*
X125452381Y-79947676D02*
X125357143Y-80042914D01*
X125357143Y-80042914D02*
X125261905Y-80090533D01*
X126214286Y-79900057D02*
X126261905Y-79852438D01*
X126261905Y-79852438D02*
X126357143Y-79804819D01*
X126357143Y-79804819D02*
X126595238Y-79804819D01*
X126595238Y-79804819D02*
X126690476Y-79852438D01*
X126690476Y-79852438D02*
X126738095Y-79900057D01*
X126738095Y-79900057D02*
X126785714Y-79995295D01*
X126785714Y-79995295D02*
X126785714Y-80090533D01*
X126785714Y-80090533D02*
X126738095Y-80233390D01*
X126738095Y-80233390D02*
X126166667Y-80804819D01*
X126166667Y-80804819D02*
X126785714Y-80804819D01*
X127690476Y-79804819D02*
X127214286Y-79804819D01*
X127214286Y-79804819D02*
X127166667Y-80281009D01*
X127166667Y-80281009D02*
X127214286Y-80233390D01*
X127214286Y-80233390D02*
X127309524Y-80185771D01*
X127309524Y-80185771D02*
X127547619Y-80185771D01*
X127547619Y-80185771D02*
X127642857Y-80233390D01*
X127642857Y-80233390D02*
X127690476Y-80281009D01*
X127690476Y-80281009D02*
X127738095Y-80376247D01*
X127738095Y-80376247D02*
X127738095Y-80614342D01*
X127738095Y-80614342D02*
X127690476Y-80709580D01*
X127690476Y-80709580D02*
X127642857Y-80757200D01*
X127642857Y-80757200D02*
X127547619Y-80804819D01*
X127547619Y-80804819D02*
X127309524Y-80804819D01*
X127309524Y-80804819D02*
X127214286Y-80757200D01*
X127214286Y-80757200D02*
X127166667Y-80709580D01*
X136173214Y-138929819D02*
X136173214Y-139739342D01*
X136173214Y-139739342D02*
X136220833Y-139834580D01*
X136220833Y-139834580D02*
X136268452Y-139882200D01*
X136268452Y-139882200D02*
X136363690Y-139929819D01*
X136363690Y-139929819D02*
X136554166Y-139929819D01*
X136554166Y-139929819D02*
X136649404Y-139882200D01*
X136649404Y-139882200D02*
X136697023Y-139834580D01*
X136697023Y-139834580D02*
X136744642Y-139739342D01*
X136744642Y-139739342D02*
X136744642Y-138929819D01*
X137744642Y-139929819D02*
X137173214Y-139929819D01*
X137458928Y-139929819D02*
X137458928Y-138929819D01*
X137458928Y-138929819D02*
X137363690Y-139072676D01*
X137363690Y-139072676D02*
X137268452Y-139167914D01*
X137268452Y-139167914D02*
X137173214Y-139215533D01*
X138363690Y-138929819D02*
X138458928Y-138929819D01*
X138458928Y-138929819D02*
X138554166Y-138977438D01*
X138554166Y-138977438D02*
X138601785Y-139025057D01*
X138601785Y-139025057D02*
X138649404Y-139120295D01*
X138649404Y-139120295D02*
X138697023Y-139310771D01*
X138697023Y-139310771D02*
X138697023Y-139548866D01*
X138697023Y-139548866D02*
X138649404Y-139739342D01*
X138649404Y-139739342D02*
X138601785Y-139834580D01*
X138601785Y-139834580D02*
X138554166Y-139882200D01*
X138554166Y-139882200D02*
X138458928Y-139929819D01*
X138458928Y-139929819D02*
X138363690Y-139929819D01*
X138363690Y-139929819D02*
X138268452Y-139882200D01*
X138268452Y-139882200D02*
X138220833Y-139834580D01*
X138220833Y-139834580D02*
X138173214Y-139739342D01*
X138173214Y-139739342D02*
X138125595Y-139548866D01*
X138125595Y-139548866D02*
X138125595Y-139310771D01*
X138125595Y-139310771D02*
X138173214Y-139120295D01*
X138173214Y-139120295D02*
X138220833Y-139025057D01*
X138220833Y-139025057D02*
X138268452Y-138977438D01*
X138268452Y-138977438D02*
X138363690Y-138929819D01*
X139554166Y-138929819D02*
X139363690Y-138929819D01*
X139363690Y-138929819D02*
X139268452Y-138977438D01*
X139268452Y-138977438D02*
X139220833Y-139025057D01*
X139220833Y-139025057D02*
X139125595Y-139167914D01*
X139125595Y-139167914D02*
X139077976Y-139358390D01*
X139077976Y-139358390D02*
X139077976Y-139739342D01*
X139077976Y-139739342D02*
X139125595Y-139834580D01*
X139125595Y-139834580D02*
X139173214Y-139882200D01*
X139173214Y-139882200D02*
X139268452Y-139929819D01*
X139268452Y-139929819D02*
X139458928Y-139929819D01*
X139458928Y-139929819D02*
X139554166Y-139882200D01*
X139554166Y-139882200D02*
X139601785Y-139834580D01*
X139601785Y-139834580D02*
X139649404Y-139739342D01*
X139649404Y-139739342D02*
X139649404Y-139501247D01*
X139649404Y-139501247D02*
X139601785Y-139406009D01*
X139601785Y-139406009D02*
X139554166Y-139358390D01*
X139554166Y-139358390D02*
X139458928Y-139310771D01*
X139458928Y-139310771D02*
X139268452Y-139310771D01*
X139268452Y-139310771D02*
X139173214Y-139358390D01*
X139173214Y-139358390D02*
X139125595Y-139406009D01*
X139125595Y-139406009D02*
X139077976Y-139501247D01*
X124880952Y-89104819D02*
X124547619Y-88628628D01*
X124309524Y-89104819D02*
X124309524Y-88104819D01*
X124309524Y-88104819D02*
X124690476Y-88104819D01*
X124690476Y-88104819D02*
X124785714Y-88152438D01*
X124785714Y-88152438D02*
X124833333Y-88200057D01*
X124833333Y-88200057D02*
X124880952Y-88295295D01*
X124880952Y-88295295D02*
X124880952Y-88438152D01*
X124880952Y-88438152D02*
X124833333Y-88533390D01*
X124833333Y-88533390D02*
X124785714Y-88581009D01*
X124785714Y-88581009D02*
X124690476Y-88628628D01*
X124690476Y-88628628D02*
X124309524Y-88628628D01*
X125833333Y-89104819D02*
X125261905Y-89104819D01*
X125547619Y-89104819D02*
X125547619Y-88104819D01*
X125547619Y-88104819D02*
X125452381Y-88247676D01*
X125452381Y-88247676D02*
X125357143Y-88342914D01*
X125357143Y-88342914D02*
X125261905Y-88390533D01*
X126214286Y-88200057D02*
X126261905Y-88152438D01*
X126261905Y-88152438D02*
X126357143Y-88104819D01*
X126357143Y-88104819D02*
X126595238Y-88104819D01*
X126595238Y-88104819D02*
X126690476Y-88152438D01*
X126690476Y-88152438D02*
X126738095Y-88200057D01*
X126738095Y-88200057D02*
X126785714Y-88295295D01*
X126785714Y-88295295D02*
X126785714Y-88390533D01*
X126785714Y-88390533D02*
X126738095Y-88533390D01*
X126738095Y-88533390D02*
X126166667Y-89104819D01*
X126166667Y-89104819D02*
X126785714Y-89104819D01*
X127642857Y-88104819D02*
X127452381Y-88104819D01*
X127452381Y-88104819D02*
X127357143Y-88152438D01*
X127357143Y-88152438D02*
X127309524Y-88200057D01*
X127309524Y-88200057D02*
X127214286Y-88342914D01*
X127214286Y-88342914D02*
X127166667Y-88533390D01*
X127166667Y-88533390D02*
X127166667Y-88914342D01*
X127166667Y-88914342D02*
X127214286Y-89009580D01*
X127214286Y-89009580D02*
X127261905Y-89057200D01*
X127261905Y-89057200D02*
X127357143Y-89104819D01*
X127357143Y-89104819D02*
X127547619Y-89104819D01*
X127547619Y-89104819D02*
X127642857Y-89057200D01*
X127642857Y-89057200D02*
X127690476Y-89009580D01*
X127690476Y-89009580D02*
X127738095Y-88914342D01*
X127738095Y-88914342D02*
X127738095Y-88676247D01*
X127738095Y-88676247D02*
X127690476Y-88581009D01*
X127690476Y-88581009D02*
X127642857Y-88533390D01*
X127642857Y-88533390D02*
X127547619Y-88485771D01*
X127547619Y-88485771D02*
X127357143Y-88485771D01*
X127357143Y-88485771D02*
X127261905Y-88533390D01*
X127261905Y-88533390D02*
X127214286Y-88581009D01*
X127214286Y-88581009D02*
X127166667Y-88676247D01*
X123630952Y-113509580D02*
X123583333Y-113557200D01*
X123583333Y-113557200D02*
X123440476Y-113604819D01*
X123440476Y-113604819D02*
X123345238Y-113604819D01*
X123345238Y-113604819D02*
X123202381Y-113557200D01*
X123202381Y-113557200D02*
X123107143Y-113461961D01*
X123107143Y-113461961D02*
X123059524Y-113366723D01*
X123059524Y-113366723D02*
X123011905Y-113176247D01*
X123011905Y-113176247D02*
X123011905Y-113033390D01*
X123011905Y-113033390D02*
X123059524Y-112842914D01*
X123059524Y-112842914D02*
X123107143Y-112747676D01*
X123107143Y-112747676D02*
X123202381Y-112652438D01*
X123202381Y-112652438D02*
X123345238Y-112604819D01*
X123345238Y-112604819D02*
X123440476Y-112604819D01*
X123440476Y-112604819D02*
X123583333Y-112652438D01*
X123583333Y-112652438D02*
X123630952Y-112700057D01*
X124583333Y-113604819D02*
X124011905Y-113604819D01*
X124297619Y-113604819D02*
X124297619Y-112604819D01*
X124297619Y-112604819D02*
X124202381Y-112747676D01*
X124202381Y-112747676D02*
X124107143Y-112842914D01*
X124107143Y-112842914D02*
X124011905Y-112890533D01*
X125202381Y-112604819D02*
X125297619Y-112604819D01*
X125297619Y-112604819D02*
X125392857Y-112652438D01*
X125392857Y-112652438D02*
X125440476Y-112700057D01*
X125440476Y-112700057D02*
X125488095Y-112795295D01*
X125488095Y-112795295D02*
X125535714Y-112985771D01*
X125535714Y-112985771D02*
X125535714Y-113223866D01*
X125535714Y-113223866D02*
X125488095Y-113414342D01*
X125488095Y-113414342D02*
X125440476Y-113509580D01*
X125440476Y-113509580D02*
X125392857Y-113557200D01*
X125392857Y-113557200D02*
X125297619Y-113604819D01*
X125297619Y-113604819D02*
X125202381Y-113604819D01*
X125202381Y-113604819D02*
X125107143Y-113557200D01*
X125107143Y-113557200D02*
X125059524Y-113509580D01*
X125059524Y-113509580D02*
X125011905Y-113414342D01*
X125011905Y-113414342D02*
X124964286Y-113223866D01*
X124964286Y-113223866D02*
X124964286Y-112985771D01*
X124964286Y-112985771D02*
X125011905Y-112795295D01*
X125011905Y-112795295D02*
X125059524Y-112700057D01*
X125059524Y-112700057D02*
X125107143Y-112652438D01*
X125107143Y-112652438D02*
X125202381Y-112604819D01*
X126392857Y-112938152D02*
X126392857Y-113604819D01*
X126154762Y-112557200D02*
X125916667Y-113271485D01*
X125916667Y-113271485D02*
X126535714Y-113271485D01*
X170674286Y-48267200D02*
X170817143Y-48314819D01*
X170817143Y-48314819D02*
X171055238Y-48314819D01*
X171055238Y-48314819D02*
X171150476Y-48267200D01*
X171150476Y-48267200D02*
X171198095Y-48219580D01*
X171198095Y-48219580D02*
X171245714Y-48124342D01*
X171245714Y-48124342D02*
X171245714Y-48029104D01*
X171245714Y-48029104D02*
X171198095Y-47933866D01*
X171198095Y-47933866D02*
X171150476Y-47886247D01*
X171150476Y-47886247D02*
X171055238Y-47838628D01*
X171055238Y-47838628D02*
X170864762Y-47791009D01*
X170864762Y-47791009D02*
X170769524Y-47743390D01*
X170769524Y-47743390D02*
X170721905Y-47695771D01*
X170721905Y-47695771D02*
X170674286Y-47600533D01*
X170674286Y-47600533D02*
X170674286Y-47505295D01*
X170674286Y-47505295D02*
X170721905Y-47410057D01*
X170721905Y-47410057D02*
X170769524Y-47362438D01*
X170769524Y-47362438D02*
X170864762Y-47314819D01*
X170864762Y-47314819D02*
X171102857Y-47314819D01*
X171102857Y-47314819D02*
X171245714Y-47362438D01*
X171579048Y-47314819D02*
X171817143Y-48314819D01*
X171817143Y-48314819D02*
X172007619Y-47600533D01*
X172007619Y-47600533D02*
X172198095Y-48314819D01*
X172198095Y-48314819D02*
X172436191Y-47314819D01*
X173340952Y-48314819D02*
X172769524Y-48314819D01*
X173055238Y-48314819D02*
X173055238Y-47314819D01*
X173055238Y-47314819D02*
X172960000Y-47457676D01*
X172960000Y-47457676D02*
X172864762Y-47552914D01*
X172864762Y-47552914D02*
X172769524Y-47600533D01*
X173960000Y-47314819D02*
X174055238Y-47314819D01*
X174055238Y-47314819D02*
X174150476Y-47362438D01*
X174150476Y-47362438D02*
X174198095Y-47410057D01*
X174198095Y-47410057D02*
X174245714Y-47505295D01*
X174245714Y-47505295D02*
X174293333Y-47695771D01*
X174293333Y-47695771D02*
X174293333Y-47933866D01*
X174293333Y-47933866D02*
X174245714Y-48124342D01*
X174245714Y-48124342D02*
X174198095Y-48219580D01*
X174198095Y-48219580D02*
X174150476Y-48267200D01*
X174150476Y-48267200D02*
X174055238Y-48314819D01*
X174055238Y-48314819D02*
X173960000Y-48314819D01*
X173960000Y-48314819D02*
X173864762Y-48267200D01*
X173864762Y-48267200D02*
X173817143Y-48219580D01*
X173817143Y-48219580D02*
X173769524Y-48124342D01*
X173769524Y-48124342D02*
X173721905Y-47933866D01*
X173721905Y-47933866D02*
X173721905Y-47695771D01*
X173721905Y-47695771D02*
X173769524Y-47505295D01*
X173769524Y-47505295D02*
X173817143Y-47410057D01*
X173817143Y-47410057D02*
X173864762Y-47362438D01*
X173864762Y-47362438D02*
X173960000Y-47314819D01*
X174864762Y-47743390D02*
X174769524Y-47695771D01*
X174769524Y-47695771D02*
X174721905Y-47648152D01*
X174721905Y-47648152D02*
X174674286Y-47552914D01*
X174674286Y-47552914D02*
X174674286Y-47505295D01*
X174674286Y-47505295D02*
X174721905Y-47410057D01*
X174721905Y-47410057D02*
X174769524Y-47362438D01*
X174769524Y-47362438D02*
X174864762Y-47314819D01*
X174864762Y-47314819D02*
X175055238Y-47314819D01*
X175055238Y-47314819D02*
X175150476Y-47362438D01*
X175150476Y-47362438D02*
X175198095Y-47410057D01*
X175198095Y-47410057D02*
X175245714Y-47505295D01*
X175245714Y-47505295D02*
X175245714Y-47552914D01*
X175245714Y-47552914D02*
X175198095Y-47648152D01*
X175198095Y-47648152D02*
X175150476Y-47695771D01*
X175150476Y-47695771D02*
X175055238Y-47743390D01*
X175055238Y-47743390D02*
X174864762Y-47743390D01*
X174864762Y-47743390D02*
X174769524Y-47791009D01*
X174769524Y-47791009D02*
X174721905Y-47838628D01*
X174721905Y-47838628D02*
X174674286Y-47933866D01*
X174674286Y-47933866D02*
X174674286Y-48124342D01*
X174674286Y-48124342D02*
X174721905Y-48219580D01*
X174721905Y-48219580D02*
X174769524Y-48267200D01*
X174769524Y-48267200D02*
X174864762Y-48314819D01*
X174864762Y-48314819D02*
X175055238Y-48314819D01*
X175055238Y-48314819D02*
X175150476Y-48267200D01*
X175150476Y-48267200D02*
X175198095Y-48219580D01*
X175198095Y-48219580D02*
X175245714Y-48124342D01*
X175245714Y-48124342D02*
X175245714Y-47933866D01*
X175245714Y-47933866D02*
X175198095Y-47838628D01*
X175198095Y-47838628D02*
X175150476Y-47791009D01*
X175150476Y-47791009D02*
X175055238Y-47743390D01*
X110674286Y-82907200D02*
X110817143Y-82954819D01*
X110817143Y-82954819D02*
X111055238Y-82954819D01*
X111055238Y-82954819D02*
X111150476Y-82907200D01*
X111150476Y-82907200D02*
X111198095Y-82859580D01*
X111198095Y-82859580D02*
X111245714Y-82764342D01*
X111245714Y-82764342D02*
X111245714Y-82669104D01*
X111245714Y-82669104D02*
X111198095Y-82573866D01*
X111198095Y-82573866D02*
X111150476Y-82526247D01*
X111150476Y-82526247D02*
X111055238Y-82478628D01*
X111055238Y-82478628D02*
X110864762Y-82431009D01*
X110864762Y-82431009D02*
X110769524Y-82383390D01*
X110769524Y-82383390D02*
X110721905Y-82335771D01*
X110721905Y-82335771D02*
X110674286Y-82240533D01*
X110674286Y-82240533D02*
X110674286Y-82145295D01*
X110674286Y-82145295D02*
X110721905Y-82050057D01*
X110721905Y-82050057D02*
X110769524Y-82002438D01*
X110769524Y-82002438D02*
X110864762Y-81954819D01*
X110864762Y-81954819D02*
X111102857Y-81954819D01*
X111102857Y-81954819D02*
X111245714Y-82002438D01*
X111579048Y-81954819D02*
X111817143Y-82954819D01*
X111817143Y-82954819D02*
X112007619Y-82240533D01*
X112007619Y-82240533D02*
X112198095Y-82954819D01*
X112198095Y-82954819D02*
X112436191Y-81954819D01*
X113340952Y-82954819D02*
X112769524Y-82954819D01*
X113055238Y-82954819D02*
X113055238Y-81954819D01*
X113055238Y-81954819D02*
X112960000Y-82097676D01*
X112960000Y-82097676D02*
X112864762Y-82192914D01*
X112864762Y-82192914D02*
X112769524Y-82240533D01*
X113960000Y-81954819D02*
X114055238Y-81954819D01*
X114055238Y-81954819D02*
X114150476Y-82002438D01*
X114150476Y-82002438D02*
X114198095Y-82050057D01*
X114198095Y-82050057D02*
X114245714Y-82145295D01*
X114245714Y-82145295D02*
X114293333Y-82335771D01*
X114293333Y-82335771D02*
X114293333Y-82573866D01*
X114293333Y-82573866D02*
X114245714Y-82764342D01*
X114245714Y-82764342D02*
X114198095Y-82859580D01*
X114198095Y-82859580D02*
X114150476Y-82907200D01*
X114150476Y-82907200D02*
X114055238Y-82954819D01*
X114055238Y-82954819D02*
X113960000Y-82954819D01*
X113960000Y-82954819D02*
X113864762Y-82907200D01*
X113864762Y-82907200D02*
X113817143Y-82859580D01*
X113817143Y-82859580D02*
X113769524Y-82764342D01*
X113769524Y-82764342D02*
X113721905Y-82573866D01*
X113721905Y-82573866D02*
X113721905Y-82335771D01*
X113721905Y-82335771D02*
X113769524Y-82145295D01*
X113769524Y-82145295D02*
X113817143Y-82050057D01*
X113817143Y-82050057D02*
X113864762Y-82002438D01*
X113864762Y-82002438D02*
X113960000Y-81954819D01*
X115150476Y-81954819D02*
X114960000Y-81954819D01*
X114960000Y-81954819D02*
X114864762Y-82002438D01*
X114864762Y-82002438D02*
X114817143Y-82050057D01*
X114817143Y-82050057D02*
X114721905Y-82192914D01*
X114721905Y-82192914D02*
X114674286Y-82383390D01*
X114674286Y-82383390D02*
X114674286Y-82764342D01*
X114674286Y-82764342D02*
X114721905Y-82859580D01*
X114721905Y-82859580D02*
X114769524Y-82907200D01*
X114769524Y-82907200D02*
X114864762Y-82954819D01*
X114864762Y-82954819D02*
X115055238Y-82954819D01*
X115055238Y-82954819D02*
X115150476Y-82907200D01*
X115150476Y-82907200D02*
X115198095Y-82859580D01*
X115198095Y-82859580D02*
X115245714Y-82764342D01*
X115245714Y-82764342D02*
X115245714Y-82526247D01*
X115245714Y-82526247D02*
X115198095Y-82431009D01*
X115198095Y-82431009D02*
X115150476Y-82383390D01*
X115150476Y-82383390D02*
X115055238Y-82335771D01*
X115055238Y-82335771D02*
X114864762Y-82335771D01*
X114864762Y-82335771D02*
X114769524Y-82383390D01*
X114769524Y-82383390D02*
X114721905Y-82431009D01*
X114721905Y-82431009D02*
X114674286Y-82526247D01*
X146804819Y-131119047D02*
X146328628Y-131452380D01*
X146804819Y-131690475D02*
X145804819Y-131690475D01*
X145804819Y-131690475D02*
X145804819Y-131309523D01*
X145804819Y-131309523D02*
X145852438Y-131214285D01*
X145852438Y-131214285D02*
X145900057Y-131166666D01*
X145900057Y-131166666D02*
X145995295Y-131119047D01*
X145995295Y-131119047D02*
X146138152Y-131119047D01*
X146138152Y-131119047D02*
X146233390Y-131166666D01*
X146233390Y-131166666D02*
X146281009Y-131214285D01*
X146281009Y-131214285D02*
X146328628Y-131309523D01*
X146328628Y-131309523D02*
X146328628Y-131690475D01*
X146804819Y-130166666D02*
X146804819Y-130738094D01*
X146804819Y-130452380D02*
X145804819Y-130452380D01*
X145804819Y-130452380D02*
X145947676Y-130547618D01*
X145947676Y-130547618D02*
X146042914Y-130642856D01*
X146042914Y-130642856D02*
X146090533Y-130738094D01*
X145804819Y-129547618D02*
X145804819Y-129452380D01*
X145804819Y-129452380D02*
X145852438Y-129357142D01*
X145852438Y-129357142D02*
X145900057Y-129309523D01*
X145900057Y-129309523D02*
X145995295Y-129261904D01*
X145995295Y-129261904D02*
X146185771Y-129214285D01*
X146185771Y-129214285D02*
X146423866Y-129214285D01*
X146423866Y-129214285D02*
X146614342Y-129261904D01*
X146614342Y-129261904D02*
X146709580Y-129309523D01*
X146709580Y-129309523D02*
X146757200Y-129357142D01*
X146757200Y-129357142D02*
X146804819Y-129452380D01*
X146804819Y-129452380D02*
X146804819Y-129547618D01*
X146804819Y-129547618D02*
X146757200Y-129642856D01*
X146757200Y-129642856D02*
X146709580Y-129690475D01*
X146709580Y-129690475D02*
X146614342Y-129738094D01*
X146614342Y-129738094D02*
X146423866Y-129785713D01*
X146423866Y-129785713D02*
X146185771Y-129785713D01*
X146185771Y-129785713D02*
X145995295Y-129738094D01*
X145995295Y-129738094D02*
X145900057Y-129690475D01*
X145900057Y-129690475D02*
X145852438Y-129642856D01*
X145852438Y-129642856D02*
X145804819Y-129547618D01*
X145804819Y-128309523D02*
X145804819Y-128785713D01*
X145804819Y-128785713D02*
X146281009Y-128833332D01*
X146281009Y-128833332D02*
X146233390Y-128785713D01*
X146233390Y-128785713D02*
X146185771Y-128690475D01*
X146185771Y-128690475D02*
X146185771Y-128452380D01*
X146185771Y-128452380D02*
X146233390Y-128357142D01*
X146233390Y-128357142D02*
X146281009Y-128309523D01*
X146281009Y-128309523D02*
X146376247Y-128261904D01*
X146376247Y-128261904D02*
X146614342Y-128261904D01*
X146614342Y-128261904D02*
X146709580Y-128309523D01*
X146709580Y-128309523D02*
X146757200Y-128357142D01*
X146757200Y-128357142D02*
X146804819Y-128452380D01*
X146804819Y-128452380D02*
X146804819Y-128690475D01*
X146804819Y-128690475D02*
X146757200Y-128785713D01*
X146757200Y-128785713D02*
X146709580Y-128833332D01*
X144880952Y-54804819D02*
X144547619Y-54328628D01*
X144309524Y-54804819D02*
X144309524Y-53804819D01*
X144309524Y-53804819D02*
X144690476Y-53804819D01*
X144690476Y-53804819D02*
X144785714Y-53852438D01*
X144785714Y-53852438D02*
X144833333Y-53900057D01*
X144833333Y-53900057D02*
X144880952Y-53995295D01*
X144880952Y-53995295D02*
X144880952Y-54138152D01*
X144880952Y-54138152D02*
X144833333Y-54233390D01*
X144833333Y-54233390D02*
X144785714Y-54281009D01*
X144785714Y-54281009D02*
X144690476Y-54328628D01*
X144690476Y-54328628D02*
X144309524Y-54328628D01*
X145833333Y-54804819D02*
X145261905Y-54804819D01*
X145547619Y-54804819D02*
X145547619Y-53804819D01*
X145547619Y-53804819D02*
X145452381Y-53947676D01*
X145452381Y-53947676D02*
X145357143Y-54042914D01*
X145357143Y-54042914D02*
X145261905Y-54090533D01*
X146214286Y-53900057D02*
X146261905Y-53852438D01*
X146261905Y-53852438D02*
X146357143Y-53804819D01*
X146357143Y-53804819D02*
X146595238Y-53804819D01*
X146595238Y-53804819D02*
X146690476Y-53852438D01*
X146690476Y-53852438D02*
X146738095Y-53900057D01*
X146738095Y-53900057D02*
X146785714Y-53995295D01*
X146785714Y-53995295D02*
X146785714Y-54090533D01*
X146785714Y-54090533D02*
X146738095Y-54233390D01*
X146738095Y-54233390D02*
X146166667Y-54804819D01*
X146166667Y-54804819D02*
X146785714Y-54804819D01*
X147119048Y-53804819D02*
X147738095Y-53804819D01*
X147738095Y-53804819D02*
X147404762Y-54185771D01*
X147404762Y-54185771D02*
X147547619Y-54185771D01*
X147547619Y-54185771D02*
X147642857Y-54233390D01*
X147642857Y-54233390D02*
X147690476Y-54281009D01*
X147690476Y-54281009D02*
X147738095Y-54376247D01*
X147738095Y-54376247D02*
X147738095Y-54614342D01*
X147738095Y-54614342D02*
X147690476Y-54709580D01*
X147690476Y-54709580D02*
X147642857Y-54757200D01*
X147642857Y-54757200D02*
X147547619Y-54804819D01*
X147547619Y-54804819D02*
X147261905Y-54804819D01*
X147261905Y-54804819D02*
X147166667Y-54757200D01*
X147166667Y-54757200D02*
X147119048Y-54709580D01*
X175854819Y-126869047D02*
X175378628Y-127202380D01*
X175854819Y-127440475D02*
X174854819Y-127440475D01*
X174854819Y-127440475D02*
X174854819Y-127059523D01*
X174854819Y-127059523D02*
X174902438Y-126964285D01*
X174902438Y-126964285D02*
X174950057Y-126916666D01*
X174950057Y-126916666D02*
X175045295Y-126869047D01*
X175045295Y-126869047D02*
X175188152Y-126869047D01*
X175188152Y-126869047D02*
X175283390Y-126916666D01*
X175283390Y-126916666D02*
X175331009Y-126964285D01*
X175331009Y-126964285D02*
X175378628Y-127059523D01*
X175378628Y-127059523D02*
X175378628Y-127440475D01*
X175854819Y-125916666D02*
X175854819Y-126488094D01*
X175854819Y-126202380D02*
X174854819Y-126202380D01*
X174854819Y-126202380D02*
X174997676Y-126297618D01*
X174997676Y-126297618D02*
X175092914Y-126392856D01*
X175092914Y-126392856D02*
X175140533Y-126488094D01*
X174854819Y-125297618D02*
X174854819Y-125202380D01*
X174854819Y-125202380D02*
X174902438Y-125107142D01*
X174902438Y-125107142D02*
X174950057Y-125059523D01*
X174950057Y-125059523D02*
X175045295Y-125011904D01*
X175045295Y-125011904D02*
X175235771Y-124964285D01*
X175235771Y-124964285D02*
X175473866Y-124964285D01*
X175473866Y-124964285D02*
X175664342Y-125011904D01*
X175664342Y-125011904D02*
X175759580Y-125059523D01*
X175759580Y-125059523D02*
X175807200Y-125107142D01*
X175807200Y-125107142D02*
X175854819Y-125202380D01*
X175854819Y-125202380D02*
X175854819Y-125297618D01*
X175854819Y-125297618D02*
X175807200Y-125392856D01*
X175807200Y-125392856D02*
X175759580Y-125440475D01*
X175759580Y-125440475D02*
X175664342Y-125488094D01*
X175664342Y-125488094D02*
X175473866Y-125535713D01*
X175473866Y-125535713D02*
X175235771Y-125535713D01*
X175235771Y-125535713D02*
X175045295Y-125488094D01*
X175045295Y-125488094D02*
X174950057Y-125440475D01*
X174950057Y-125440475D02*
X174902438Y-125392856D01*
X174902438Y-125392856D02*
X174854819Y-125297618D01*
X175854819Y-124488094D02*
X175854819Y-124297618D01*
X175854819Y-124297618D02*
X175807200Y-124202380D01*
X175807200Y-124202380D02*
X175759580Y-124154761D01*
X175759580Y-124154761D02*
X175616723Y-124059523D01*
X175616723Y-124059523D02*
X175426247Y-124011904D01*
X175426247Y-124011904D02*
X175045295Y-124011904D01*
X175045295Y-124011904D02*
X174950057Y-124059523D01*
X174950057Y-124059523D02*
X174902438Y-124107142D01*
X174902438Y-124107142D02*
X174854819Y-124202380D01*
X174854819Y-124202380D02*
X174854819Y-124392856D01*
X174854819Y-124392856D02*
X174902438Y-124488094D01*
X174902438Y-124488094D02*
X174950057Y-124535713D01*
X174950057Y-124535713D02*
X175045295Y-124583332D01*
X175045295Y-124583332D02*
X175283390Y-124583332D01*
X175283390Y-124583332D02*
X175378628Y-124535713D01*
X175378628Y-124535713D02*
X175426247Y-124488094D01*
X175426247Y-124488094D02*
X175473866Y-124392856D01*
X175473866Y-124392856D02*
X175473866Y-124202380D01*
X175473866Y-124202380D02*
X175426247Y-124107142D01*
X175426247Y-124107142D02*
X175378628Y-124059523D01*
X175378628Y-124059523D02*
X175283390Y-124011904D01*
X144880952Y-52604819D02*
X144547619Y-52128628D01*
X144309524Y-52604819D02*
X144309524Y-51604819D01*
X144309524Y-51604819D02*
X144690476Y-51604819D01*
X144690476Y-51604819D02*
X144785714Y-51652438D01*
X144785714Y-51652438D02*
X144833333Y-51700057D01*
X144833333Y-51700057D02*
X144880952Y-51795295D01*
X144880952Y-51795295D02*
X144880952Y-51938152D01*
X144880952Y-51938152D02*
X144833333Y-52033390D01*
X144833333Y-52033390D02*
X144785714Y-52081009D01*
X144785714Y-52081009D02*
X144690476Y-52128628D01*
X144690476Y-52128628D02*
X144309524Y-52128628D01*
X145833333Y-52604819D02*
X145261905Y-52604819D01*
X145547619Y-52604819D02*
X145547619Y-51604819D01*
X145547619Y-51604819D02*
X145452381Y-51747676D01*
X145452381Y-51747676D02*
X145357143Y-51842914D01*
X145357143Y-51842914D02*
X145261905Y-51890533D01*
X146214286Y-51700057D02*
X146261905Y-51652438D01*
X146261905Y-51652438D02*
X146357143Y-51604819D01*
X146357143Y-51604819D02*
X146595238Y-51604819D01*
X146595238Y-51604819D02*
X146690476Y-51652438D01*
X146690476Y-51652438D02*
X146738095Y-51700057D01*
X146738095Y-51700057D02*
X146785714Y-51795295D01*
X146785714Y-51795295D02*
X146785714Y-51890533D01*
X146785714Y-51890533D02*
X146738095Y-52033390D01*
X146738095Y-52033390D02*
X146166667Y-52604819D01*
X146166667Y-52604819D02*
X146785714Y-52604819D01*
X147166667Y-51700057D02*
X147214286Y-51652438D01*
X147214286Y-51652438D02*
X147309524Y-51604819D01*
X147309524Y-51604819D02*
X147547619Y-51604819D01*
X147547619Y-51604819D02*
X147642857Y-51652438D01*
X147642857Y-51652438D02*
X147690476Y-51700057D01*
X147690476Y-51700057D02*
X147738095Y-51795295D01*
X147738095Y-51795295D02*
X147738095Y-51890533D01*
X147738095Y-51890533D02*
X147690476Y-52033390D01*
X147690476Y-52033390D02*
X147119048Y-52604819D01*
X147119048Y-52604819D02*
X147738095Y-52604819D01*
X170714286Y-82907200D02*
X170857143Y-82954819D01*
X170857143Y-82954819D02*
X171095238Y-82954819D01*
X171095238Y-82954819D02*
X171190476Y-82907200D01*
X171190476Y-82907200D02*
X171238095Y-82859580D01*
X171238095Y-82859580D02*
X171285714Y-82764342D01*
X171285714Y-82764342D02*
X171285714Y-82669104D01*
X171285714Y-82669104D02*
X171238095Y-82573866D01*
X171238095Y-82573866D02*
X171190476Y-82526247D01*
X171190476Y-82526247D02*
X171095238Y-82478628D01*
X171095238Y-82478628D02*
X170904762Y-82431009D01*
X170904762Y-82431009D02*
X170809524Y-82383390D01*
X170809524Y-82383390D02*
X170761905Y-82335771D01*
X170761905Y-82335771D02*
X170714286Y-82240533D01*
X170714286Y-82240533D02*
X170714286Y-82145295D01*
X170714286Y-82145295D02*
X170761905Y-82050057D01*
X170761905Y-82050057D02*
X170809524Y-82002438D01*
X170809524Y-82002438D02*
X170904762Y-81954819D01*
X170904762Y-81954819D02*
X171142857Y-81954819D01*
X171142857Y-81954819D02*
X171285714Y-82002438D01*
X171619048Y-81954819D02*
X171857143Y-82954819D01*
X171857143Y-82954819D02*
X172047619Y-82240533D01*
X172047619Y-82240533D02*
X172238095Y-82954819D01*
X172238095Y-82954819D02*
X172476191Y-81954819D01*
X173380952Y-82954819D02*
X172809524Y-82954819D01*
X173095238Y-82954819D02*
X173095238Y-81954819D01*
X173095238Y-81954819D02*
X173000000Y-82097676D01*
X173000000Y-82097676D02*
X172904762Y-82192914D01*
X172904762Y-82192914D02*
X172809524Y-82240533D01*
X174333333Y-82954819D02*
X173761905Y-82954819D01*
X174047619Y-82954819D02*
X174047619Y-81954819D01*
X174047619Y-81954819D02*
X173952381Y-82097676D01*
X173952381Y-82097676D02*
X173857143Y-82192914D01*
X173857143Y-82192914D02*
X173761905Y-82240533D01*
X175285714Y-82954819D02*
X174714286Y-82954819D01*
X175000000Y-82954819D02*
X175000000Y-81954819D01*
X175000000Y-81954819D02*
X174904762Y-82097676D01*
X174904762Y-82097676D02*
X174809524Y-82192914D01*
X174809524Y-82192914D02*
X174714286Y-82240533D01*
X190674286Y-48267200D02*
X190817143Y-48314819D01*
X190817143Y-48314819D02*
X191055238Y-48314819D01*
X191055238Y-48314819D02*
X191150476Y-48267200D01*
X191150476Y-48267200D02*
X191198095Y-48219580D01*
X191198095Y-48219580D02*
X191245714Y-48124342D01*
X191245714Y-48124342D02*
X191245714Y-48029104D01*
X191245714Y-48029104D02*
X191198095Y-47933866D01*
X191198095Y-47933866D02*
X191150476Y-47886247D01*
X191150476Y-47886247D02*
X191055238Y-47838628D01*
X191055238Y-47838628D02*
X190864762Y-47791009D01*
X190864762Y-47791009D02*
X190769524Y-47743390D01*
X190769524Y-47743390D02*
X190721905Y-47695771D01*
X190721905Y-47695771D02*
X190674286Y-47600533D01*
X190674286Y-47600533D02*
X190674286Y-47505295D01*
X190674286Y-47505295D02*
X190721905Y-47410057D01*
X190721905Y-47410057D02*
X190769524Y-47362438D01*
X190769524Y-47362438D02*
X190864762Y-47314819D01*
X190864762Y-47314819D02*
X191102857Y-47314819D01*
X191102857Y-47314819D02*
X191245714Y-47362438D01*
X191579048Y-47314819D02*
X191817143Y-48314819D01*
X191817143Y-48314819D02*
X192007619Y-47600533D01*
X192007619Y-47600533D02*
X192198095Y-48314819D01*
X192198095Y-48314819D02*
X192436191Y-47314819D01*
X193340952Y-48314819D02*
X192769524Y-48314819D01*
X193055238Y-48314819D02*
X193055238Y-47314819D01*
X193055238Y-47314819D02*
X192960000Y-47457676D01*
X192960000Y-47457676D02*
X192864762Y-47552914D01*
X192864762Y-47552914D02*
X192769524Y-47600533D01*
X193960000Y-47314819D02*
X194055238Y-47314819D01*
X194055238Y-47314819D02*
X194150476Y-47362438D01*
X194150476Y-47362438D02*
X194198095Y-47410057D01*
X194198095Y-47410057D02*
X194245714Y-47505295D01*
X194245714Y-47505295D02*
X194293333Y-47695771D01*
X194293333Y-47695771D02*
X194293333Y-47933866D01*
X194293333Y-47933866D02*
X194245714Y-48124342D01*
X194245714Y-48124342D02*
X194198095Y-48219580D01*
X194198095Y-48219580D02*
X194150476Y-48267200D01*
X194150476Y-48267200D02*
X194055238Y-48314819D01*
X194055238Y-48314819D02*
X193960000Y-48314819D01*
X193960000Y-48314819D02*
X193864762Y-48267200D01*
X193864762Y-48267200D02*
X193817143Y-48219580D01*
X193817143Y-48219580D02*
X193769524Y-48124342D01*
X193769524Y-48124342D02*
X193721905Y-47933866D01*
X193721905Y-47933866D02*
X193721905Y-47695771D01*
X193721905Y-47695771D02*
X193769524Y-47505295D01*
X193769524Y-47505295D02*
X193817143Y-47410057D01*
X193817143Y-47410057D02*
X193864762Y-47362438D01*
X193864762Y-47362438D02*
X193960000Y-47314819D01*
X194626667Y-47314819D02*
X195293333Y-47314819D01*
X195293333Y-47314819D02*
X194864762Y-48314819D01*
X160714286Y-65587200D02*
X160857143Y-65634819D01*
X160857143Y-65634819D02*
X161095238Y-65634819D01*
X161095238Y-65634819D02*
X161190476Y-65587200D01*
X161190476Y-65587200D02*
X161238095Y-65539580D01*
X161238095Y-65539580D02*
X161285714Y-65444342D01*
X161285714Y-65444342D02*
X161285714Y-65349104D01*
X161285714Y-65349104D02*
X161238095Y-65253866D01*
X161238095Y-65253866D02*
X161190476Y-65206247D01*
X161190476Y-65206247D02*
X161095238Y-65158628D01*
X161095238Y-65158628D02*
X160904762Y-65111009D01*
X160904762Y-65111009D02*
X160809524Y-65063390D01*
X160809524Y-65063390D02*
X160761905Y-65015771D01*
X160761905Y-65015771D02*
X160714286Y-64920533D01*
X160714286Y-64920533D02*
X160714286Y-64825295D01*
X160714286Y-64825295D02*
X160761905Y-64730057D01*
X160761905Y-64730057D02*
X160809524Y-64682438D01*
X160809524Y-64682438D02*
X160904762Y-64634819D01*
X160904762Y-64634819D02*
X161142857Y-64634819D01*
X161142857Y-64634819D02*
X161285714Y-64682438D01*
X161619048Y-64634819D02*
X161857143Y-65634819D01*
X161857143Y-65634819D02*
X162047619Y-64920533D01*
X162047619Y-64920533D02*
X162238095Y-65634819D01*
X162238095Y-65634819D02*
X162476191Y-64634819D01*
X163380952Y-65634819D02*
X162809524Y-65634819D01*
X163095238Y-65634819D02*
X163095238Y-64634819D01*
X163095238Y-64634819D02*
X163000000Y-64777676D01*
X163000000Y-64777676D02*
X162904762Y-64872914D01*
X162904762Y-64872914D02*
X162809524Y-64920533D01*
X164333333Y-65634819D02*
X163761905Y-65634819D01*
X164047619Y-65634819D02*
X164047619Y-64634819D01*
X164047619Y-64634819D02*
X163952381Y-64777676D01*
X163952381Y-64777676D02*
X163857143Y-64872914D01*
X163857143Y-64872914D02*
X163761905Y-64920533D01*
X164952381Y-64634819D02*
X165047619Y-64634819D01*
X165047619Y-64634819D02*
X165142857Y-64682438D01*
X165142857Y-64682438D02*
X165190476Y-64730057D01*
X165190476Y-64730057D02*
X165238095Y-64825295D01*
X165238095Y-64825295D02*
X165285714Y-65015771D01*
X165285714Y-65015771D02*
X165285714Y-65253866D01*
X165285714Y-65253866D02*
X165238095Y-65444342D01*
X165238095Y-65444342D02*
X165190476Y-65539580D01*
X165190476Y-65539580D02*
X165142857Y-65587200D01*
X165142857Y-65587200D02*
X165047619Y-65634819D01*
X165047619Y-65634819D02*
X164952381Y-65634819D01*
X164952381Y-65634819D02*
X164857143Y-65587200D01*
X164857143Y-65587200D02*
X164809524Y-65539580D01*
X164809524Y-65539580D02*
X164761905Y-65444342D01*
X164761905Y-65444342D02*
X164714286Y-65253866D01*
X164714286Y-65253866D02*
X164714286Y-65015771D01*
X164714286Y-65015771D02*
X164761905Y-64825295D01*
X164761905Y-64825295D02*
X164809524Y-64730057D01*
X164809524Y-64730057D02*
X164857143Y-64682438D01*
X164857143Y-64682438D02*
X164952381Y-64634819D01*
X124880952Y-90804819D02*
X124547619Y-90328628D01*
X124309524Y-90804819D02*
X124309524Y-89804819D01*
X124309524Y-89804819D02*
X124690476Y-89804819D01*
X124690476Y-89804819D02*
X124785714Y-89852438D01*
X124785714Y-89852438D02*
X124833333Y-89900057D01*
X124833333Y-89900057D02*
X124880952Y-89995295D01*
X124880952Y-89995295D02*
X124880952Y-90138152D01*
X124880952Y-90138152D02*
X124833333Y-90233390D01*
X124833333Y-90233390D02*
X124785714Y-90281009D01*
X124785714Y-90281009D02*
X124690476Y-90328628D01*
X124690476Y-90328628D02*
X124309524Y-90328628D01*
X125833333Y-90804819D02*
X125261905Y-90804819D01*
X125547619Y-90804819D02*
X125547619Y-89804819D01*
X125547619Y-89804819D02*
X125452381Y-89947676D01*
X125452381Y-89947676D02*
X125357143Y-90042914D01*
X125357143Y-90042914D02*
X125261905Y-90090533D01*
X126214286Y-89900057D02*
X126261905Y-89852438D01*
X126261905Y-89852438D02*
X126357143Y-89804819D01*
X126357143Y-89804819D02*
X126595238Y-89804819D01*
X126595238Y-89804819D02*
X126690476Y-89852438D01*
X126690476Y-89852438D02*
X126738095Y-89900057D01*
X126738095Y-89900057D02*
X126785714Y-89995295D01*
X126785714Y-89995295D02*
X126785714Y-90090533D01*
X126785714Y-90090533D02*
X126738095Y-90233390D01*
X126738095Y-90233390D02*
X126166667Y-90804819D01*
X126166667Y-90804819D02*
X126785714Y-90804819D01*
X127119048Y-89804819D02*
X127785714Y-89804819D01*
X127785714Y-89804819D02*
X127357143Y-90804819D01*
X142104819Y-146369047D02*
X141628628Y-146702380D01*
X142104819Y-146940475D02*
X141104819Y-146940475D01*
X141104819Y-146940475D02*
X141104819Y-146559523D01*
X141104819Y-146559523D02*
X141152438Y-146464285D01*
X141152438Y-146464285D02*
X141200057Y-146416666D01*
X141200057Y-146416666D02*
X141295295Y-146369047D01*
X141295295Y-146369047D02*
X141438152Y-146369047D01*
X141438152Y-146369047D02*
X141533390Y-146416666D01*
X141533390Y-146416666D02*
X141581009Y-146464285D01*
X141581009Y-146464285D02*
X141628628Y-146559523D01*
X141628628Y-146559523D02*
X141628628Y-146940475D01*
X142104819Y-145416666D02*
X142104819Y-145988094D01*
X142104819Y-145702380D02*
X141104819Y-145702380D01*
X141104819Y-145702380D02*
X141247676Y-145797618D01*
X141247676Y-145797618D02*
X141342914Y-145892856D01*
X141342914Y-145892856D02*
X141390533Y-145988094D01*
X141104819Y-144797618D02*
X141104819Y-144702380D01*
X141104819Y-144702380D02*
X141152438Y-144607142D01*
X141152438Y-144607142D02*
X141200057Y-144559523D01*
X141200057Y-144559523D02*
X141295295Y-144511904D01*
X141295295Y-144511904D02*
X141485771Y-144464285D01*
X141485771Y-144464285D02*
X141723866Y-144464285D01*
X141723866Y-144464285D02*
X141914342Y-144511904D01*
X141914342Y-144511904D02*
X142009580Y-144559523D01*
X142009580Y-144559523D02*
X142057200Y-144607142D01*
X142057200Y-144607142D02*
X142104819Y-144702380D01*
X142104819Y-144702380D02*
X142104819Y-144797618D01*
X142104819Y-144797618D02*
X142057200Y-144892856D01*
X142057200Y-144892856D02*
X142009580Y-144940475D01*
X142009580Y-144940475D02*
X141914342Y-144988094D01*
X141914342Y-144988094D02*
X141723866Y-145035713D01*
X141723866Y-145035713D02*
X141485771Y-145035713D01*
X141485771Y-145035713D02*
X141295295Y-144988094D01*
X141295295Y-144988094D02*
X141200057Y-144940475D01*
X141200057Y-144940475D02*
X141152438Y-144892856D01*
X141152438Y-144892856D02*
X141104819Y-144797618D01*
X141104819Y-144130951D02*
X141104819Y-143464285D01*
X141104819Y-143464285D02*
X142104819Y-143892856D01*
X150674286Y-82907200D02*
X150817143Y-82954819D01*
X150817143Y-82954819D02*
X151055238Y-82954819D01*
X151055238Y-82954819D02*
X151150476Y-82907200D01*
X151150476Y-82907200D02*
X151198095Y-82859580D01*
X151198095Y-82859580D02*
X151245714Y-82764342D01*
X151245714Y-82764342D02*
X151245714Y-82669104D01*
X151245714Y-82669104D02*
X151198095Y-82573866D01*
X151198095Y-82573866D02*
X151150476Y-82526247D01*
X151150476Y-82526247D02*
X151055238Y-82478628D01*
X151055238Y-82478628D02*
X150864762Y-82431009D01*
X150864762Y-82431009D02*
X150769524Y-82383390D01*
X150769524Y-82383390D02*
X150721905Y-82335771D01*
X150721905Y-82335771D02*
X150674286Y-82240533D01*
X150674286Y-82240533D02*
X150674286Y-82145295D01*
X150674286Y-82145295D02*
X150721905Y-82050057D01*
X150721905Y-82050057D02*
X150769524Y-82002438D01*
X150769524Y-82002438D02*
X150864762Y-81954819D01*
X150864762Y-81954819D02*
X151102857Y-81954819D01*
X151102857Y-81954819D02*
X151245714Y-82002438D01*
X151579048Y-81954819D02*
X151817143Y-82954819D01*
X151817143Y-82954819D02*
X152007619Y-82240533D01*
X152007619Y-82240533D02*
X152198095Y-82954819D01*
X152198095Y-82954819D02*
X152436191Y-81954819D01*
X153340952Y-82954819D02*
X152769524Y-82954819D01*
X153055238Y-82954819D02*
X153055238Y-81954819D01*
X153055238Y-81954819D02*
X152960000Y-82097676D01*
X152960000Y-82097676D02*
X152864762Y-82192914D01*
X152864762Y-82192914D02*
X152769524Y-82240533D01*
X154293333Y-82954819D02*
X153721905Y-82954819D01*
X154007619Y-82954819D02*
X154007619Y-81954819D01*
X154007619Y-81954819D02*
X153912381Y-82097676D01*
X153912381Y-82097676D02*
X153817143Y-82192914D01*
X153817143Y-82192914D02*
X153721905Y-82240533D01*
X154674286Y-82050057D02*
X154721905Y-82002438D01*
X154721905Y-82002438D02*
X154817143Y-81954819D01*
X154817143Y-81954819D02*
X155055238Y-81954819D01*
X155055238Y-81954819D02*
X155150476Y-82002438D01*
X155150476Y-82002438D02*
X155198095Y-82050057D01*
X155198095Y-82050057D02*
X155245714Y-82145295D01*
X155245714Y-82145295D02*
X155245714Y-82240533D01*
X155245714Y-82240533D02*
X155198095Y-82383390D01*
X155198095Y-82383390D02*
X154626667Y-82954819D01*
X154626667Y-82954819D02*
X155245714Y-82954819D01*
X116785714Y-143554819D02*
X116785714Y-144364342D01*
X116785714Y-144364342D02*
X116833333Y-144459580D01*
X116833333Y-144459580D02*
X116880952Y-144507200D01*
X116880952Y-144507200D02*
X116976190Y-144554819D01*
X116976190Y-144554819D02*
X117166666Y-144554819D01*
X117166666Y-144554819D02*
X117261904Y-144507200D01*
X117261904Y-144507200D02*
X117309523Y-144459580D01*
X117309523Y-144459580D02*
X117357142Y-144364342D01*
X117357142Y-144364342D02*
X117357142Y-143554819D01*
X118357142Y-144554819D02*
X117785714Y-144554819D01*
X118071428Y-144554819D02*
X118071428Y-143554819D01*
X118071428Y-143554819D02*
X117976190Y-143697676D01*
X117976190Y-143697676D02*
X117880952Y-143792914D01*
X117880952Y-143792914D02*
X117785714Y-143840533D01*
X118976190Y-143554819D02*
X119071428Y-143554819D01*
X119071428Y-143554819D02*
X119166666Y-143602438D01*
X119166666Y-143602438D02*
X119214285Y-143650057D01*
X119214285Y-143650057D02*
X119261904Y-143745295D01*
X119261904Y-143745295D02*
X119309523Y-143935771D01*
X119309523Y-143935771D02*
X119309523Y-144173866D01*
X119309523Y-144173866D02*
X119261904Y-144364342D01*
X119261904Y-144364342D02*
X119214285Y-144459580D01*
X119214285Y-144459580D02*
X119166666Y-144507200D01*
X119166666Y-144507200D02*
X119071428Y-144554819D01*
X119071428Y-144554819D02*
X118976190Y-144554819D01*
X118976190Y-144554819D02*
X118880952Y-144507200D01*
X118880952Y-144507200D02*
X118833333Y-144459580D01*
X118833333Y-144459580D02*
X118785714Y-144364342D01*
X118785714Y-144364342D02*
X118738095Y-144173866D01*
X118738095Y-144173866D02*
X118738095Y-143935771D01*
X118738095Y-143935771D02*
X118785714Y-143745295D01*
X118785714Y-143745295D02*
X118833333Y-143650057D01*
X118833333Y-143650057D02*
X118880952Y-143602438D01*
X118880952Y-143602438D02*
X118976190Y-143554819D01*
X120214285Y-143554819D02*
X119738095Y-143554819D01*
X119738095Y-143554819D02*
X119690476Y-144031009D01*
X119690476Y-144031009D02*
X119738095Y-143983390D01*
X119738095Y-143983390D02*
X119833333Y-143935771D01*
X119833333Y-143935771D02*
X120071428Y-143935771D01*
X120071428Y-143935771D02*
X120166666Y-143983390D01*
X120166666Y-143983390D02*
X120214285Y-144031009D01*
X120214285Y-144031009D02*
X120261904Y-144126247D01*
X120261904Y-144126247D02*
X120261904Y-144364342D01*
X120261904Y-144364342D02*
X120214285Y-144459580D01*
X120214285Y-144459580D02*
X120166666Y-144507200D01*
X120166666Y-144507200D02*
X120071428Y-144554819D01*
X120071428Y-144554819D02*
X119833333Y-144554819D01*
X119833333Y-144554819D02*
X119738095Y-144507200D01*
X119738095Y-144507200D02*
X119690476Y-144459580D01*
X136285714Y-117754819D02*
X136285714Y-118564342D01*
X136285714Y-118564342D02*
X136333333Y-118659580D01*
X136333333Y-118659580D02*
X136380952Y-118707200D01*
X136380952Y-118707200D02*
X136476190Y-118754819D01*
X136476190Y-118754819D02*
X136666666Y-118754819D01*
X136666666Y-118754819D02*
X136761904Y-118707200D01*
X136761904Y-118707200D02*
X136809523Y-118659580D01*
X136809523Y-118659580D02*
X136857142Y-118564342D01*
X136857142Y-118564342D02*
X136857142Y-117754819D01*
X137857142Y-118754819D02*
X137285714Y-118754819D01*
X137571428Y-118754819D02*
X137571428Y-117754819D01*
X137571428Y-117754819D02*
X137476190Y-117897676D01*
X137476190Y-117897676D02*
X137380952Y-117992914D01*
X137380952Y-117992914D02*
X137285714Y-118040533D01*
X138476190Y-117754819D02*
X138571428Y-117754819D01*
X138571428Y-117754819D02*
X138666666Y-117802438D01*
X138666666Y-117802438D02*
X138714285Y-117850057D01*
X138714285Y-117850057D02*
X138761904Y-117945295D01*
X138761904Y-117945295D02*
X138809523Y-118135771D01*
X138809523Y-118135771D02*
X138809523Y-118373866D01*
X138809523Y-118373866D02*
X138761904Y-118564342D01*
X138761904Y-118564342D02*
X138714285Y-118659580D01*
X138714285Y-118659580D02*
X138666666Y-118707200D01*
X138666666Y-118707200D02*
X138571428Y-118754819D01*
X138571428Y-118754819D02*
X138476190Y-118754819D01*
X138476190Y-118754819D02*
X138380952Y-118707200D01*
X138380952Y-118707200D02*
X138333333Y-118659580D01*
X138333333Y-118659580D02*
X138285714Y-118564342D01*
X138285714Y-118564342D02*
X138238095Y-118373866D01*
X138238095Y-118373866D02*
X138238095Y-118135771D01*
X138238095Y-118135771D02*
X138285714Y-117945295D01*
X138285714Y-117945295D02*
X138333333Y-117850057D01*
X138333333Y-117850057D02*
X138380952Y-117802438D01*
X138380952Y-117802438D02*
X138476190Y-117754819D01*
X139190476Y-117850057D02*
X139238095Y-117802438D01*
X139238095Y-117802438D02*
X139333333Y-117754819D01*
X139333333Y-117754819D02*
X139571428Y-117754819D01*
X139571428Y-117754819D02*
X139666666Y-117802438D01*
X139666666Y-117802438D02*
X139714285Y-117850057D01*
X139714285Y-117850057D02*
X139761904Y-117945295D01*
X139761904Y-117945295D02*
X139761904Y-118040533D01*
X139761904Y-118040533D02*
X139714285Y-118183390D01*
X139714285Y-118183390D02*
X139142857Y-118754819D01*
X139142857Y-118754819D02*
X139761904Y-118754819D01*
X130674286Y-82907200D02*
X130817143Y-82954819D01*
X130817143Y-82954819D02*
X131055238Y-82954819D01*
X131055238Y-82954819D02*
X131150476Y-82907200D01*
X131150476Y-82907200D02*
X131198095Y-82859580D01*
X131198095Y-82859580D02*
X131245714Y-82764342D01*
X131245714Y-82764342D02*
X131245714Y-82669104D01*
X131245714Y-82669104D02*
X131198095Y-82573866D01*
X131198095Y-82573866D02*
X131150476Y-82526247D01*
X131150476Y-82526247D02*
X131055238Y-82478628D01*
X131055238Y-82478628D02*
X130864762Y-82431009D01*
X130864762Y-82431009D02*
X130769524Y-82383390D01*
X130769524Y-82383390D02*
X130721905Y-82335771D01*
X130721905Y-82335771D02*
X130674286Y-82240533D01*
X130674286Y-82240533D02*
X130674286Y-82145295D01*
X130674286Y-82145295D02*
X130721905Y-82050057D01*
X130721905Y-82050057D02*
X130769524Y-82002438D01*
X130769524Y-82002438D02*
X130864762Y-81954819D01*
X130864762Y-81954819D02*
X131102857Y-81954819D01*
X131102857Y-81954819D02*
X131245714Y-82002438D01*
X131579048Y-81954819D02*
X131817143Y-82954819D01*
X131817143Y-82954819D02*
X132007619Y-82240533D01*
X132007619Y-82240533D02*
X132198095Y-82954819D01*
X132198095Y-82954819D02*
X132436191Y-81954819D01*
X133340952Y-82954819D02*
X132769524Y-82954819D01*
X133055238Y-82954819D02*
X133055238Y-81954819D01*
X133055238Y-81954819D02*
X132960000Y-82097676D01*
X132960000Y-82097676D02*
X132864762Y-82192914D01*
X132864762Y-82192914D02*
X132769524Y-82240533D01*
X133960000Y-81954819D02*
X134055238Y-81954819D01*
X134055238Y-81954819D02*
X134150476Y-82002438D01*
X134150476Y-82002438D02*
X134198095Y-82050057D01*
X134198095Y-82050057D02*
X134245714Y-82145295D01*
X134245714Y-82145295D02*
X134293333Y-82335771D01*
X134293333Y-82335771D02*
X134293333Y-82573866D01*
X134293333Y-82573866D02*
X134245714Y-82764342D01*
X134245714Y-82764342D02*
X134198095Y-82859580D01*
X134198095Y-82859580D02*
X134150476Y-82907200D01*
X134150476Y-82907200D02*
X134055238Y-82954819D01*
X134055238Y-82954819D02*
X133960000Y-82954819D01*
X133960000Y-82954819D02*
X133864762Y-82907200D01*
X133864762Y-82907200D02*
X133817143Y-82859580D01*
X133817143Y-82859580D02*
X133769524Y-82764342D01*
X133769524Y-82764342D02*
X133721905Y-82573866D01*
X133721905Y-82573866D02*
X133721905Y-82335771D01*
X133721905Y-82335771D02*
X133769524Y-82145295D01*
X133769524Y-82145295D02*
X133817143Y-82050057D01*
X133817143Y-82050057D02*
X133864762Y-82002438D01*
X133864762Y-82002438D02*
X133960000Y-81954819D01*
X135198095Y-81954819D02*
X134721905Y-81954819D01*
X134721905Y-81954819D02*
X134674286Y-82431009D01*
X134674286Y-82431009D02*
X134721905Y-82383390D01*
X134721905Y-82383390D02*
X134817143Y-82335771D01*
X134817143Y-82335771D02*
X135055238Y-82335771D01*
X135055238Y-82335771D02*
X135150476Y-82383390D01*
X135150476Y-82383390D02*
X135198095Y-82431009D01*
X135198095Y-82431009D02*
X135245714Y-82526247D01*
X135245714Y-82526247D02*
X135245714Y-82764342D01*
X135245714Y-82764342D02*
X135198095Y-82859580D01*
X135198095Y-82859580D02*
X135150476Y-82907200D01*
X135150476Y-82907200D02*
X135055238Y-82954819D01*
X135055238Y-82954819D02*
X134817143Y-82954819D01*
X134817143Y-82954819D02*
X134721905Y-82907200D01*
X134721905Y-82907200D02*
X134674286Y-82859580D01*
X177764285Y-121204819D02*
X177764285Y-121919104D01*
X177764285Y-121919104D02*
X177716666Y-122061961D01*
X177716666Y-122061961D02*
X177621428Y-122157200D01*
X177621428Y-122157200D02*
X177478571Y-122204819D01*
X177478571Y-122204819D02*
X177383333Y-122204819D01*
X178764285Y-122204819D02*
X178192857Y-122204819D01*
X178478571Y-122204819D02*
X178478571Y-121204819D01*
X178478571Y-121204819D02*
X178383333Y-121347676D01*
X178383333Y-121347676D02*
X178288095Y-121442914D01*
X178288095Y-121442914D02*
X178192857Y-121490533D01*
X179383333Y-121204819D02*
X179478571Y-121204819D01*
X179478571Y-121204819D02*
X179573809Y-121252438D01*
X179573809Y-121252438D02*
X179621428Y-121300057D01*
X179621428Y-121300057D02*
X179669047Y-121395295D01*
X179669047Y-121395295D02*
X179716666Y-121585771D01*
X179716666Y-121585771D02*
X179716666Y-121823866D01*
X179716666Y-121823866D02*
X179669047Y-122014342D01*
X179669047Y-122014342D02*
X179621428Y-122109580D01*
X179621428Y-122109580D02*
X179573809Y-122157200D01*
X179573809Y-122157200D02*
X179478571Y-122204819D01*
X179478571Y-122204819D02*
X179383333Y-122204819D01*
X179383333Y-122204819D02*
X179288095Y-122157200D01*
X179288095Y-122157200D02*
X179240476Y-122109580D01*
X179240476Y-122109580D02*
X179192857Y-122014342D01*
X179192857Y-122014342D02*
X179145238Y-121823866D01*
X179145238Y-121823866D02*
X179145238Y-121585771D01*
X179145238Y-121585771D02*
X179192857Y-121395295D01*
X179192857Y-121395295D02*
X179240476Y-121300057D01*
X179240476Y-121300057D02*
X179288095Y-121252438D01*
X179288095Y-121252438D02*
X179383333Y-121204819D01*
X180573809Y-121538152D02*
X180573809Y-122204819D01*
X180335714Y-121157200D02*
X180097619Y-121871485D01*
X180097619Y-121871485D02*
X180716666Y-121871485D01*
X120714286Y-65587200D02*
X120857143Y-65634819D01*
X120857143Y-65634819D02*
X121095238Y-65634819D01*
X121095238Y-65634819D02*
X121190476Y-65587200D01*
X121190476Y-65587200D02*
X121238095Y-65539580D01*
X121238095Y-65539580D02*
X121285714Y-65444342D01*
X121285714Y-65444342D02*
X121285714Y-65349104D01*
X121285714Y-65349104D02*
X121238095Y-65253866D01*
X121238095Y-65253866D02*
X121190476Y-65206247D01*
X121190476Y-65206247D02*
X121095238Y-65158628D01*
X121095238Y-65158628D02*
X120904762Y-65111009D01*
X120904762Y-65111009D02*
X120809524Y-65063390D01*
X120809524Y-65063390D02*
X120761905Y-65015771D01*
X120761905Y-65015771D02*
X120714286Y-64920533D01*
X120714286Y-64920533D02*
X120714286Y-64825295D01*
X120714286Y-64825295D02*
X120761905Y-64730057D01*
X120761905Y-64730057D02*
X120809524Y-64682438D01*
X120809524Y-64682438D02*
X120904762Y-64634819D01*
X120904762Y-64634819D02*
X121142857Y-64634819D01*
X121142857Y-64634819D02*
X121285714Y-64682438D01*
X121619048Y-64634819D02*
X121857143Y-65634819D01*
X121857143Y-65634819D02*
X122047619Y-64920533D01*
X122047619Y-64920533D02*
X122238095Y-65634819D01*
X122238095Y-65634819D02*
X122476191Y-64634819D01*
X123380952Y-65634819D02*
X122809524Y-65634819D01*
X123095238Y-65634819D02*
X123095238Y-64634819D01*
X123095238Y-64634819D02*
X123000000Y-64777676D01*
X123000000Y-64777676D02*
X122904762Y-64872914D01*
X122904762Y-64872914D02*
X122809524Y-64920533D01*
X124000000Y-64634819D02*
X124095238Y-64634819D01*
X124095238Y-64634819D02*
X124190476Y-64682438D01*
X124190476Y-64682438D02*
X124238095Y-64730057D01*
X124238095Y-64730057D02*
X124285714Y-64825295D01*
X124285714Y-64825295D02*
X124333333Y-65015771D01*
X124333333Y-65015771D02*
X124333333Y-65253866D01*
X124333333Y-65253866D02*
X124285714Y-65444342D01*
X124285714Y-65444342D02*
X124238095Y-65539580D01*
X124238095Y-65539580D02*
X124190476Y-65587200D01*
X124190476Y-65587200D02*
X124095238Y-65634819D01*
X124095238Y-65634819D02*
X124000000Y-65634819D01*
X124000000Y-65634819D02*
X123904762Y-65587200D01*
X123904762Y-65587200D02*
X123857143Y-65539580D01*
X123857143Y-65539580D02*
X123809524Y-65444342D01*
X123809524Y-65444342D02*
X123761905Y-65253866D01*
X123761905Y-65253866D02*
X123761905Y-65015771D01*
X123761905Y-65015771D02*
X123809524Y-64825295D01*
X123809524Y-64825295D02*
X123857143Y-64730057D01*
X123857143Y-64730057D02*
X123904762Y-64682438D01*
X123904762Y-64682438D02*
X124000000Y-64634819D01*
X125190476Y-64968152D02*
X125190476Y-65634819D01*
X124952381Y-64587200D02*
X124714286Y-65301485D01*
X124714286Y-65301485D02*
X125333333Y-65301485D01*
X130674286Y-48267200D02*
X130817143Y-48314819D01*
X130817143Y-48314819D02*
X131055238Y-48314819D01*
X131055238Y-48314819D02*
X131150476Y-48267200D01*
X131150476Y-48267200D02*
X131198095Y-48219580D01*
X131198095Y-48219580D02*
X131245714Y-48124342D01*
X131245714Y-48124342D02*
X131245714Y-48029104D01*
X131245714Y-48029104D02*
X131198095Y-47933866D01*
X131198095Y-47933866D02*
X131150476Y-47886247D01*
X131150476Y-47886247D02*
X131055238Y-47838628D01*
X131055238Y-47838628D02*
X130864762Y-47791009D01*
X130864762Y-47791009D02*
X130769524Y-47743390D01*
X130769524Y-47743390D02*
X130721905Y-47695771D01*
X130721905Y-47695771D02*
X130674286Y-47600533D01*
X130674286Y-47600533D02*
X130674286Y-47505295D01*
X130674286Y-47505295D02*
X130721905Y-47410057D01*
X130721905Y-47410057D02*
X130769524Y-47362438D01*
X130769524Y-47362438D02*
X130864762Y-47314819D01*
X130864762Y-47314819D02*
X131102857Y-47314819D01*
X131102857Y-47314819D02*
X131245714Y-47362438D01*
X131579048Y-47314819D02*
X131817143Y-48314819D01*
X131817143Y-48314819D02*
X132007619Y-47600533D01*
X132007619Y-47600533D02*
X132198095Y-48314819D01*
X132198095Y-48314819D02*
X132436191Y-47314819D01*
X133340952Y-48314819D02*
X132769524Y-48314819D01*
X133055238Y-48314819D02*
X133055238Y-47314819D01*
X133055238Y-47314819D02*
X132960000Y-47457676D01*
X132960000Y-47457676D02*
X132864762Y-47552914D01*
X132864762Y-47552914D02*
X132769524Y-47600533D01*
X133960000Y-47314819D02*
X134055238Y-47314819D01*
X134055238Y-47314819D02*
X134150476Y-47362438D01*
X134150476Y-47362438D02*
X134198095Y-47410057D01*
X134198095Y-47410057D02*
X134245714Y-47505295D01*
X134245714Y-47505295D02*
X134293333Y-47695771D01*
X134293333Y-47695771D02*
X134293333Y-47933866D01*
X134293333Y-47933866D02*
X134245714Y-48124342D01*
X134245714Y-48124342D02*
X134198095Y-48219580D01*
X134198095Y-48219580D02*
X134150476Y-48267200D01*
X134150476Y-48267200D02*
X134055238Y-48314819D01*
X134055238Y-48314819D02*
X133960000Y-48314819D01*
X133960000Y-48314819D02*
X133864762Y-48267200D01*
X133864762Y-48267200D02*
X133817143Y-48219580D01*
X133817143Y-48219580D02*
X133769524Y-48124342D01*
X133769524Y-48124342D02*
X133721905Y-47933866D01*
X133721905Y-47933866D02*
X133721905Y-47695771D01*
X133721905Y-47695771D02*
X133769524Y-47505295D01*
X133769524Y-47505295D02*
X133817143Y-47410057D01*
X133817143Y-47410057D02*
X133864762Y-47362438D01*
X133864762Y-47362438D02*
X133960000Y-47314819D01*
X134674286Y-47410057D02*
X134721905Y-47362438D01*
X134721905Y-47362438D02*
X134817143Y-47314819D01*
X134817143Y-47314819D02*
X135055238Y-47314819D01*
X135055238Y-47314819D02*
X135150476Y-47362438D01*
X135150476Y-47362438D02*
X135198095Y-47410057D01*
X135198095Y-47410057D02*
X135245714Y-47505295D01*
X135245714Y-47505295D02*
X135245714Y-47600533D01*
X135245714Y-47600533D02*
X135198095Y-47743390D01*
X135198095Y-47743390D02*
X134626667Y-48314819D01*
X134626667Y-48314819D02*
X135245714Y-48314819D01*
X180714286Y-65587200D02*
X180857143Y-65634819D01*
X180857143Y-65634819D02*
X181095238Y-65634819D01*
X181095238Y-65634819D02*
X181190476Y-65587200D01*
X181190476Y-65587200D02*
X181238095Y-65539580D01*
X181238095Y-65539580D02*
X181285714Y-65444342D01*
X181285714Y-65444342D02*
X181285714Y-65349104D01*
X181285714Y-65349104D02*
X181238095Y-65253866D01*
X181238095Y-65253866D02*
X181190476Y-65206247D01*
X181190476Y-65206247D02*
X181095238Y-65158628D01*
X181095238Y-65158628D02*
X180904762Y-65111009D01*
X180904762Y-65111009D02*
X180809524Y-65063390D01*
X180809524Y-65063390D02*
X180761905Y-65015771D01*
X180761905Y-65015771D02*
X180714286Y-64920533D01*
X180714286Y-64920533D02*
X180714286Y-64825295D01*
X180714286Y-64825295D02*
X180761905Y-64730057D01*
X180761905Y-64730057D02*
X180809524Y-64682438D01*
X180809524Y-64682438D02*
X180904762Y-64634819D01*
X180904762Y-64634819D02*
X181142857Y-64634819D01*
X181142857Y-64634819D02*
X181285714Y-64682438D01*
X181619048Y-64634819D02*
X181857143Y-65634819D01*
X181857143Y-65634819D02*
X182047619Y-64920533D01*
X182047619Y-64920533D02*
X182238095Y-65634819D01*
X182238095Y-65634819D02*
X182476191Y-64634819D01*
X183380952Y-65634819D02*
X182809524Y-65634819D01*
X183095238Y-65634819D02*
X183095238Y-64634819D01*
X183095238Y-64634819D02*
X183000000Y-64777676D01*
X183000000Y-64777676D02*
X182904762Y-64872914D01*
X182904762Y-64872914D02*
X182809524Y-64920533D01*
X184000000Y-64634819D02*
X184095238Y-64634819D01*
X184095238Y-64634819D02*
X184190476Y-64682438D01*
X184190476Y-64682438D02*
X184238095Y-64730057D01*
X184238095Y-64730057D02*
X184285714Y-64825295D01*
X184285714Y-64825295D02*
X184333333Y-65015771D01*
X184333333Y-65015771D02*
X184333333Y-65253866D01*
X184333333Y-65253866D02*
X184285714Y-65444342D01*
X184285714Y-65444342D02*
X184238095Y-65539580D01*
X184238095Y-65539580D02*
X184190476Y-65587200D01*
X184190476Y-65587200D02*
X184095238Y-65634819D01*
X184095238Y-65634819D02*
X184000000Y-65634819D01*
X184000000Y-65634819D02*
X183904762Y-65587200D01*
X183904762Y-65587200D02*
X183857143Y-65539580D01*
X183857143Y-65539580D02*
X183809524Y-65444342D01*
X183809524Y-65444342D02*
X183761905Y-65253866D01*
X183761905Y-65253866D02*
X183761905Y-65015771D01*
X183761905Y-65015771D02*
X183809524Y-64825295D01*
X183809524Y-64825295D02*
X183857143Y-64730057D01*
X183857143Y-64730057D02*
X183904762Y-64682438D01*
X183904762Y-64682438D02*
X184000000Y-64634819D01*
X184809524Y-65634819D02*
X185000000Y-65634819D01*
X185000000Y-65634819D02*
X185095238Y-65587200D01*
X185095238Y-65587200D02*
X185142857Y-65539580D01*
X185142857Y-65539580D02*
X185238095Y-65396723D01*
X185238095Y-65396723D02*
X185285714Y-65206247D01*
X185285714Y-65206247D02*
X185285714Y-64825295D01*
X185285714Y-64825295D02*
X185238095Y-64730057D01*
X185238095Y-64730057D02*
X185190476Y-64682438D01*
X185190476Y-64682438D02*
X185095238Y-64634819D01*
X185095238Y-64634819D02*
X184904762Y-64634819D01*
X184904762Y-64634819D02*
X184809524Y-64682438D01*
X184809524Y-64682438D02*
X184761905Y-64730057D01*
X184761905Y-64730057D02*
X184714286Y-64825295D01*
X184714286Y-64825295D02*
X184714286Y-65063390D01*
X184714286Y-65063390D02*
X184761905Y-65158628D01*
X184761905Y-65158628D02*
X184809524Y-65206247D01*
X184809524Y-65206247D02*
X184904762Y-65253866D01*
X184904762Y-65253866D02*
X185095238Y-65253866D01*
X185095238Y-65253866D02*
X185190476Y-65206247D01*
X185190476Y-65206247D02*
X185238095Y-65158628D01*
X185238095Y-65158628D02*
X185285714Y-65063390D01*
X146104819Y-146369047D02*
X145628628Y-146702380D01*
X146104819Y-146940475D02*
X145104819Y-146940475D01*
X145104819Y-146940475D02*
X145104819Y-146559523D01*
X145104819Y-146559523D02*
X145152438Y-146464285D01*
X145152438Y-146464285D02*
X145200057Y-146416666D01*
X145200057Y-146416666D02*
X145295295Y-146369047D01*
X145295295Y-146369047D02*
X145438152Y-146369047D01*
X145438152Y-146369047D02*
X145533390Y-146416666D01*
X145533390Y-146416666D02*
X145581009Y-146464285D01*
X145581009Y-146464285D02*
X145628628Y-146559523D01*
X145628628Y-146559523D02*
X145628628Y-146940475D01*
X146104819Y-145416666D02*
X146104819Y-145988094D01*
X146104819Y-145702380D02*
X145104819Y-145702380D01*
X145104819Y-145702380D02*
X145247676Y-145797618D01*
X145247676Y-145797618D02*
X145342914Y-145892856D01*
X145342914Y-145892856D02*
X145390533Y-145988094D01*
X145104819Y-144797618D02*
X145104819Y-144702380D01*
X145104819Y-144702380D02*
X145152438Y-144607142D01*
X145152438Y-144607142D02*
X145200057Y-144559523D01*
X145200057Y-144559523D02*
X145295295Y-144511904D01*
X145295295Y-144511904D02*
X145485771Y-144464285D01*
X145485771Y-144464285D02*
X145723866Y-144464285D01*
X145723866Y-144464285D02*
X145914342Y-144511904D01*
X145914342Y-144511904D02*
X146009580Y-144559523D01*
X146009580Y-144559523D02*
X146057200Y-144607142D01*
X146057200Y-144607142D02*
X146104819Y-144702380D01*
X146104819Y-144702380D02*
X146104819Y-144797618D01*
X146104819Y-144797618D02*
X146057200Y-144892856D01*
X146057200Y-144892856D02*
X146009580Y-144940475D01*
X146009580Y-144940475D02*
X145914342Y-144988094D01*
X145914342Y-144988094D02*
X145723866Y-145035713D01*
X145723866Y-145035713D02*
X145485771Y-145035713D01*
X145485771Y-145035713D02*
X145295295Y-144988094D01*
X145295295Y-144988094D02*
X145200057Y-144940475D01*
X145200057Y-144940475D02*
X145152438Y-144892856D01*
X145152438Y-144892856D02*
X145104819Y-144797618D01*
X145104819Y-144130951D02*
X145104819Y-143511904D01*
X145104819Y-143511904D02*
X145485771Y-143845237D01*
X145485771Y-143845237D02*
X145485771Y-143702380D01*
X145485771Y-143702380D02*
X145533390Y-143607142D01*
X145533390Y-143607142D02*
X145581009Y-143559523D01*
X145581009Y-143559523D02*
X145676247Y-143511904D01*
X145676247Y-143511904D02*
X145914342Y-143511904D01*
X145914342Y-143511904D02*
X146009580Y-143559523D01*
X146009580Y-143559523D02*
X146057200Y-143607142D01*
X146057200Y-143607142D02*
X146104819Y-143702380D01*
X146104819Y-143702380D02*
X146104819Y-143988094D01*
X146104819Y-143988094D02*
X146057200Y-144083332D01*
X146057200Y-144083332D02*
X146009580Y-144130951D01*
X124068452Y-145759580D02*
X124020833Y-145807200D01*
X124020833Y-145807200D02*
X123877976Y-145854819D01*
X123877976Y-145854819D02*
X123782738Y-145854819D01*
X123782738Y-145854819D02*
X123639881Y-145807200D01*
X123639881Y-145807200D02*
X123544643Y-145711961D01*
X123544643Y-145711961D02*
X123497024Y-145616723D01*
X123497024Y-145616723D02*
X123449405Y-145426247D01*
X123449405Y-145426247D02*
X123449405Y-145283390D01*
X123449405Y-145283390D02*
X123497024Y-145092914D01*
X123497024Y-145092914D02*
X123544643Y-144997676D01*
X123544643Y-144997676D02*
X123639881Y-144902438D01*
X123639881Y-144902438D02*
X123782738Y-144854819D01*
X123782738Y-144854819D02*
X123877976Y-144854819D01*
X123877976Y-144854819D02*
X124020833Y-144902438D01*
X124020833Y-144902438D02*
X124068452Y-144950057D01*
X125020833Y-145854819D02*
X124449405Y-145854819D01*
X124735119Y-145854819D02*
X124735119Y-144854819D01*
X124735119Y-144854819D02*
X124639881Y-144997676D01*
X124639881Y-144997676D02*
X124544643Y-145092914D01*
X124544643Y-145092914D02*
X124449405Y-145140533D01*
X125639881Y-144854819D02*
X125735119Y-144854819D01*
X125735119Y-144854819D02*
X125830357Y-144902438D01*
X125830357Y-144902438D02*
X125877976Y-144950057D01*
X125877976Y-144950057D02*
X125925595Y-145045295D01*
X125925595Y-145045295D02*
X125973214Y-145235771D01*
X125973214Y-145235771D02*
X125973214Y-145473866D01*
X125973214Y-145473866D02*
X125925595Y-145664342D01*
X125925595Y-145664342D02*
X125877976Y-145759580D01*
X125877976Y-145759580D02*
X125830357Y-145807200D01*
X125830357Y-145807200D02*
X125735119Y-145854819D01*
X125735119Y-145854819D02*
X125639881Y-145854819D01*
X125639881Y-145854819D02*
X125544643Y-145807200D01*
X125544643Y-145807200D02*
X125497024Y-145759580D01*
X125497024Y-145759580D02*
X125449405Y-145664342D01*
X125449405Y-145664342D02*
X125401786Y-145473866D01*
X125401786Y-145473866D02*
X125401786Y-145235771D01*
X125401786Y-145235771D02*
X125449405Y-145045295D01*
X125449405Y-145045295D02*
X125497024Y-144950057D01*
X125497024Y-144950057D02*
X125544643Y-144902438D01*
X125544643Y-144902438D02*
X125639881Y-144854819D01*
X126306548Y-144854819D02*
X126925595Y-144854819D01*
X126925595Y-144854819D02*
X126592262Y-145235771D01*
X126592262Y-145235771D02*
X126735119Y-145235771D01*
X126735119Y-145235771D02*
X126830357Y-145283390D01*
X126830357Y-145283390D02*
X126877976Y-145331009D01*
X126877976Y-145331009D02*
X126925595Y-145426247D01*
X126925595Y-145426247D02*
X126925595Y-145664342D01*
X126925595Y-145664342D02*
X126877976Y-145759580D01*
X126877976Y-145759580D02*
X126830357Y-145807200D01*
X126830357Y-145807200D02*
X126735119Y-145854819D01*
X126735119Y-145854819D02*
X126449405Y-145854819D01*
X126449405Y-145854819D02*
X126354167Y-145807200D01*
X126354167Y-145807200D02*
X126306548Y-145759580D01*
X123754285Y-118904819D02*
X123754285Y-119619104D01*
X123754285Y-119619104D02*
X123706666Y-119761961D01*
X123706666Y-119761961D02*
X123611428Y-119857200D01*
X123611428Y-119857200D02*
X123468571Y-119904819D01*
X123468571Y-119904819D02*
X123373333Y-119904819D01*
X124754285Y-119904819D02*
X124182857Y-119904819D01*
X124468571Y-119904819D02*
X124468571Y-118904819D01*
X124468571Y-118904819D02*
X124373333Y-119047676D01*
X124373333Y-119047676D02*
X124278095Y-119142914D01*
X124278095Y-119142914D02*
X124182857Y-119190533D01*
X125373333Y-118904819D02*
X125468571Y-118904819D01*
X125468571Y-118904819D02*
X125563809Y-118952438D01*
X125563809Y-118952438D02*
X125611428Y-119000057D01*
X125611428Y-119000057D02*
X125659047Y-119095295D01*
X125659047Y-119095295D02*
X125706666Y-119285771D01*
X125706666Y-119285771D02*
X125706666Y-119523866D01*
X125706666Y-119523866D02*
X125659047Y-119714342D01*
X125659047Y-119714342D02*
X125611428Y-119809580D01*
X125611428Y-119809580D02*
X125563809Y-119857200D01*
X125563809Y-119857200D02*
X125468571Y-119904819D01*
X125468571Y-119904819D02*
X125373333Y-119904819D01*
X125373333Y-119904819D02*
X125278095Y-119857200D01*
X125278095Y-119857200D02*
X125230476Y-119809580D01*
X125230476Y-119809580D02*
X125182857Y-119714342D01*
X125182857Y-119714342D02*
X125135238Y-119523866D01*
X125135238Y-119523866D02*
X125135238Y-119285771D01*
X125135238Y-119285771D02*
X125182857Y-119095295D01*
X125182857Y-119095295D02*
X125230476Y-119000057D01*
X125230476Y-119000057D02*
X125278095Y-118952438D01*
X125278095Y-118952438D02*
X125373333Y-118904819D01*
X126563809Y-118904819D02*
X126373333Y-118904819D01*
X126373333Y-118904819D02*
X126278095Y-118952438D01*
X126278095Y-118952438D02*
X126230476Y-119000057D01*
X126230476Y-119000057D02*
X126135238Y-119142914D01*
X126135238Y-119142914D02*
X126087619Y-119333390D01*
X126087619Y-119333390D02*
X126087619Y-119714342D01*
X126087619Y-119714342D02*
X126135238Y-119809580D01*
X126135238Y-119809580D02*
X126182857Y-119857200D01*
X126182857Y-119857200D02*
X126278095Y-119904819D01*
X126278095Y-119904819D02*
X126468571Y-119904819D01*
X126468571Y-119904819D02*
X126563809Y-119857200D01*
X126563809Y-119857200D02*
X126611428Y-119809580D01*
X126611428Y-119809580D02*
X126659047Y-119714342D01*
X126659047Y-119714342D02*
X126659047Y-119476247D01*
X126659047Y-119476247D02*
X126611428Y-119381009D01*
X126611428Y-119381009D02*
X126563809Y-119333390D01*
X126563809Y-119333390D02*
X126468571Y-119285771D01*
X126468571Y-119285771D02*
X126278095Y-119285771D01*
X126278095Y-119285771D02*
X126182857Y-119333390D01*
X126182857Y-119333390D02*
X126135238Y-119381009D01*
X126135238Y-119381009D02*
X126087619Y-119476247D01*
X152785714Y-136104819D02*
X152785714Y-136914342D01*
X152785714Y-136914342D02*
X152833333Y-137009580D01*
X152833333Y-137009580D02*
X152880952Y-137057200D01*
X152880952Y-137057200D02*
X152976190Y-137104819D01*
X152976190Y-137104819D02*
X153166666Y-137104819D01*
X153166666Y-137104819D02*
X153261904Y-137057200D01*
X153261904Y-137057200D02*
X153309523Y-137009580D01*
X153309523Y-137009580D02*
X153357142Y-136914342D01*
X153357142Y-136914342D02*
X153357142Y-136104819D01*
X154357142Y-137104819D02*
X153785714Y-137104819D01*
X154071428Y-137104819D02*
X154071428Y-136104819D01*
X154071428Y-136104819D02*
X153976190Y-136247676D01*
X153976190Y-136247676D02*
X153880952Y-136342914D01*
X153880952Y-136342914D02*
X153785714Y-136390533D01*
X154976190Y-136104819D02*
X155071428Y-136104819D01*
X155071428Y-136104819D02*
X155166666Y-136152438D01*
X155166666Y-136152438D02*
X155214285Y-136200057D01*
X155214285Y-136200057D02*
X155261904Y-136295295D01*
X155261904Y-136295295D02*
X155309523Y-136485771D01*
X155309523Y-136485771D02*
X155309523Y-136723866D01*
X155309523Y-136723866D02*
X155261904Y-136914342D01*
X155261904Y-136914342D02*
X155214285Y-137009580D01*
X155214285Y-137009580D02*
X155166666Y-137057200D01*
X155166666Y-137057200D02*
X155071428Y-137104819D01*
X155071428Y-137104819D02*
X154976190Y-137104819D01*
X154976190Y-137104819D02*
X154880952Y-137057200D01*
X154880952Y-137057200D02*
X154833333Y-137009580D01*
X154833333Y-137009580D02*
X154785714Y-136914342D01*
X154785714Y-136914342D02*
X154738095Y-136723866D01*
X154738095Y-136723866D02*
X154738095Y-136485771D01*
X154738095Y-136485771D02*
X154785714Y-136295295D01*
X154785714Y-136295295D02*
X154833333Y-136200057D01*
X154833333Y-136200057D02*
X154880952Y-136152438D01*
X154880952Y-136152438D02*
X154976190Y-136104819D01*
X155642857Y-136104819D02*
X156261904Y-136104819D01*
X156261904Y-136104819D02*
X155928571Y-136485771D01*
X155928571Y-136485771D02*
X156071428Y-136485771D01*
X156071428Y-136485771D02*
X156166666Y-136533390D01*
X156166666Y-136533390D02*
X156214285Y-136581009D01*
X156214285Y-136581009D02*
X156261904Y-136676247D01*
X156261904Y-136676247D02*
X156261904Y-136914342D01*
X156261904Y-136914342D02*
X156214285Y-137009580D01*
X156214285Y-137009580D02*
X156166666Y-137057200D01*
X156166666Y-137057200D02*
X156071428Y-137104819D01*
X156071428Y-137104819D02*
X155785714Y-137104819D01*
X155785714Y-137104819D02*
X155690476Y-137057200D01*
X155690476Y-137057200D02*
X155642857Y-137009580D01*
X163754285Y-118944819D02*
X163754285Y-119659104D01*
X163754285Y-119659104D02*
X163706666Y-119801961D01*
X163706666Y-119801961D02*
X163611428Y-119897200D01*
X163611428Y-119897200D02*
X163468571Y-119944819D01*
X163468571Y-119944819D02*
X163373333Y-119944819D01*
X164754285Y-119944819D02*
X164182857Y-119944819D01*
X164468571Y-119944819D02*
X164468571Y-118944819D01*
X164468571Y-118944819D02*
X164373333Y-119087676D01*
X164373333Y-119087676D02*
X164278095Y-119182914D01*
X164278095Y-119182914D02*
X164182857Y-119230533D01*
X165373333Y-118944819D02*
X165468571Y-118944819D01*
X165468571Y-118944819D02*
X165563809Y-118992438D01*
X165563809Y-118992438D02*
X165611428Y-119040057D01*
X165611428Y-119040057D02*
X165659047Y-119135295D01*
X165659047Y-119135295D02*
X165706666Y-119325771D01*
X165706666Y-119325771D02*
X165706666Y-119563866D01*
X165706666Y-119563866D02*
X165659047Y-119754342D01*
X165659047Y-119754342D02*
X165611428Y-119849580D01*
X165611428Y-119849580D02*
X165563809Y-119897200D01*
X165563809Y-119897200D02*
X165468571Y-119944819D01*
X165468571Y-119944819D02*
X165373333Y-119944819D01*
X165373333Y-119944819D02*
X165278095Y-119897200D01*
X165278095Y-119897200D02*
X165230476Y-119849580D01*
X165230476Y-119849580D02*
X165182857Y-119754342D01*
X165182857Y-119754342D02*
X165135238Y-119563866D01*
X165135238Y-119563866D02*
X165135238Y-119325771D01*
X165135238Y-119325771D02*
X165182857Y-119135295D01*
X165182857Y-119135295D02*
X165230476Y-119040057D01*
X165230476Y-119040057D02*
X165278095Y-118992438D01*
X165278095Y-118992438D02*
X165373333Y-118944819D01*
X166611428Y-118944819D02*
X166135238Y-118944819D01*
X166135238Y-118944819D02*
X166087619Y-119421009D01*
X166087619Y-119421009D02*
X166135238Y-119373390D01*
X166135238Y-119373390D02*
X166230476Y-119325771D01*
X166230476Y-119325771D02*
X166468571Y-119325771D01*
X166468571Y-119325771D02*
X166563809Y-119373390D01*
X166563809Y-119373390D02*
X166611428Y-119421009D01*
X166611428Y-119421009D02*
X166659047Y-119516247D01*
X166659047Y-119516247D02*
X166659047Y-119754342D01*
X166659047Y-119754342D02*
X166611428Y-119849580D01*
X166611428Y-119849580D02*
X166563809Y-119897200D01*
X166563809Y-119897200D02*
X166468571Y-119944819D01*
X166468571Y-119944819D02*
X166230476Y-119944819D01*
X166230476Y-119944819D02*
X166135238Y-119897200D01*
X166135238Y-119897200D02*
X166087619Y-119849580D01*
X170948552Y-142959580D02*
X170900933Y-143007200D01*
X170900933Y-143007200D02*
X170758076Y-143054819D01*
X170758076Y-143054819D02*
X170662838Y-143054819D01*
X170662838Y-143054819D02*
X170519981Y-143007200D01*
X170519981Y-143007200D02*
X170424743Y-142911961D01*
X170424743Y-142911961D02*
X170377124Y-142816723D01*
X170377124Y-142816723D02*
X170329505Y-142626247D01*
X170329505Y-142626247D02*
X170329505Y-142483390D01*
X170329505Y-142483390D02*
X170377124Y-142292914D01*
X170377124Y-142292914D02*
X170424743Y-142197676D01*
X170424743Y-142197676D02*
X170519981Y-142102438D01*
X170519981Y-142102438D02*
X170662838Y-142054819D01*
X170662838Y-142054819D02*
X170758076Y-142054819D01*
X170758076Y-142054819D02*
X170900933Y-142102438D01*
X170900933Y-142102438D02*
X170948552Y-142150057D01*
X171900933Y-143054819D02*
X171329505Y-143054819D01*
X171615219Y-143054819D02*
X171615219Y-142054819D01*
X171615219Y-142054819D02*
X171519981Y-142197676D01*
X171519981Y-142197676D02*
X171424743Y-142292914D01*
X171424743Y-142292914D02*
X171329505Y-142340533D01*
X172519981Y-142054819D02*
X172615219Y-142054819D01*
X172615219Y-142054819D02*
X172710457Y-142102438D01*
X172710457Y-142102438D02*
X172758076Y-142150057D01*
X172758076Y-142150057D02*
X172805695Y-142245295D01*
X172805695Y-142245295D02*
X172853314Y-142435771D01*
X172853314Y-142435771D02*
X172853314Y-142673866D01*
X172853314Y-142673866D02*
X172805695Y-142864342D01*
X172805695Y-142864342D02*
X172758076Y-142959580D01*
X172758076Y-142959580D02*
X172710457Y-143007200D01*
X172710457Y-143007200D02*
X172615219Y-143054819D01*
X172615219Y-143054819D02*
X172519981Y-143054819D01*
X172519981Y-143054819D02*
X172424743Y-143007200D01*
X172424743Y-143007200D02*
X172377124Y-142959580D01*
X172377124Y-142959580D02*
X172329505Y-142864342D01*
X172329505Y-142864342D02*
X172281886Y-142673866D01*
X172281886Y-142673866D02*
X172281886Y-142435771D01*
X172281886Y-142435771D02*
X172329505Y-142245295D01*
X172329505Y-142245295D02*
X172377124Y-142150057D01*
X172377124Y-142150057D02*
X172424743Y-142102438D01*
X172424743Y-142102438D02*
X172519981Y-142054819D01*
X173758076Y-142054819D02*
X173281886Y-142054819D01*
X173281886Y-142054819D02*
X173234267Y-142531009D01*
X173234267Y-142531009D02*
X173281886Y-142483390D01*
X173281886Y-142483390D02*
X173377124Y-142435771D01*
X173377124Y-142435771D02*
X173615219Y-142435771D01*
X173615219Y-142435771D02*
X173710457Y-142483390D01*
X173710457Y-142483390D02*
X173758076Y-142531009D01*
X173758076Y-142531009D02*
X173805695Y-142626247D01*
X173805695Y-142626247D02*
X173805695Y-142864342D01*
X173805695Y-142864342D02*
X173758076Y-142959580D01*
X173758076Y-142959580D02*
X173710457Y-143007200D01*
X173710457Y-143007200D02*
X173615219Y-143054819D01*
X173615219Y-143054819D02*
X173377124Y-143054819D01*
X173377124Y-143054819D02*
X173281886Y-143007200D01*
X173281886Y-143007200D02*
X173234267Y-142959580D01*
X116380952Y-134604819D02*
X116047619Y-134128628D01*
X115809524Y-134604819D02*
X115809524Y-133604819D01*
X115809524Y-133604819D02*
X116190476Y-133604819D01*
X116190476Y-133604819D02*
X116285714Y-133652438D01*
X116285714Y-133652438D02*
X116333333Y-133700057D01*
X116333333Y-133700057D02*
X116380952Y-133795295D01*
X116380952Y-133795295D02*
X116380952Y-133938152D01*
X116380952Y-133938152D02*
X116333333Y-134033390D01*
X116333333Y-134033390D02*
X116285714Y-134081009D01*
X116285714Y-134081009D02*
X116190476Y-134128628D01*
X116190476Y-134128628D02*
X115809524Y-134128628D01*
X117333333Y-134604819D02*
X116761905Y-134604819D01*
X117047619Y-134604819D02*
X117047619Y-133604819D01*
X117047619Y-133604819D02*
X116952381Y-133747676D01*
X116952381Y-133747676D02*
X116857143Y-133842914D01*
X116857143Y-133842914D02*
X116761905Y-133890533D01*
X117952381Y-133604819D02*
X118047619Y-133604819D01*
X118047619Y-133604819D02*
X118142857Y-133652438D01*
X118142857Y-133652438D02*
X118190476Y-133700057D01*
X118190476Y-133700057D02*
X118238095Y-133795295D01*
X118238095Y-133795295D02*
X118285714Y-133985771D01*
X118285714Y-133985771D02*
X118285714Y-134223866D01*
X118285714Y-134223866D02*
X118238095Y-134414342D01*
X118238095Y-134414342D02*
X118190476Y-134509580D01*
X118190476Y-134509580D02*
X118142857Y-134557200D01*
X118142857Y-134557200D02*
X118047619Y-134604819D01*
X118047619Y-134604819D02*
X117952381Y-134604819D01*
X117952381Y-134604819D02*
X117857143Y-134557200D01*
X117857143Y-134557200D02*
X117809524Y-134509580D01*
X117809524Y-134509580D02*
X117761905Y-134414342D01*
X117761905Y-134414342D02*
X117714286Y-134223866D01*
X117714286Y-134223866D02*
X117714286Y-133985771D01*
X117714286Y-133985771D02*
X117761905Y-133795295D01*
X117761905Y-133795295D02*
X117809524Y-133700057D01*
X117809524Y-133700057D02*
X117857143Y-133652438D01*
X117857143Y-133652438D02*
X117952381Y-133604819D01*
X118666667Y-133700057D02*
X118714286Y-133652438D01*
X118714286Y-133652438D02*
X118809524Y-133604819D01*
X118809524Y-133604819D02*
X119047619Y-133604819D01*
X119047619Y-133604819D02*
X119142857Y-133652438D01*
X119142857Y-133652438D02*
X119190476Y-133700057D01*
X119190476Y-133700057D02*
X119238095Y-133795295D01*
X119238095Y-133795295D02*
X119238095Y-133890533D01*
X119238095Y-133890533D02*
X119190476Y-134033390D01*
X119190476Y-134033390D02*
X118619048Y-134604819D01*
X118619048Y-134604819D02*
X119238095Y-134604819D01*
X184880952Y-58104819D02*
X184547619Y-57628628D01*
X184309524Y-58104819D02*
X184309524Y-57104819D01*
X184309524Y-57104819D02*
X184690476Y-57104819D01*
X184690476Y-57104819D02*
X184785714Y-57152438D01*
X184785714Y-57152438D02*
X184833333Y-57200057D01*
X184833333Y-57200057D02*
X184880952Y-57295295D01*
X184880952Y-57295295D02*
X184880952Y-57438152D01*
X184880952Y-57438152D02*
X184833333Y-57533390D01*
X184833333Y-57533390D02*
X184785714Y-57581009D01*
X184785714Y-57581009D02*
X184690476Y-57628628D01*
X184690476Y-57628628D02*
X184309524Y-57628628D01*
X185833333Y-58104819D02*
X185261905Y-58104819D01*
X185547619Y-58104819D02*
X185547619Y-57104819D01*
X185547619Y-57104819D02*
X185452381Y-57247676D01*
X185452381Y-57247676D02*
X185357143Y-57342914D01*
X185357143Y-57342914D02*
X185261905Y-57390533D01*
X186214286Y-57200057D02*
X186261905Y-57152438D01*
X186261905Y-57152438D02*
X186357143Y-57104819D01*
X186357143Y-57104819D02*
X186595238Y-57104819D01*
X186595238Y-57104819D02*
X186690476Y-57152438D01*
X186690476Y-57152438D02*
X186738095Y-57200057D01*
X186738095Y-57200057D02*
X186785714Y-57295295D01*
X186785714Y-57295295D02*
X186785714Y-57390533D01*
X186785714Y-57390533D02*
X186738095Y-57533390D01*
X186738095Y-57533390D02*
X186166667Y-58104819D01*
X186166667Y-58104819D02*
X186785714Y-58104819D01*
X187357143Y-57533390D02*
X187261905Y-57485771D01*
X187261905Y-57485771D02*
X187214286Y-57438152D01*
X187214286Y-57438152D02*
X187166667Y-57342914D01*
X187166667Y-57342914D02*
X187166667Y-57295295D01*
X187166667Y-57295295D02*
X187214286Y-57200057D01*
X187214286Y-57200057D02*
X187261905Y-57152438D01*
X187261905Y-57152438D02*
X187357143Y-57104819D01*
X187357143Y-57104819D02*
X187547619Y-57104819D01*
X187547619Y-57104819D02*
X187642857Y-57152438D01*
X187642857Y-57152438D02*
X187690476Y-57200057D01*
X187690476Y-57200057D02*
X187738095Y-57295295D01*
X187738095Y-57295295D02*
X187738095Y-57342914D01*
X187738095Y-57342914D02*
X187690476Y-57438152D01*
X187690476Y-57438152D02*
X187642857Y-57485771D01*
X187642857Y-57485771D02*
X187547619Y-57533390D01*
X187547619Y-57533390D02*
X187357143Y-57533390D01*
X187357143Y-57533390D02*
X187261905Y-57581009D01*
X187261905Y-57581009D02*
X187214286Y-57628628D01*
X187214286Y-57628628D02*
X187166667Y-57723866D01*
X187166667Y-57723866D02*
X187166667Y-57914342D01*
X187166667Y-57914342D02*
X187214286Y-58009580D01*
X187214286Y-58009580D02*
X187261905Y-58057200D01*
X187261905Y-58057200D02*
X187357143Y-58104819D01*
X187357143Y-58104819D02*
X187547619Y-58104819D01*
X187547619Y-58104819D02*
X187642857Y-58057200D01*
X187642857Y-58057200D02*
X187690476Y-58009580D01*
X187690476Y-58009580D02*
X187738095Y-57914342D01*
X187738095Y-57914342D02*
X187738095Y-57723866D01*
X187738095Y-57723866D02*
X187690476Y-57628628D01*
X187690476Y-57628628D02*
X187642857Y-57581009D01*
X187642857Y-57581009D02*
X187547619Y-57533390D01*
X146104819Y-121869047D02*
X145628628Y-122202380D01*
X146104819Y-122440475D02*
X145104819Y-122440475D01*
X145104819Y-122440475D02*
X145104819Y-122059523D01*
X145104819Y-122059523D02*
X145152438Y-121964285D01*
X145152438Y-121964285D02*
X145200057Y-121916666D01*
X145200057Y-121916666D02*
X145295295Y-121869047D01*
X145295295Y-121869047D02*
X145438152Y-121869047D01*
X145438152Y-121869047D02*
X145533390Y-121916666D01*
X145533390Y-121916666D02*
X145581009Y-121964285D01*
X145581009Y-121964285D02*
X145628628Y-122059523D01*
X145628628Y-122059523D02*
X145628628Y-122440475D01*
X146104819Y-120916666D02*
X146104819Y-121488094D01*
X146104819Y-121202380D02*
X145104819Y-121202380D01*
X145104819Y-121202380D02*
X145247676Y-121297618D01*
X145247676Y-121297618D02*
X145342914Y-121392856D01*
X145342914Y-121392856D02*
X145390533Y-121488094D01*
X145104819Y-120297618D02*
X145104819Y-120202380D01*
X145104819Y-120202380D02*
X145152438Y-120107142D01*
X145152438Y-120107142D02*
X145200057Y-120059523D01*
X145200057Y-120059523D02*
X145295295Y-120011904D01*
X145295295Y-120011904D02*
X145485771Y-119964285D01*
X145485771Y-119964285D02*
X145723866Y-119964285D01*
X145723866Y-119964285D02*
X145914342Y-120011904D01*
X145914342Y-120011904D02*
X146009580Y-120059523D01*
X146009580Y-120059523D02*
X146057200Y-120107142D01*
X146057200Y-120107142D02*
X146104819Y-120202380D01*
X146104819Y-120202380D02*
X146104819Y-120297618D01*
X146104819Y-120297618D02*
X146057200Y-120392856D01*
X146057200Y-120392856D02*
X146009580Y-120440475D01*
X146009580Y-120440475D02*
X145914342Y-120488094D01*
X145914342Y-120488094D02*
X145723866Y-120535713D01*
X145723866Y-120535713D02*
X145485771Y-120535713D01*
X145485771Y-120535713D02*
X145295295Y-120488094D01*
X145295295Y-120488094D02*
X145200057Y-120440475D01*
X145200057Y-120440475D02*
X145152438Y-120392856D01*
X145152438Y-120392856D02*
X145104819Y-120297618D01*
X145438152Y-119107142D02*
X146104819Y-119107142D01*
X145057200Y-119345237D02*
X145771485Y-119583332D01*
X145771485Y-119583332D02*
X145771485Y-118964285D01*
X154880952Y-70104819D02*
X154547619Y-69628628D01*
X154309524Y-70104819D02*
X154309524Y-69104819D01*
X154309524Y-69104819D02*
X154690476Y-69104819D01*
X154690476Y-69104819D02*
X154785714Y-69152438D01*
X154785714Y-69152438D02*
X154833333Y-69200057D01*
X154833333Y-69200057D02*
X154880952Y-69295295D01*
X154880952Y-69295295D02*
X154880952Y-69438152D01*
X154880952Y-69438152D02*
X154833333Y-69533390D01*
X154833333Y-69533390D02*
X154785714Y-69581009D01*
X154785714Y-69581009D02*
X154690476Y-69628628D01*
X154690476Y-69628628D02*
X154309524Y-69628628D01*
X155833333Y-70104819D02*
X155261905Y-70104819D01*
X155547619Y-70104819D02*
X155547619Y-69104819D01*
X155547619Y-69104819D02*
X155452381Y-69247676D01*
X155452381Y-69247676D02*
X155357143Y-69342914D01*
X155357143Y-69342914D02*
X155261905Y-69390533D01*
X156166667Y-69104819D02*
X156785714Y-69104819D01*
X156785714Y-69104819D02*
X156452381Y-69485771D01*
X156452381Y-69485771D02*
X156595238Y-69485771D01*
X156595238Y-69485771D02*
X156690476Y-69533390D01*
X156690476Y-69533390D02*
X156738095Y-69581009D01*
X156738095Y-69581009D02*
X156785714Y-69676247D01*
X156785714Y-69676247D02*
X156785714Y-69914342D01*
X156785714Y-69914342D02*
X156738095Y-70009580D01*
X156738095Y-70009580D02*
X156690476Y-70057200D01*
X156690476Y-70057200D02*
X156595238Y-70104819D01*
X156595238Y-70104819D02*
X156309524Y-70104819D01*
X156309524Y-70104819D02*
X156214286Y-70057200D01*
X156214286Y-70057200D02*
X156166667Y-70009580D01*
X157738095Y-70104819D02*
X157166667Y-70104819D01*
X157452381Y-70104819D02*
X157452381Y-69104819D01*
X157452381Y-69104819D02*
X157357143Y-69247676D01*
X157357143Y-69247676D02*
X157261905Y-69342914D01*
X157261905Y-69342914D02*
X157166667Y-69390533D01*
X161264819Y-113385714D02*
X161979104Y-113385714D01*
X161979104Y-113385714D02*
X162121961Y-113433333D01*
X162121961Y-113433333D02*
X162217200Y-113528571D01*
X162217200Y-113528571D02*
X162264819Y-113671428D01*
X162264819Y-113671428D02*
X162264819Y-113766666D01*
X162264819Y-112385714D02*
X162264819Y-112957142D01*
X162264819Y-112671428D02*
X161264819Y-112671428D01*
X161264819Y-112671428D02*
X161407676Y-112766666D01*
X161407676Y-112766666D02*
X161502914Y-112861904D01*
X161502914Y-112861904D02*
X161550533Y-112957142D01*
X161264819Y-111766666D02*
X161264819Y-111671428D01*
X161264819Y-111671428D02*
X161312438Y-111576190D01*
X161312438Y-111576190D02*
X161360057Y-111528571D01*
X161360057Y-111528571D02*
X161455295Y-111480952D01*
X161455295Y-111480952D02*
X161645771Y-111433333D01*
X161645771Y-111433333D02*
X161883866Y-111433333D01*
X161883866Y-111433333D02*
X162074342Y-111480952D01*
X162074342Y-111480952D02*
X162169580Y-111528571D01*
X162169580Y-111528571D02*
X162217200Y-111576190D01*
X162217200Y-111576190D02*
X162264819Y-111671428D01*
X162264819Y-111671428D02*
X162264819Y-111766666D01*
X162264819Y-111766666D02*
X162217200Y-111861904D01*
X162217200Y-111861904D02*
X162169580Y-111909523D01*
X162169580Y-111909523D02*
X162074342Y-111957142D01*
X162074342Y-111957142D02*
X161883866Y-112004761D01*
X161883866Y-112004761D02*
X161645771Y-112004761D01*
X161645771Y-112004761D02*
X161455295Y-111957142D01*
X161455295Y-111957142D02*
X161360057Y-111909523D01*
X161360057Y-111909523D02*
X161312438Y-111861904D01*
X161312438Y-111861904D02*
X161264819Y-111766666D01*
X161360057Y-111052380D02*
X161312438Y-111004761D01*
X161312438Y-111004761D02*
X161264819Y-110909523D01*
X161264819Y-110909523D02*
X161264819Y-110671428D01*
X161264819Y-110671428D02*
X161312438Y-110576190D01*
X161312438Y-110576190D02*
X161360057Y-110528571D01*
X161360057Y-110528571D02*
X161455295Y-110480952D01*
X161455295Y-110480952D02*
X161550533Y-110480952D01*
X161550533Y-110480952D02*
X161693390Y-110528571D01*
X161693390Y-110528571D02*
X162264819Y-111099999D01*
X162264819Y-111099999D02*
X162264819Y-110480952D01*
X140714286Y-65587200D02*
X140857143Y-65634819D01*
X140857143Y-65634819D02*
X141095238Y-65634819D01*
X141095238Y-65634819D02*
X141190476Y-65587200D01*
X141190476Y-65587200D02*
X141238095Y-65539580D01*
X141238095Y-65539580D02*
X141285714Y-65444342D01*
X141285714Y-65444342D02*
X141285714Y-65349104D01*
X141285714Y-65349104D02*
X141238095Y-65253866D01*
X141238095Y-65253866D02*
X141190476Y-65206247D01*
X141190476Y-65206247D02*
X141095238Y-65158628D01*
X141095238Y-65158628D02*
X140904762Y-65111009D01*
X140904762Y-65111009D02*
X140809524Y-65063390D01*
X140809524Y-65063390D02*
X140761905Y-65015771D01*
X140761905Y-65015771D02*
X140714286Y-64920533D01*
X140714286Y-64920533D02*
X140714286Y-64825295D01*
X140714286Y-64825295D02*
X140761905Y-64730057D01*
X140761905Y-64730057D02*
X140809524Y-64682438D01*
X140809524Y-64682438D02*
X140904762Y-64634819D01*
X140904762Y-64634819D02*
X141142857Y-64634819D01*
X141142857Y-64634819D02*
X141285714Y-64682438D01*
X141619048Y-64634819D02*
X141857143Y-65634819D01*
X141857143Y-65634819D02*
X142047619Y-64920533D01*
X142047619Y-64920533D02*
X142238095Y-65634819D01*
X142238095Y-65634819D02*
X142476191Y-64634819D01*
X143380952Y-65634819D02*
X142809524Y-65634819D01*
X143095238Y-65634819D02*
X143095238Y-64634819D01*
X143095238Y-64634819D02*
X143000000Y-64777676D01*
X143000000Y-64777676D02*
X142904762Y-64872914D01*
X142904762Y-64872914D02*
X142809524Y-64920533D01*
X144000000Y-64634819D02*
X144095238Y-64634819D01*
X144095238Y-64634819D02*
X144190476Y-64682438D01*
X144190476Y-64682438D02*
X144238095Y-64730057D01*
X144238095Y-64730057D02*
X144285714Y-64825295D01*
X144285714Y-64825295D02*
X144333333Y-65015771D01*
X144333333Y-65015771D02*
X144333333Y-65253866D01*
X144333333Y-65253866D02*
X144285714Y-65444342D01*
X144285714Y-65444342D02*
X144238095Y-65539580D01*
X144238095Y-65539580D02*
X144190476Y-65587200D01*
X144190476Y-65587200D02*
X144095238Y-65634819D01*
X144095238Y-65634819D02*
X144000000Y-65634819D01*
X144000000Y-65634819D02*
X143904762Y-65587200D01*
X143904762Y-65587200D02*
X143857143Y-65539580D01*
X143857143Y-65539580D02*
X143809524Y-65444342D01*
X143809524Y-65444342D02*
X143761905Y-65253866D01*
X143761905Y-65253866D02*
X143761905Y-65015771D01*
X143761905Y-65015771D02*
X143809524Y-64825295D01*
X143809524Y-64825295D02*
X143857143Y-64730057D01*
X143857143Y-64730057D02*
X143904762Y-64682438D01*
X143904762Y-64682438D02*
X144000000Y-64634819D01*
X144666667Y-64634819D02*
X145285714Y-64634819D01*
X145285714Y-64634819D02*
X144952381Y-65015771D01*
X144952381Y-65015771D02*
X145095238Y-65015771D01*
X145095238Y-65015771D02*
X145190476Y-65063390D01*
X145190476Y-65063390D02*
X145238095Y-65111009D01*
X145238095Y-65111009D02*
X145285714Y-65206247D01*
X145285714Y-65206247D02*
X145285714Y-65444342D01*
X145285714Y-65444342D02*
X145238095Y-65539580D01*
X145238095Y-65539580D02*
X145190476Y-65587200D01*
X145190476Y-65587200D02*
X145095238Y-65634819D01*
X145095238Y-65634819D02*
X144809524Y-65634819D01*
X144809524Y-65634819D02*
X144714286Y-65587200D01*
X144714286Y-65587200D02*
X144666667Y-65539580D01*
X151454819Y-151695714D02*
X152169104Y-151695714D01*
X152169104Y-151695714D02*
X152311961Y-151743333D01*
X152311961Y-151743333D02*
X152407200Y-151838571D01*
X152407200Y-151838571D02*
X152454819Y-151981428D01*
X152454819Y-151981428D02*
X152454819Y-152076666D01*
X152454819Y-150695714D02*
X152454819Y-151267142D01*
X152454819Y-150981428D02*
X151454819Y-150981428D01*
X151454819Y-150981428D02*
X151597676Y-151076666D01*
X151597676Y-151076666D02*
X151692914Y-151171904D01*
X151692914Y-151171904D02*
X151740533Y-151267142D01*
X151454819Y-150076666D02*
X151454819Y-149981428D01*
X151454819Y-149981428D02*
X151502438Y-149886190D01*
X151502438Y-149886190D02*
X151550057Y-149838571D01*
X151550057Y-149838571D02*
X151645295Y-149790952D01*
X151645295Y-149790952D02*
X151835771Y-149743333D01*
X151835771Y-149743333D02*
X152073866Y-149743333D01*
X152073866Y-149743333D02*
X152264342Y-149790952D01*
X152264342Y-149790952D02*
X152359580Y-149838571D01*
X152359580Y-149838571D02*
X152407200Y-149886190D01*
X152407200Y-149886190D02*
X152454819Y-149981428D01*
X152454819Y-149981428D02*
X152454819Y-150076666D01*
X152454819Y-150076666D02*
X152407200Y-150171904D01*
X152407200Y-150171904D02*
X152359580Y-150219523D01*
X152359580Y-150219523D02*
X152264342Y-150267142D01*
X152264342Y-150267142D02*
X152073866Y-150314761D01*
X152073866Y-150314761D02*
X151835771Y-150314761D01*
X151835771Y-150314761D02*
X151645295Y-150267142D01*
X151645295Y-150267142D02*
X151550057Y-150219523D01*
X151550057Y-150219523D02*
X151502438Y-150171904D01*
X151502438Y-150171904D02*
X151454819Y-150076666D01*
X151454819Y-149409999D02*
X151454819Y-148790952D01*
X151454819Y-148790952D02*
X151835771Y-149124285D01*
X151835771Y-149124285D02*
X151835771Y-148981428D01*
X151835771Y-148981428D02*
X151883390Y-148886190D01*
X151883390Y-148886190D02*
X151931009Y-148838571D01*
X151931009Y-148838571D02*
X152026247Y-148790952D01*
X152026247Y-148790952D02*
X152264342Y-148790952D01*
X152264342Y-148790952D02*
X152359580Y-148838571D01*
X152359580Y-148838571D02*
X152407200Y-148886190D01*
X152407200Y-148886190D02*
X152454819Y-148981428D01*
X152454819Y-148981428D02*
X152454819Y-149267142D01*
X152454819Y-149267142D02*
X152407200Y-149362380D01*
X152407200Y-149362380D02*
X152359580Y-149409999D01*
D11*
%TO.C,R106*%
X143265000Y-137227064D02*
X143265000Y-136772936D01*
X144735000Y-137227064D02*
X144735000Y-136772936D01*
%TO.C,SW101*%
X148935000Y-46095000D02*
X162905000Y-46095000D01*
X148935000Y-60065000D02*
X148935000Y-46095000D01*
X162905000Y-46095000D02*
X162905000Y-60065000D01*
X162905000Y-60065000D02*
X148935000Y-60065000D01*
%TO.C,R129*%
X185772936Y-49765000D02*
X186227064Y-49765000D01*
X185772936Y-51235000D02*
X186227064Y-51235000D01*
%TO.C,R124*%
X155772936Y-72765000D02*
X156227064Y-72765000D01*
X155772936Y-74235000D02*
X156227064Y-74235000D01*
%TO.C,R130*%
X166227064Y-81265000D02*
X165772936Y-81265000D01*
X166227064Y-82735000D02*
X165772936Y-82735000D01*
%TO.C,R132*%
X166227064Y-86265000D02*
X165772936Y-86265000D01*
X166227064Y-87735000D02*
X165772936Y-87735000D01*
%TO.C,R133*%
X165772936Y-91265000D02*
X166227064Y-91265000D01*
X165772936Y-92735000D02*
X166227064Y-92735000D01*
%TO.C,J101*%
X111190000Y-124440000D02*
X111540000Y-124440000D01*
X111190000Y-125160000D02*
X111540000Y-125160000D01*
X111190000Y-126980000D02*
X111600000Y-126980000D01*
X111190000Y-127700000D02*
X111600000Y-127700000D01*
X111190000Y-129520000D02*
X111600000Y-129520000D01*
X111190000Y-130240000D02*
X111600000Y-130240000D01*
X111190000Y-132060000D02*
X111600000Y-132060000D01*
X111190000Y-132780000D02*
X111600000Y-132780000D01*
X111190000Y-134600000D02*
X111600000Y-134600000D01*
X111190000Y-135320000D02*
X111600000Y-135320000D01*
X111190000Y-137140000D02*
X111600000Y-137140000D01*
X111190000Y-137860000D02*
X111600000Y-137860000D01*
X112650000Y-123470000D02*
X113760000Y-123470000D01*
X113760000Y-123470000D02*
X113760000Y-124800000D01*
%TO.C,U108*%
X137887500Y-127640000D02*
X136387500Y-127640000D01*
X137887500Y-127640000D02*
X139387500Y-127640000D01*
X137887500Y-130860000D02*
X136387500Y-130860000D01*
X137887500Y-130860000D02*
X139387500Y-130860000D01*
X140340000Y-131015000D02*
X139860000Y-131015000D01*
X140100000Y-130685000D01*
X140340000Y-131015000D01*
G36*
X140340000Y-131015000D02*
G01*
X139860000Y-131015000D01*
X140100000Y-130685000D01*
X140340000Y-131015000D01*
G37*
%TO.C,R125*%
X125772936Y-81265000D02*
X126227064Y-81265000D01*
X125772936Y-82735000D02*
X126227064Y-82735000D01*
%TO.C,U106*%
X137887500Y-135415000D02*
X136387500Y-135415000D01*
X137887500Y-135415000D02*
X139387500Y-135415000D01*
X137887500Y-138635000D02*
X136387500Y-138635000D01*
X137887500Y-138635000D02*
X139387500Y-138635000D01*
X140340000Y-138790000D02*
X139860000Y-138790000D01*
X140100000Y-138460000D01*
X140340000Y-138790000D01*
G36*
X140340000Y-138790000D02*
G01*
X139860000Y-138790000D01*
X140100000Y-138460000D01*
X140340000Y-138790000D01*
G37*
%TO.C,R126*%
X126227064Y-86265000D02*
X125772936Y-86265000D01*
X126227064Y-87735000D02*
X125772936Y-87735000D01*
%TO.C,C104*%
X124038748Y-114090000D02*
X125461252Y-114090000D01*
X124038748Y-115910000D02*
X125461252Y-115910000D01*
%TO.C,SW108*%
X168935000Y-46095000D02*
X182905000Y-46095000D01*
X168935000Y-60065000D02*
X168935000Y-46095000D01*
X182905000Y-46095000D02*
X182905000Y-60065000D01*
X182905000Y-60065000D02*
X168935000Y-60065000D01*
%TO.C,SW106*%
X108935000Y-80735000D02*
X122905000Y-80735000D01*
X108935000Y-94705000D02*
X108935000Y-80735000D01*
X122905000Y-80735000D02*
X122905000Y-94705000D01*
X122905000Y-94705000D02*
X108935000Y-94705000D01*
%TO.C,R105*%
X147265000Y-130227064D02*
X147265000Y-129772936D01*
X148735000Y-130227064D02*
X148735000Y-129772936D01*
%TO.C,R123*%
X145772936Y-55265000D02*
X146227064Y-55265000D01*
X145772936Y-56735000D02*
X146227064Y-56735000D01*
%TO.C,R109*%
X173015000Y-125522936D02*
X173015000Y-125977064D01*
X174485000Y-125522936D02*
X174485000Y-125977064D01*
%TO.C,R122*%
X146227064Y-49765000D02*
X145772936Y-49765000D01*
X146227064Y-51235000D02*
X145772936Y-51235000D01*
%TO.C,SW111*%
X168975000Y-80735000D02*
X182945000Y-80735000D01*
X168975000Y-94705000D02*
X168975000Y-80735000D01*
X182945000Y-80735000D02*
X182945000Y-94705000D01*
X182945000Y-94705000D02*
X168975000Y-94705000D01*
%TO.C,SW107*%
X188935000Y-46095000D02*
X202905000Y-46095000D01*
X188935000Y-60065000D02*
X188935000Y-46095000D01*
X202905000Y-46095000D02*
X202905000Y-60065000D01*
X202905000Y-60065000D02*
X188935000Y-60065000D01*
%TO.C,SW110*%
X158975000Y-63415000D02*
X172945000Y-63415000D01*
X158975000Y-77385000D02*
X158975000Y-63415000D01*
X172945000Y-63415000D02*
X172945000Y-77385000D01*
X172945000Y-77385000D02*
X158975000Y-77385000D01*
%TO.C,R127*%
X125772936Y-91265000D02*
X126227064Y-91265000D01*
X125772936Y-92735000D02*
X126227064Y-92735000D01*
%TO.C,R107*%
X139265000Y-145022936D02*
X139265000Y-145477064D01*
X140735000Y-145022936D02*
X140735000Y-145477064D01*
%TO.C,SW112*%
X148935000Y-80735000D02*
X162905000Y-80735000D01*
X148935000Y-94705000D02*
X148935000Y-80735000D01*
X162905000Y-80735000D02*
X162905000Y-94705000D01*
X162905000Y-94705000D02*
X148935000Y-94705000D01*
%TO.C,U105*%
X117600000Y-148610000D02*
X119400000Y-148610000D01*
X118600000Y-145390000D02*
X117800000Y-145390000D01*
X118600000Y-145390000D02*
X119400000Y-145390000D01*
X117300000Y-145440000D02*
X117060000Y-145110000D01*
X117540000Y-145110000D01*
X117300000Y-145440000D01*
G36*
X117300000Y-145440000D02*
G01*
X117060000Y-145110000D01*
X117540000Y-145110000D01*
X117300000Y-145440000D01*
G37*
%TO.C,U102*%
X138000000Y-119140000D02*
X136500000Y-119140000D01*
X138000000Y-119140000D02*
X139500000Y-119140000D01*
X138000000Y-122360000D02*
X136500000Y-122360000D01*
X138000000Y-122360000D02*
X139500000Y-122360000D01*
X135787500Y-119315000D02*
X135547500Y-118985000D01*
X136027500Y-118985000D01*
X135787500Y-119315000D01*
G36*
X135787500Y-119315000D02*
G01*
X135547500Y-118985000D01*
X136027500Y-118985000D01*
X135787500Y-119315000D01*
G37*
%TO.C,SW105*%
X128935000Y-80735000D02*
X142905000Y-80735000D01*
X128935000Y-94705000D02*
X128935000Y-80735000D01*
X142905000Y-80735000D02*
X142905000Y-94705000D01*
X142905000Y-94705000D02*
X128935000Y-94705000D01*
%TO.C,J104*%
X177470000Y-123495000D02*
X178740000Y-123495000D01*
X177470000Y-124765000D02*
X177470000Y-123495000D01*
X179817358Y-126875000D02*
X180130000Y-126875000D01*
X179817358Y-127735000D02*
X180130000Y-127735000D01*
X179817358Y-129415000D02*
X180130000Y-129415000D01*
X179817358Y-130275000D02*
X180130000Y-130275000D01*
X179817358Y-131955000D02*
X180130000Y-131955000D01*
X179817358Y-132815000D02*
X180130000Y-132815000D01*
X179817358Y-134495000D02*
X180130000Y-134495000D01*
X179817358Y-135355000D02*
X180130000Y-135355000D01*
X179817358Y-137035000D02*
X180130000Y-137035000D01*
X179817358Y-137895000D02*
X180130000Y-137895000D01*
X179900000Y-124335000D02*
X180130000Y-124335000D01*
X179900000Y-125195000D02*
X180130000Y-125195000D01*
X180130000Y-123385000D02*
X180130000Y-138845000D01*
%TO.C,SW104*%
X118975000Y-63415000D02*
X132945000Y-63415000D01*
X118975000Y-77385000D02*
X118975000Y-63415000D01*
X132945000Y-63415000D02*
X132945000Y-77385000D01*
X132945000Y-77385000D02*
X118975000Y-77385000D01*
%TO.C,SW102*%
X128935000Y-46095000D02*
X142905000Y-46095000D01*
X128935000Y-60065000D02*
X128935000Y-46095000D01*
X142905000Y-46095000D02*
X142905000Y-60065000D01*
X142905000Y-60065000D02*
X128935000Y-60065000D01*
%TO.C,SW109*%
X178975000Y-63415000D02*
X192945000Y-63415000D01*
X178975000Y-77385000D02*
X178975000Y-63415000D01*
X192945000Y-63415000D02*
X192945000Y-77385000D01*
X192945000Y-77385000D02*
X178975000Y-77385000D01*
%TO.C,R103*%
X143265000Y-145022936D02*
X143265000Y-145477064D01*
X144735000Y-145022936D02*
X144735000Y-145477064D01*
%TO.C,C103*%
X124476248Y-146340000D02*
X125898752Y-146340000D01*
X124476248Y-148160000D02*
X125898752Y-148160000D01*
%TO.C,J106*%
X123710000Y-123490000D02*
X123710000Y-141330000D01*
X123710000Y-123490000D02*
X126370000Y-123490000D01*
X123710000Y-141330000D02*
X126370000Y-141330000D01*
X125040000Y-120890000D02*
X126370000Y-120890000D01*
X126370000Y-120890000D02*
X126370000Y-122220000D01*
X126370000Y-123490000D02*
X126370000Y-141330000D01*
%TO.C,U103*%
X154500000Y-125690000D02*
X152550000Y-125690000D01*
X154500000Y-125690000D02*
X156450000Y-125690000D01*
X154500000Y-135810000D02*
X152550000Y-135810000D01*
X154500000Y-135810000D02*
X156450000Y-135810000D01*
X157440000Y-136085000D02*
X156960000Y-136085000D01*
X157200000Y-135755000D01*
X157440000Y-136085000D01*
G36*
X157440000Y-136085000D02*
G01*
X156960000Y-136085000D01*
X157200000Y-135755000D01*
X157440000Y-136085000D01*
G37*
%TO.C,J105*%
X163710000Y-123530000D02*
X163710000Y-141370000D01*
X163710000Y-123530000D02*
X166370000Y-123530000D01*
X163710000Y-141370000D02*
X166370000Y-141370000D01*
X165040000Y-120930000D02*
X166370000Y-120930000D01*
X166370000Y-120930000D02*
X166370000Y-122260000D01*
X166370000Y-123530000D02*
X166370000Y-141370000D01*
%TO.C,C105*%
X168567359Y-145161000D02*
X169197359Y-145161000D01*
X168882359Y-144846000D02*
X168882359Y-145476000D01*
X172067600Y-143770000D02*
X172067600Y-150230000D01*
X172107600Y-143770000D02*
X172107600Y-150230000D01*
X172147600Y-143771000D02*
X172147600Y-150229000D01*
X172187600Y-143772000D02*
X172187600Y-150228000D01*
X172227600Y-143774000D02*
X172227600Y-150226000D01*
X172267600Y-143776000D02*
X172267600Y-150224000D01*
X172307600Y-143779000D02*
X172307600Y-145960000D01*
X172307600Y-148040000D02*
X172307600Y-150221000D01*
X172347600Y-143782000D02*
X172347600Y-145960000D01*
X172347600Y-148040000D02*
X172347600Y-150218000D01*
X172387600Y-143786000D02*
X172387600Y-145960000D01*
X172387600Y-148040000D02*
X172387600Y-150214000D01*
X172427600Y-143790000D02*
X172427600Y-145960000D01*
X172427600Y-148040000D02*
X172427600Y-150210000D01*
X172467600Y-143795000D02*
X172467600Y-145960000D01*
X172467600Y-148040000D02*
X172467600Y-150205000D01*
X172507600Y-143800000D02*
X172507600Y-145960000D01*
X172507600Y-148040000D02*
X172507600Y-150200000D01*
X172547600Y-143805000D02*
X172547600Y-145960000D01*
X172547600Y-148040000D02*
X172547600Y-150195000D01*
X172587600Y-143812000D02*
X172587600Y-145960000D01*
X172587600Y-148040000D02*
X172587600Y-150188000D01*
X172627600Y-143818000D02*
X172627600Y-145960000D01*
X172627600Y-148040000D02*
X172627600Y-150182000D01*
X172667600Y-143826000D02*
X172667600Y-145960000D01*
X172667600Y-148040000D02*
X172667600Y-150174000D01*
X172707600Y-143833000D02*
X172707600Y-145960000D01*
X172707600Y-148040000D02*
X172707600Y-150167000D01*
X172747600Y-143841000D02*
X172747600Y-145960000D01*
X172747600Y-148040000D02*
X172747600Y-150159000D01*
X172787600Y-143850000D02*
X172787600Y-145960000D01*
X172787600Y-148040000D02*
X172787600Y-150150000D01*
X172827600Y-143860000D02*
X172827600Y-145960000D01*
X172827600Y-148040000D02*
X172827600Y-150140000D01*
X172867600Y-143869000D02*
X172867600Y-145960000D01*
X172867600Y-148040000D02*
X172867600Y-150131000D01*
X172907600Y-143880000D02*
X172907600Y-145960000D01*
X172907600Y-148040000D02*
X172907600Y-150120000D01*
X172947600Y-143891000D02*
X172947600Y-145960000D01*
X172947600Y-148040000D02*
X172947600Y-150109000D01*
X172987600Y-143902000D02*
X172987600Y-145960000D01*
X172987600Y-148040000D02*
X172987600Y-150098000D01*
X173027600Y-143914000D02*
X173027600Y-145960000D01*
X173027600Y-148040000D02*
X173027600Y-150086000D01*
X173067600Y-143927000D02*
X173067600Y-145960000D01*
X173067600Y-148040000D02*
X173067600Y-150073000D01*
X173107600Y-143940000D02*
X173107600Y-145960000D01*
X173107600Y-148040000D02*
X173107600Y-150060000D01*
X173147600Y-143953000D02*
X173147600Y-145960000D01*
X173147600Y-148040000D02*
X173147600Y-150047000D01*
X173187600Y-143968000D02*
X173187600Y-145960000D01*
X173187600Y-148040000D02*
X173187600Y-150032000D01*
X173227600Y-143983000D02*
X173227600Y-145960000D01*
X173227600Y-148040000D02*
X173227600Y-150017000D01*
X173267600Y-143998000D02*
X173267600Y-145960000D01*
X173267600Y-148040000D02*
X173267600Y-150002000D01*
X173307600Y-144014000D02*
X173307600Y-145960000D01*
X173307600Y-148040000D02*
X173307600Y-149986000D01*
X173347600Y-144031000D02*
X173347600Y-145960000D01*
X173347600Y-148040000D02*
X173347600Y-149969000D01*
X173387600Y-144048000D02*
X173387600Y-145960000D01*
X173387600Y-148040000D02*
X173387600Y-149952000D01*
X173427600Y-144066000D02*
X173427600Y-145960000D01*
X173427600Y-148040000D02*
X173427600Y-149934000D01*
X173467600Y-144085000D02*
X173467600Y-145960000D01*
X173467600Y-148040000D02*
X173467600Y-149915000D01*
X173507600Y-144104000D02*
X173507600Y-145960000D01*
X173507600Y-148040000D02*
X173507600Y-149896000D01*
X173547600Y-144124000D02*
X173547600Y-145960000D01*
X173547600Y-148040000D02*
X173547600Y-149876000D01*
X173587600Y-144145000D02*
X173587600Y-145960000D01*
X173587600Y-148040000D02*
X173587600Y-149855000D01*
X173627600Y-144166000D02*
X173627600Y-145960000D01*
X173627600Y-148040000D02*
X173627600Y-149834000D01*
X173667600Y-144188000D02*
X173667600Y-145960000D01*
X173667600Y-148040000D02*
X173667600Y-149812000D01*
X173707600Y-144211000D02*
X173707600Y-145960000D01*
X173707600Y-148040000D02*
X173707600Y-149789000D01*
X173747600Y-144235000D02*
X173747600Y-145960000D01*
X173747600Y-148040000D02*
X173747600Y-149765000D01*
X173787600Y-144259000D02*
X173787600Y-145960000D01*
X173787600Y-148040000D02*
X173787600Y-149741000D01*
X173827600Y-144284000D02*
X173827600Y-145960000D01*
X173827600Y-148040000D02*
X173827600Y-149716000D01*
X173867600Y-144310000D02*
X173867600Y-145960000D01*
X173867600Y-148040000D02*
X173867600Y-149690000D01*
X173907600Y-144337000D02*
X173907600Y-145960000D01*
X173907600Y-148040000D02*
X173907600Y-149663000D01*
X173947600Y-144364000D02*
X173947600Y-145960000D01*
X173947600Y-148040000D02*
X173947600Y-149636000D01*
X173987600Y-144393000D02*
X173987600Y-145960000D01*
X173987600Y-148040000D02*
X173987600Y-149607000D01*
X174027600Y-144423000D02*
X174027600Y-145960000D01*
X174027600Y-148040000D02*
X174027600Y-149577000D01*
X174067600Y-144453000D02*
X174067600Y-145960000D01*
X174067600Y-148040000D02*
X174067600Y-149547000D01*
X174107600Y-144484000D02*
X174107600Y-145960000D01*
X174107600Y-148040000D02*
X174107600Y-149516000D01*
X174147600Y-144517000D02*
X174147600Y-145960000D01*
X174147600Y-148040000D02*
X174147600Y-149483000D01*
X174187600Y-144550000D02*
X174187600Y-145960000D01*
X174187600Y-148040000D02*
X174187600Y-149450000D01*
X174227600Y-144585000D02*
X174227600Y-145960000D01*
X174227600Y-148040000D02*
X174227600Y-149415000D01*
X174267600Y-144621000D02*
X174267600Y-145960000D01*
X174267600Y-148040000D02*
X174267600Y-149379000D01*
X174307600Y-144658000D02*
X174307600Y-145960000D01*
X174307600Y-148040000D02*
X174307600Y-149342000D01*
X174347600Y-144696000D02*
X174347600Y-145960000D01*
X174347600Y-148040000D02*
X174347600Y-149304000D01*
X174387600Y-144736000D02*
X174387600Y-149264000D01*
X174427600Y-144777000D02*
X174427600Y-149223000D01*
X174467600Y-144819000D02*
X174467600Y-149181000D01*
X174507600Y-144863000D02*
X174507600Y-149137000D01*
X174547600Y-144909000D02*
X174547600Y-149091000D01*
X174587600Y-144956000D02*
X174587600Y-149044000D01*
X174627600Y-145005000D02*
X174627600Y-148995000D01*
X174667600Y-145057000D02*
X174667600Y-148943000D01*
X174707600Y-145110000D02*
X174707600Y-148890000D01*
X174747600Y-145166000D02*
X174747600Y-148834000D01*
X174787600Y-145225000D02*
X174787600Y-148775000D01*
X174827600Y-145286000D02*
X174827600Y-148714000D01*
X174867600Y-145351000D02*
X174867600Y-148649000D01*
X174907600Y-145419000D02*
X174907600Y-148581000D01*
X174947600Y-145491000D02*
X174947600Y-148509000D01*
X174987600Y-145568000D02*
X174987600Y-148432000D01*
X175027600Y-145650000D02*
X175027600Y-148350000D01*
X175067600Y-145739000D02*
X175067600Y-148261000D01*
X175107600Y-145835000D02*
X175107600Y-148165000D01*
X175147600Y-145942000D02*
X175147600Y-148058000D01*
X175187600Y-146061000D02*
X175187600Y-147939000D01*
X175227600Y-146199000D02*
X175227600Y-147801000D01*
X175267600Y-146367000D02*
X175267600Y-147633000D01*
X175307600Y-146598000D02*
X175307600Y-147402000D01*
X175337600Y-147000000D02*
G75*
G02*
X168797600Y-147000000I-3270000J0D01*
G01*
X168797600Y-147000000D02*
G75*
G02*
X175337600Y-147000000I3270000J0D01*
G01*
%TO.C,R102*%
X117727064Y-131765000D02*
X117272936Y-131765000D01*
X117727064Y-133235000D02*
X117272936Y-133235000D01*
%TO.C,R128*%
X186227064Y-55265000D02*
X185772936Y-55265000D01*
X186227064Y-56735000D02*
X185772936Y-56735000D01*
%TO.C,R104*%
X143265000Y-120522936D02*
X143265000Y-120977064D01*
X144735000Y-120522936D02*
X144735000Y-120977064D01*
%TO.C,R131*%
X156227064Y-67265000D02*
X155772936Y-67265000D01*
X156227064Y-68735000D02*
X155772936Y-68735000D01*
%TO.C,J102*%
X140900000Y-110890000D02*
X140900000Y-111300000D01*
X141620000Y-110890000D02*
X141620000Y-111300000D01*
X143440000Y-110890000D02*
X143440000Y-111300000D01*
X144160000Y-110890000D02*
X144160000Y-111300000D01*
X145980000Y-110890000D02*
X145980000Y-111300000D01*
X146700000Y-110890000D02*
X146700000Y-111300000D01*
X148520000Y-110890000D02*
X148520000Y-111300000D01*
X149240000Y-110890000D02*
X149240000Y-111300000D01*
X151060000Y-110890000D02*
X151060000Y-111300000D01*
X151780000Y-110890000D02*
X151780000Y-111300000D01*
X153600000Y-110890000D02*
X153600000Y-111300000D01*
X154320000Y-110890000D02*
X154320000Y-111300000D01*
X156140000Y-110890000D02*
X156140000Y-111300000D01*
X156860000Y-110890000D02*
X156860000Y-111300000D01*
X158680000Y-110890000D02*
X158680000Y-111240000D01*
X159400000Y-110890000D02*
X159400000Y-111240000D01*
X160370000Y-112350000D02*
X160370000Y-113460000D01*
X160370000Y-113460000D02*
X159040000Y-113460000D01*
%TO.C,SW103*%
X138975000Y-63415000D02*
X152945000Y-63415000D01*
X138975000Y-77385000D02*
X138975000Y-63415000D01*
X152945000Y-63415000D02*
X152945000Y-77385000D01*
X152945000Y-77385000D02*
X138975000Y-77385000D01*
%TO.C,J103*%
X130830000Y-151487358D02*
X130830000Y-151800000D01*
X131690000Y-151487358D02*
X131690000Y-151800000D01*
X133370000Y-151487358D02*
X133370000Y-151800000D01*
X134230000Y-151487358D02*
X134230000Y-151800000D01*
X135910000Y-151487358D02*
X135910000Y-151800000D01*
X136770000Y-151487358D02*
X136770000Y-151800000D01*
X138450000Y-151487358D02*
X138450000Y-151800000D01*
X139310000Y-151487358D02*
X139310000Y-151800000D01*
X140990000Y-151487358D02*
X140990000Y-151800000D01*
X141850000Y-151487358D02*
X141850000Y-151800000D01*
X143530000Y-151487358D02*
X143530000Y-151800000D01*
X144390000Y-151487358D02*
X144390000Y-151800000D01*
X146070000Y-151487358D02*
X146070000Y-151800000D01*
X146930000Y-151487358D02*
X146930000Y-151800000D01*
X148610000Y-151570000D02*
X148610000Y-151800000D01*
X149040000Y-149140000D02*
X150310000Y-149140000D01*
X149470000Y-151570000D02*
X149470000Y-151800000D01*
X150310000Y-149140000D02*
X150310000Y-150410000D01*
X150420000Y-151800000D02*
X129880000Y-151800000D01*
%TD*%
M02*
