%TF.GenerationSoftware,KiCad,Pcbnew,9.0.3+dfsg-1*%
%TF.CreationDate,2026-02-27T14:07:47+01:00*%
%TF.ProjectId,tastiera_isomorfa,74617374-6965-4726-915f-69736f6d6f72,rev?*%
%TF.SameCoordinates,Original*%
%TF.FileFunction,Legend,Bot*%
%TF.FilePolarity,Positive*%
%FSLAX46Y46*%
G04 Gerber Fmt 4.6, Leading zero omitted, Abs format (unit mm)*
G04 Created by KiCad (PCBNEW 9.0.3+dfsg-1) date 2026-02-27 14:07:47*
%MOMM*%
%LPD*%
G01*
G04 APERTURE LIST*
%ADD10C,0.150000*%
%ADD11C,0.120000*%
G04 APERTURE END LIST*
D10*
X124119047Y-77104819D02*
X124452380Y-76628628D01*
X124690475Y-77104819D02*
X124690475Y-76104819D01*
X124690475Y-76104819D02*
X124309523Y-76104819D01*
X124309523Y-76104819D02*
X124214285Y-76152438D01*
X124214285Y-76152438D02*
X124166666Y-76200057D01*
X124166666Y-76200057D02*
X124119047Y-76295295D01*
X124119047Y-76295295D02*
X124119047Y-76438152D01*
X124119047Y-76438152D02*
X124166666Y-76533390D01*
X124166666Y-76533390D02*
X124214285Y-76581009D01*
X124214285Y-76581009D02*
X124309523Y-76628628D01*
X124309523Y-76628628D02*
X124690475Y-76628628D01*
X123166666Y-77104819D02*
X123738094Y-77104819D01*
X123452380Y-77104819D02*
X123452380Y-76104819D01*
X123452380Y-76104819D02*
X123547618Y-76247676D01*
X123547618Y-76247676D02*
X123642856Y-76342914D01*
X123642856Y-76342914D02*
X123738094Y-76390533D01*
X122214285Y-77104819D02*
X122785713Y-77104819D01*
X122499999Y-77104819D02*
X122499999Y-76104819D01*
X122499999Y-76104819D02*
X122595237Y-76247676D01*
X122595237Y-76247676D02*
X122690475Y-76342914D01*
X122690475Y-76342914D02*
X122785713Y-76390533D01*
X121880951Y-76104819D02*
X121261904Y-76104819D01*
X121261904Y-76104819D02*
X121595237Y-76485771D01*
X121595237Y-76485771D02*
X121452380Y-76485771D01*
X121452380Y-76485771D02*
X121357142Y-76533390D01*
X121357142Y-76533390D02*
X121309523Y-76581009D01*
X121309523Y-76581009D02*
X121261904Y-76676247D01*
X121261904Y-76676247D02*
X121261904Y-76914342D01*
X121261904Y-76914342D02*
X121309523Y-77009580D01*
X121309523Y-77009580D02*
X121357142Y-77057200D01*
X121357142Y-77057200D02*
X121452380Y-77104819D01*
X121452380Y-77104819D02*
X121738094Y-77104819D01*
X121738094Y-77104819D02*
X121833332Y-77057200D01*
X121833332Y-77057200D02*
X121880951Y-77009580D01*
X154989285Y-129629819D02*
X154989285Y-130439342D01*
X154989285Y-130439342D02*
X154941666Y-130534580D01*
X154941666Y-130534580D02*
X154894047Y-130582200D01*
X154894047Y-130582200D02*
X154798809Y-130629819D01*
X154798809Y-130629819D02*
X154608333Y-130629819D01*
X154608333Y-130629819D02*
X154513095Y-130582200D01*
X154513095Y-130582200D02*
X154465476Y-130534580D01*
X154465476Y-130534580D02*
X154417857Y-130439342D01*
X154417857Y-130439342D02*
X154417857Y-129629819D01*
X153417857Y-130629819D02*
X153989285Y-130629819D01*
X153703571Y-130629819D02*
X153703571Y-129629819D01*
X153703571Y-129629819D02*
X153798809Y-129772676D01*
X153798809Y-129772676D02*
X153894047Y-129867914D01*
X153894047Y-129867914D02*
X153989285Y-129915533D01*
X152798809Y-129629819D02*
X152703571Y-129629819D01*
X152703571Y-129629819D02*
X152608333Y-129677438D01*
X152608333Y-129677438D02*
X152560714Y-129725057D01*
X152560714Y-129725057D02*
X152513095Y-129820295D01*
X152513095Y-129820295D02*
X152465476Y-130010771D01*
X152465476Y-130010771D02*
X152465476Y-130248866D01*
X152465476Y-130248866D02*
X152513095Y-130439342D01*
X152513095Y-130439342D02*
X152560714Y-130534580D01*
X152560714Y-130534580D02*
X152608333Y-130582200D01*
X152608333Y-130582200D02*
X152703571Y-130629819D01*
X152703571Y-130629819D02*
X152798809Y-130629819D01*
X152798809Y-130629819D02*
X152894047Y-130582200D01*
X152894047Y-130582200D02*
X152941666Y-130534580D01*
X152941666Y-130534580D02*
X152989285Y-130439342D01*
X152989285Y-130439342D02*
X153036904Y-130248866D01*
X153036904Y-130248866D02*
X153036904Y-130010771D01*
X153036904Y-130010771D02*
X152989285Y-129820295D01*
X152989285Y-129820295D02*
X152941666Y-129725057D01*
X152941666Y-129725057D02*
X152894047Y-129677438D01*
X152894047Y-129677438D02*
X152798809Y-129629819D01*
X151989285Y-130629819D02*
X151798809Y-130629819D01*
X151798809Y-130629819D02*
X151703571Y-130582200D01*
X151703571Y-130582200D02*
X151655952Y-130534580D01*
X151655952Y-130534580D02*
X151560714Y-130391723D01*
X151560714Y-130391723D02*
X151513095Y-130201247D01*
X151513095Y-130201247D02*
X151513095Y-129820295D01*
X151513095Y-129820295D02*
X151560714Y-129725057D01*
X151560714Y-129725057D02*
X151608333Y-129677438D01*
X151608333Y-129677438D02*
X151703571Y-129629819D01*
X151703571Y-129629819D02*
X151894047Y-129629819D01*
X151894047Y-129629819D02*
X151989285Y-129677438D01*
X151989285Y-129677438D02*
X152036904Y-129725057D01*
X152036904Y-129725057D02*
X152084523Y-129820295D01*
X152084523Y-129820295D02*
X152084523Y-130058390D01*
X152084523Y-130058390D02*
X152036904Y-130153628D01*
X152036904Y-130153628D02*
X151989285Y-130201247D01*
X151989285Y-130201247D02*
X151894047Y-130248866D01*
X151894047Y-130248866D02*
X151703571Y-130248866D01*
X151703571Y-130248866D02*
X151608333Y-130201247D01*
X151608333Y-130201247D02*
X151560714Y-130153628D01*
X151560714Y-130153628D02*
X151513095Y-130058390D01*
X114119047Y-94104819D02*
X114452380Y-93628628D01*
X114690475Y-94104819D02*
X114690475Y-93104819D01*
X114690475Y-93104819D02*
X114309523Y-93104819D01*
X114309523Y-93104819D02*
X114214285Y-93152438D01*
X114214285Y-93152438D02*
X114166666Y-93200057D01*
X114166666Y-93200057D02*
X114119047Y-93295295D01*
X114119047Y-93295295D02*
X114119047Y-93438152D01*
X114119047Y-93438152D02*
X114166666Y-93533390D01*
X114166666Y-93533390D02*
X114214285Y-93581009D01*
X114214285Y-93581009D02*
X114309523Y-93628628D01*
X114309523Y-93628628D02*
X114690475Y-93628628D01*
X113166666Y-94104819D02*
X113738094Y-94104819D01*
X113452380Y-94104819D02*
X113452380Y-93104819D01*
X113452380Y-93104819D02*
X113547618Y-93247676D01*
X113547618Y-93247676D02*
X113642856Y-93342914D01*
X113642856Y-93342914D02*
X113738094Y-93390533D01*
X112214285Y-94104819D02*
X112785713Y-94104819D01*
X112499999Y-94104819D02*
X112499999Y-93104819D01*
X112499999Y-93104819D02*
X112595237Y-93247676D01*
X112595237Y-93247676D02*
X112690475Y-93342914D01*
X112690475Y-93342914D02*
X112785713Y-93390533D01*
X111309523Y-93104819D02*
X111785713Y-93104819D01*
X111785713Y-93104819D02*
X111833332Y-93581009D01*
X111833332Y-93581009D02*
X111785713Y-93533390D01*
X111785713Y-93533390D02*
X111690475Y-93485771D01*
X111690475Y-93485771D02*
X111452380Y-93485771D01*
X111452380Y-93485771D02*
X111357142Y-93533390D01*
X111357142Y-93533390D02*
X111309523Y-93581009D01*
X111309523Y-93581009D02*
X111261904Y-93676247D01*
X111261904Y-93676247D02*
X111261904Y-93914342D01*
X111261904Y-93914342D02*
X111309523Y-94009580D01*
X111309523Y-94009580D02*
X111357142Y-94057200D01*
X111357142Y-94057200D02*
X111452380Y-94104819D01*
X111452380Y-94104819D02*
X111690475Y-94104819D01*
X111690475Y-94104819D02*
X111785713Y-94057200D01*
X111785713Y-94057200D02*
X111833332Y-94009580D01*
X138489285Y-136779819D02*
X138489285Y-137589342D01*
X138489285Y-137589342D02*
X138441666Y-137684580D01*
X138441666Y-137684580D02*
X138394047Y-137732200D01*
X138394047Y-137732200D02*
X138298809Y-137779819D01*
X138298809Y-137779819D02*
X138108333Y-137779819D01*
X138108333Y-137779819D02*
X138013095Y-137732200D01*
X138013095Y-137732200D02*
X137965476Y-137684580D01*
X137965476Y-137684580D02*
X137917857Y-137589342D01*
X137917857Y-137589342D02*
X137917857Y-136779819D01*
X136917857Y-137779819D02*
X137489285Y-137779819D01*
X137203571Y-137779819D02*
X137203571Y-136779819D01*
X137203571Y-136779819D02*
X137298809Y-136922676D01*
X137298809Y-136922676D02*
X137394047Y-137017914D01*
X137394047Y-137017914D02*
X137489285Y-137065533D01*
X136298809Y-136779819D02*
X136203571Y-136779819D01*
X136203571Y-136779819D02*
X136108333Y-136827438D01*
X136108333Y-136827438D02*
X136060714Y-136875057D01*
X136060714Y-136875057D02*
X136013095Y-136970295D01*
X136013095Y-136970295D02*
X135965476Y-137160771D01*
X135965476Y-137160771D02*
X135965476Y-137398866D01*
X135965476Y-137398866D02*
X136013095Y-137589342D01*
X136013095Y-137589342D02*
X136060714Y-137684580D01*
X136060714Y-137684580D02*
X136108333Y-137732200D01*
X136108333Y-137732200D02*
X136203571Y-137779819D01*
X136203571Y-137779819D02*
X136298809Y-137779819D01*
X136298809Y-137779819D02*
X136394047Y-137732200D01*
X136394047Y-137732200D02*
X136441666Y-137684580D01*
X136441666Y-137684580D02*
X136489285Y-137589342D01*
X136489285Y-137589342D02*
X136536904Y-137398866D01*
X136536904Y-137398866D02*
X136536904Y-137160771D01*
X136536904Y-137160771D02*
X136489285Y-136970295D01*
X136489285Y-136970295D02*
X136441666Y-136875057D01*
X136441666Y-136875057D02*
X136394047Y-136827438D01*
X136394047Y-136827438D02*
X136298809Y-136779819D01*
X135108333Y-137113152D02*
X135108333Y-137779819D01*
X135346428Y-136732200D02*
X135584523Y-137446485D01*
X135584523Y-137446485D02*
X134965476Y-137446485D01*
X174119047Y-94104819D02*
X174452380Y-93628628D01*
X174690475Y-94104819D02*
X174690475Y-93104819D01*
X174690475Y-93104819D02*
X174309523Y-93104819D01*
X174309523Y-93104819D02*
X174214285Y-93152438D01*
X174214285Y-93152438D02*
X174166666Y-93200057D01*
X174166666Y-93200057D02*
X174119047Y-93295295D01*
X174119047Y-93295295D02*
X174119047Y-93438152D01*
X174119047Y-93438152D02*
X174166666Y-93533390D01*
X174166666Y-93533390D02*
X174214285Y-93581009D01*
X174214285Y-93581009D02*
X174309523Y-93628628D01*
X174309523Y-93628628D02*
X174690475Y-93628628D01*
X173166666Y-94104819D02*
X173738094Y-94104819D01*
X173452380Y-94104819D02*
X173452380Y-93104819D01*
X173452380Y-93104819D02*
X173547618Y-93247676D01*
X173547618Y-93247676D02*
X173642856Y-93342914D01*
X173642856Y-93342914D02*
X173738094Y-93390533D01*
X172785713Y-93200057D02*
X172738094Y-93152438D01*
X172738094Y-93152438D02*
X172642856Y-93104819D01*
X172642856Y-93104819D02*
X172404761Y-93104819D01*
X172404761Y-93104819D02*
X172309523Y-93152438D01*
X172309523Y-93152438D02*
X172261904Y-93200057D01*
X172261904Y-93200057D02*
X172214285Y-93295295D01*
X172214285Y-93295295D02*
X172214285Y-93390533D01*
X172214285Y-93390533D02*
X172261904Y-93533390D01*
X172261904Y-93533390D02*
X172833332Y-94104819D01*
X172833332Y-94104819D02*
X172214285Y-94104819D01*
X171595237Y-93104819D02*
X171499999Y-93104819D01*
X171499999Y-93104819D02*
X171404761Y-93152438D01*
X171404761Y-93152438D02*
X171357142Y-93200057D01*
X171357142Y-93200057D02*
X171309523Y-93295295D01*
X171309523Y-93295295D02*
X171261904Y-93485771D01*
X171261904Y-93485771D02*
X171261904Y-93723866D01*
X171261904Y-93723866D02*
X171309523Y-93914342D01*
X171309523Y-93914342D02*
X171357142Y-94009580D01*
X171357142Y-94009580D02*
X171404761Y-94057200D01*
X171404761Y-94057200D02*
X171499999Y-94104819D01*
X171499999Y-94104819D02*
X171595237Y-94104819D01*
X171595237Y-94104819D02*
X171690475Y-94057200D01*
X171690475Y-94057200D02*
X171738094Y-94009580D01*
X171738094Y-94009580D02*
X171785713Y-93914342D01*
X171785713Y-93914342D02*
X171833332Y-93723866D01*
X171833332Y-93723866D02*
X171833332Y-93485771D01*
X171833332Y-93485771D02*
X171785713Y-93295295D01*
X171785713Y-93295295D02*
X171738094Y-93200057D01*
X171738094Y-93200057D02*
X171690475Y-93152438D01*
X171690475Y-93152438D02*
X171595237Y-93104819D01*
X148619047Y-117804819D02*
X148952380Y-117328628D01*
X149190475Y-117804819D02*
X149190475Y-116804819D01*
X149190475Y-116804819D02*
X148809523Y-116804819D01*
X148809523Y-116804819D02*
X148714285Y-116852438D01*
X148714285Y-116852438D02*
X148666666Y-116900057D01*
X148666666Y-116900057D02*
X148619047Y-116995295D01*
X148619047Y-116995295D02*
X148619047Y-117138152D01*
X148619047Y-117138152D02*
X148666666Y-117233390D01*
X148666666Y-117233390D02*
X148714285Y-117281009D01*
X148714285Y-117281009D02*
X148809523Y-117328628D01*
X148809523Y-117328628D02*
X149190475Y-117328628D01*
X147666666Y-117804819D02*
X148238094Y-117804819D01*
X147952380Y-117804819D02*
X147952380Y-116804819D01*
X147952380Y-116804819D02*
X148047618Y-116947676D01*
X148047618Y-116947676D02*
X148142856Y-117042914D01*
X148142856Y-117042914D02*
X148238094Y-117090533D01*
X147047618Y-116804819D02*
X146952380Y-116804819D01*
X146952380Y-116804819D02*
X146857142Y-116852438D01*
X146857142Y-116852438D02*
X146809523Y-116900057D01*
X146809523Y-116900057D02*
X146761904Y-116995295D01*
X146761904Y-116995295D02*
X146714285Y-117185771D01*
X146714285Y-117185771D02*
X146714285Y-117423866D01*
X146714285Y-117423866D02*
X146761904Y-117614342D01*
X146761904Y-117614342D02*
X146809523Y-117709580D01*
X146809523Y-117709580D02*
X146857142Y-117757200D01*
X146857142Y-117757200D02*
X146952380Y-117804819D01*
X146952380Y-117804819D02*
X147047618Y-117804819D01*
X147047618Y-117804819D02*
X147142856Y-117757200D01*
X147142856Y-117757200D02*
X147190475Y-117709580D01*
X147190475Y-117709580D02*
X147238094Y-117614342D01*
X147238094Y-117614342D02*
X147285713Y-117423866D01*
X147285713Y-117423866D02*
X147285713Y-117185771D01*
X147285713Y-117185771D02*
X147238094Y-116995295D01*
X147238094Y-116995295D02*
X147190475Y-116900057D01*
X147190475Y-116900057D02*
X147142856Y-116852438D01*
X147142856Y-116852438D02*
X147047618Y-116804819D01*
X146142856Y-117233390D02*
X146238094Y-117185771D01*
X146238094Y-117185771D02*
X146285713Y-117138152D01*
X146285713Y-117138152D02*
X146333332Y-117042914D01*
X146333332Y-117042914D02*
X146333332Y-116995295D01*
X146333332Y-116995295D02*
X146285713Y-116900057D01*
X146285713Y-116900057D02*
X146238094Y-116852438D01*
X146238094Y-116852438D02*
X146142856Y-116804819D01*
X146142856Y-116804819D02*
X145952380Y-116804819D01*
X145952380Y-116804819D02*
X145857142Y-116852438D01*
X145857142Y-116852438D02*
X145809523Y-116900057D01*
X145809523Y-116900057D02*
X145761904Y-116995295D01*
X145761904Y-116995295D02*
X145761904Y-117042914D01*
X145761904Y-117042914D02*
X145809523Y-117138152D01*
X145809523Y-117138152D02*
X145857142Y-117185771D01*
X145857142Y-117185771D02*
X145952380Y-117233390D01*
X145952380Y-117233390D02*
X146142856Y-117233390D01*
X146142856Y-117233390D02*
X146238094Y-117281009D01*
X146238094Y-117281009D02*
X146285713Y-117328628D01*
X146285713Y-117328628D02*
X146333332Y-117423866D01*
X146333332Y-117423866D02*
X146333332Y-117614342D01*
X146333332Y-117614342D02*
X146285713Y-117709580D01*
X146285713Y-117709580D02*
X146238094Y-117757200D01*
X146238094Y-117757200D02*
X146142856Y-117804819D01*
X146142856Y-117804819D02*
X145952380Y-117804819D01*
X145952380Y-117804819D02*
X145857142Y-117757200D01*
X145857142Y-117757200D02*
X145809523Y-117709580D01*
X145809523Y-117709580D02*
X145761904Y-117614342D01*
X145761904Y-117614342D02*
X145761904Y-117423866D01*
X145761904Y-117423866D02*
X145809523Y-117328628D01*
X145809523Y-117328628D02*
X145857142Y-117281009D01*
X145857142Y-117281009D02*
X145952380Y-117233390D01*
X134119047Y-94104819D02*
X134452380Y-93628628D01*
X134690475Y-94104819D02*
X134690475Y-93104819D01*
X134690475Y-93104819D02*
X134309523Y-93104819D01*
X134309523Y-93104819D02*
X134214285Y-93152438D01*
X134214285Y-93152438D02*
X134166666Y-93200057D01*
X134166666Y-93200057D02*
X134119047Y-93295295D01*
X134119047Y-93295295D02*
X134119047Y-93438152D01*
X134119047Y-93438152D02*
X134166666Y-93533390D01*
X134166666Y-93533390D02*
X134214285Y-93581009D01*
X134214285Y-93581009D02*
X134309523Y-93628628D01*
X134309523Y-93628628D02*
X134690475Y-93628628D01*
X133166666Y-94104819D02*
X133738094Y-94104819D01*
X133452380Y-94104819D02*
X133452380Y-93104819D01*
X133452380Y-93104819D02*
X133547618Y-93247676D01*
X133547618Y-93247676D02*
X133642856Y-93342914D01*
X133642856Y-93342914D02*
X133738094Y-93390533D01*
X132214285Y-94104819D02*
X132785713Y-94104819D01*
X132499999Y-94104819D02*
X132499999Y-93104819D01*
X132499999Y-93104819D02*
X132595237Y-93247676D01*
X132595237Y-93247676D02*
X132690475Y-93342914D01*
X132690475Y-93342914D02*
X132785713Y-93390533D01*
X131357142Y-93438152D02*
X131357142Y-94104819D01*
X131595237Y-93057200D02*
X131833332Y-93771485D01*
X131833332Y-93771485D02*
X131214285Y-93771485D01*
X154119047Y-94104819D02*
X154452380Y-93628628D01*
X154690475Y-94104819D02*
X154690475Y-93104819D01*
X154690475Y-93104819D02*
X154309523Y-93104819D01*
X154309523Y-93104819D02*
X154214285Y-93152438D01*
X154214285Y-93152438D02*
X154166666Y-93200057D01*
X154166666Y-93200057D02*
X154119047Y-93295295D01*
X154119047Y-93295295D02*
X154119047Y-93438152D01*
X154119047Y-93438152D02*
X154166666Y-93533390D01*
X154166666Y-93533390D02*
X154214285Y-93581009D01*
X154214285Y-93581009D02*
X154309523Y-93628628D01*
X154309523Y-93628628D02*
X154690475Y-93628628D01*
X153166666Y-94104819D02*
X153738094Y-94104819D01*
X153452380Y-94104819D02*
X153452380Y-93104819D01*
X153452380Y-93104819D02*
X153547618Y-93247676D01*
X153547618Y-93247676D02*
X153642856Y-93342914D01*
X153642856Y-93342914D02*
X153738094Y-93390533D01*
X152785713Y-93200057D02*
X152738094Y-93152438D01*
X152738094Y-93152438D02*
X152642856Y-93104819D01*
X152642856Y-93104819D02*
X152404761Y-93104819D01*
X152404761Y-93104819D02*
X152309523Y-93152438D01*
X152309523Y-93152438D02*
X152261904Y-93200057D01*
X152261904Y-93200057D02*
X152214285Y-93295295D01*
X152214285Y-93295295D02*
X152214285Y-93390533D01*
X152214285Y-93390533D02*
X152261904Y-93533390D01*
X152261904Y-93533390D02*
X152833332Y-94104819D01*
X152833332Y-94104819D02*
X152214285Y-94104819D01*
X151261904Y-94104819D02*
X151833332Y-94104819D01*
X151547618Y-94104819D02*
X151547618Y-93104819D01*
X151547618Y-93104819D02*
X151642856Y-93247676D01*
X151642856Y-93247676D02*
X151738094Y-93342914D01*
X151738094Y-93342914D02*
X151833332Y-93390533D01*
X174119047Y-59604819D02*
X174452380Y-59128628D01*
X174690475Y-59604819D02*
X174690475Y-58604819D01*
X174690475Y-58604819D02*
X174309523Y-58604819D01*
X174309523Y-58604819D02*
X174214285Y-58652438D01*
X174214285Y-58652438D02*
X174166666Y-58700057D01*
X174166666Y-58700057D02*
X174119047Y-58795295D01*
X174119047Y-58795295D02*
X174119047Y-58938152D01*
X174119047Y-58938152D02*
X174166666Y-59033390D01*
X174166666Y-59033390D02*
X174214285Y-59081009D01*
X174214285Y-59081009D02*
X174309523Y-59128628D01*
X174309523Y-59128628D02*
X174690475Y-59128628D01*
X173166666Y-59604819D02*
X173738094Y-59604819D01*
X173452380Y-59604819D02*
X173452380Y-58604819D01*
X173452380Y-58604819D02*
X173547618Y-58747676D01*
X173547618Y-58747676D02*
X173642856Y-58842914D01*
X173642856Y-58842914D02*
X173738094Y-58890533D01*
X172214285Y-59604819D02*
X172785713Y-59604819D01*
X172499999Y-59604819D02*
X172499999Y-58604819D01*
X172499999Y-58604819D02*
X172595237Y-58747676D01*
X172595237Y-58747676D02*
X172690475Y-58842914D01*
X172690475Y-58842914D02*
X172785713Y-58890533D01*
X171880951Y-58604819D02*
X171214285Y-58604819D01*
X171214285Y-58604819D02*
X171642856Y-59604819D01*
X173535714Y-61204819D02*
X173535714Y-61919104D01*
X173535714Y-61919104D02*
X173583333Y-62061961D01*
X173583333Y-62061961D02*
X173678571Y-62157200D01*
X173678571Y-62157200D02*
X173821428Y-62204819D01*
X173821428Y-62204819D02*
X173916666Y-62204819D01*
X172535714Y-62204819D02*
X173107142Y-62204819D01*
X172821428Y-62204819D02*
X172821428Y-61204819D01*
X172821428Y-61204819D02*
X172916666Y-61347676D01*
X172916666Y-61347676D02*
X173011904Y-61442914D01*
X173011904Y-61442914D02*
X173107142Y-61490533D01*
X171916666Y-61204819D02*
X171821428Y-61204819D01*
X171821428Y-61204819D02*
X171726190Y-61252438D01*
X171726190Y-61252438D02*
X171678571Y-61300057D01*
X171678571Y-61300057D02*
X171630952Y-61395295D01*
X171630952Y-61395295D02*
X171583333Y-61585771D01*
X171583333Y-61585771D02*
X171583333Y-61823866D01*
X171583333Y-61823866D02*
X171630952Y-62014342D01*
X171630952Y-62014342D02*
X171678571Y-62109580D01*
X171678571Y-62109580D02*
X171726190Y-62157200D01*
X171726190Y-62157200D02*
X171821428Y-62204819D01*
X171821428Y-62204819D02*
X171916666Y-62204819D01*
X171916666Y-62204819D02*
X172011904Y-62157200D01*
X172011904Y-62157200D02*
X172059523Y-62109580D01*
X172059523Y-62109580D02*
X172107142Y-62014342D01*
X172107142Y-62014342D02*
X172154761Y-61823866D01*
X172154761Y-61823866D02*
X172154761Y-61585771D01*
X172154761Y-61585771D02*
X172107142Y-61395295D01*
X172107142Y-61395295D02*
X172059523Y-61300057D01*
X172059523Y-61300057D02*
X172011904Y-61252438D01*
X172011904Y-61252438D02*
X171916666Y-61204819D01*
X171249999Y-61204819D02*
X170583333Y-61204819D01*
X170583333Y-61204819D02*
X171011904Y-62204819D01*
X154331547Y-145289580D02*
X154379166Y-145337200D01*
X154379166Y-145337200D02*
X154522023Y-145384819D01*
X154522023Y-145384819D02*
X154617261Y-145384819D01*
X154617261Y-145384819D02*
X154760118Y-145337200D01*
X154760118Y-145337200D02*
X154855356Y-145241961D01*
X154855356Y-145241961D02*
X154902975Y-145146723D01*
X154902975Y-145146723D02*
X154950594Y-144956247D01*
X154950594Y-144956247D02*
X154950594Y-144813390D01*
X154950594Y-144813390D02*
X154902975Y-144622914D01*
X154902975Y-144622914D02*
X154855356Y-144527676D01*
X154855356Y-144527676D02*
X154760118Y-144432438D01*
X154760118Y-144432438D02*
X154617261Y-144384819D01*
X154617261Y-144384819D02*
X154522023Y-144384819D01*
X154522023Y-144384819D02*
X154379166Y-144432438D01*
X154379166Y-144432438D02*
X154331547Y-144480057D01*
X153379166Y-145384819D02*
X153950594Y-145384819D01*
X153664880Y-145384819D02*
X153664880Y-144384819D01*
X153664880Y-144384819D02*
X153760118Y-144527676D01*
X153760118Y-144527676D02*
X153855356Y-144622914D01*
X153855356Y-144622914D02*
X153950594Y-144670533D01*
X152760118Y-144384819D02*
X152664880Y-144384819D01*
X152664880Y-144384819D02*
X152569642Y-144432438D01*
X152569642Y-144432438D02*
X152522023Y-144480057D01*
X152522023Y-144480057D02*
X152474404Y-144575295D01*
X152474404Y-144575295D02*
X152426785Y-144765771D01*
X152426785Y-144765771D02*
X152426785Y-145003866D01*
X152426785Y-145003866D02*
X152474404Y-145194342D01*
X152474404Y-145194342D02*
X152522023Y-145289580D01*
X152522023Y-145289580D02*
X152569642Y-145337200D01*
X152569642Y-145337200D02*
X152664880Y-145384819D01*
X152664880Y-145384819D02*
X152760118Y-145384819D01*
X152760118Y-145384819D02*
X152855356Y-145337200D01*
X152855356Y-145337200D02*
X152902975Y-145289580D01*
X152902975Y-145289580D02*
X152950594Y-145194342D01*
X152950594Y-145194342D02*
X152998213Y-145003866D01*
X152998213Y-145003866D02*
X152998213Y-144765771D01*
X152998213Y-144765771D02*
X152950594Y-144575295D01*
X152950594Y-144575295D02*
X152902975Y-144480057D01*
X152902975Y-144480057D02*
X152855356Y-144432438D01*
X152855356Y-144432438D02*
X152760118Y-144384819D01*
X151474404Y-145384819D02*
X152045832Y-145384819D01*
X151760118Y-145384819D02*
X151760118Y-144384819D01*
X151760118Y-144384819D02*
X151855356Y-144527676D01*
X151855356Y-144527676D02*
X151950594Y-144622914D01*
X151950594Y-144622914D02*
X152045832Y-144670533D01*
X137869047Y-122679580D02*
X137916666Y-122727200D01*
X137916666Y-122727200D02*
X138059523Y-122774819D01*
X138059523Y-122774819D02*
X138154761Y-122774819D01*
X138154761Y-122774819D02*
X138297618Y-122727200D01*
X138297618Y-122727200D02*
X138392856Y-122631961D01*
X138392856Y-122631961D02*
X138440475Y-122536723D01*
X138440475Y-122536723D02*
X138488094Y-122346247D01*
X138488094Y-122346247D02*
X138488094Y-122203390D01*
X138488094Y-122203390D02*
X138440475Y-122012914D01*
X138440475Y-122012914D02*
X138392856Y-121917676D01*
X138392856Y-121917676D02*
X138297618Y-121822438D01*
X138297618Y-121822438D02*
X138154761Y-121774819D01*
X138154761Y-121774819D02*
X138059523Y-121774819D01*
X138059523Y-121774819D02*
X137916666Y-121822438D01*
X137916666Y-121822438D02*
X137869047Y-121870057D01*
X136916666Y-122774819D02*
X137488094Y-122774819D01*
X137202380Y-122774819D02*
X137202380Y-121774819D01*
X137202380Y-121774819D02*
X137297618Y-121917676D01*
X137297618Y-121917676D02*
X137392856Y-122012914D01*
X137392856Y-122012914D02*
X137488094Y-122060533D01*
X136297618Y-121774819D02*
X136202380Y-121774819D01*
X136202380Y-121774819D02*
X136107142Y-121822438D01*
X136107142Y-121822438D02*
X136059523Y-121870057D01*
X136059523Y-121870057D02*
X136011904Y-121965295D01*
X136011904Y-121965295D02*
X135964285Y-122155771D01*
X135964285Y-122155771D02*
X135964285Y-122393866D01*
X135964285Y-122393866D02*
X136011904Y-122584342D01*
X136011904Y-122584342D02*
X136059523Y-122679580D01*
X136059523Y-122679580D02*
X136107142Y-122727200D01*
X136107142Y-122727200D02*
X136202380Y-122774819D01*
X136202380Y-122774819D02*
X136297618Y-122774819D01*
X136297618Y-122774819D02*
X136392856Y-122727200D01*
X136392856Y-122727200D02*
X136440475Y-122679580D01*
X136440475Y-122679580D02*
X136488094Y-122584342D01*
X136488094Y-122584342D02*
X136535713Y-122393866D01*
X136535713Y-122393866D02*
X136535713Y-122155771D01*
X136535713Y-122155771D02*
X136488094Y-121965295D01*
X136488094Y-121965295D02*
X136440475Y-121870057D01*
X136440475Y-121870057D02*
X136392856Y-121822438D01*
X136392856Y-121822438D02*
X136297618Y-121774819D01*
X135583332Y-121870057D02*
X135535713Y-121822438D01*
X135535713Y-121822438D02*
X135440475Y-121774819D01*
X135440475Y-121774819D02*
X135202380Y-121774819D01*
X135202380Y-121774819D02*
X135107142Y-121822438D01*
X135107142Y-121822438D02*
X135059523Y-121870057D01*
X135059523Y-121870057D02*
X135011904Y-121965295D01*
X135011904Y-121965295D02*
X135011904Y-122060533D01*
X135011904Y-122060533D02*
X135059523Y-122203390D01*
X135059523Y-122203390D02*
X135630951Y-122774819D01*
X135630951Y-122774819D02*
X135011904Y-122774819D01*
X154119047Y-59604819D02*
X154452380Y-59128628D01*
X154690475Y-59604819D02*
X154690475Y-58604819D01*
X154690475Y-58604819D02*
X154309523Y-58604819D01*
X154309523Y-58604819D02*
X154214285Y-58652438D01*
X154214285Y-58652438D02*
X154166666Y-58700057D01*
X154166666Y-58700057D02*
X154119047Y-58795295D01*
X154119047Y-58795295D02*
X154119047Y-58938152D01*
X154119047Y-58938152D02*
X154166666Y-59033390D01*
X154166666Y-59033390D02*
X154214285Y-59081009D01*
X154214285Y-59081009D02*
X154309523Y-59128628D01*
X154309523Y-59128628D02*
X154690475Y-59128628D01*
X153166666Y-59604819D02*
X153738094Y-59604819D01*
X153452380Y-59604819D02*
X153452380Y-58604819D01*
X153452380Y-58604819D02*
X153547618Y-58747676D01*
X153547618Y-58747676D02*
X153642856Y-58842914D01*
X153642856Y-58842914D02*
X153738094Y-58890533D01*
X152214285Y-59604819D02*
X152785713Y-59604819D01*
X152499999Y-59604819D02*
X152499999Y-58604819D01*
X152499999Y-58604819D02*
X152595237Y-58747676D01*
X152595237Y-58747676D02*
X152690475Y-58842914D01*
X152690475Y-58842914D02*
X152785713Y-58890533D01*
X151595237Y-58604819D02*
X151499999Y-58604819D01*
X151499999Y-58604819D02*
X151404761Y-58652438D01*
X151404761Y-58652438D02*
X151357142Y-58700057D01*
X151357142Y-58700057D02*
X151309523Y-58795295D01*
X151309523Y-58795295D02*
X151261904Y-58985771D01*
X151261904Y-58985771D02*
X151261904Y-59223866D01*
X151261904Y-59223866D02*
X151309523Y-59414342D01*
X151309523Y-59414342D02*
X151357142Y-59509580D01*
X151357142Y-59509580D02*
X151404761Y-59557200D01*
X151404761Y-59557200D02*
X151499999Y-59604819D01*
X151499999Y-59604819D02*
X151595237Y-59604819D01*
X151595237Y-59604819D02*
X151690475Y-59557200D01*
X151690475Y-59557200D02*
X151738094Y-59509580D01*
X151738094Y-59509580D02*
X151785713Y-59414342D01*
X151785713Y-59414342D02*
X151833332Y-59223866D01*
X151833332Y-59223866D02*
X151833332Y-58985771D01*
X151833332Y-58985771D02*
X151785713Y-58795295D01*
X151785713Y-58795295D02*
X151738094Y-58700057D01*
X151738094Y-58700057D02*
X151690475Y-58652438D01*
X151690475Y-58652438D02*
X151595237Y-58604819D01*
X164119047Y-77104819D02*
X164452380Y-76628628D01*
X164690475Y-77104819D02*
X164690475Y-76104819D01*
X164690475Y-76104819D02*
X164309523Y-76104819D01*
X164309523Y-76104819D02*
X164214285Y-76152438D01*
X164214285Y-76152438D02*
X164166666Y-76200057D01*
X164166666Y-76200057D02*
X164119047Y-76295295D01*
X164119047Y-76295295D02*
X164119047Y-76438152D01*
X164119047Y-76438152D02*
X164166666Y-76533390D01*
X164166666Y-76533390D02*
X164214285Y-76581009D01*
X164214285Y-76581009D02*
X164309523Y-76628628D01*
X164309523Y-76628628D02*
X164690475Y-76628628D01*
X163166666Y-77104819D02*
X163738094Y-77104819D01*
X163452380Y-77104819D02*
X163452380Y-76104819D01*
X163452380Y-76104819D02*
X163547618Y-76247676D01*
X163547618Y-76247676D02*
X163642856Y-76342914D01*
X163642856Y-76342914D02*
X163738094Y-76390533D01*
X162214285Y-77104819D02*
X162785713Y-77104819D01*
X162499999Y-77104819D02*
X162499999Y-76104819D01*
X162499999Y-76104819D02*
X162595237Y-76247676D01*
X162595237Y-76247676D02*
X162690475Y-76342914D01*
X162690475Y-76342914D02*
X162785713Y-76390533D01*
X161738094Y-77104819D02*
X161547618Y-77104819D01*
X161547618Y-77104819D02*
X161452380Y-77057200D01*
X161452380Y-77057200D02*
X161404761Y-77009580D01*
X161404761Y-77009580D02*
X161309523Y-76866723D01*
X161309523Y-76866723D02*
X161261904Y-76676247D01*
X161261904Y-76676247D02*
X161261904Y-76295295D01*
X161261904Y-76295295D02*
X161309523Y-76200057D01*
X161309523Y-76200057D02*
X161357142Y-76152438D01*
X161357142Y-76152438D02*
X161452380Y-76104819D01*
X161452380Y-76104819D02*
X161642856Y-76104819D01*
X161642856Y-76104819D02*
X161738094Y-76152438D01*
X161738094Y-76152438D02*
X161785713Y-76200057D01*
X161785713Y-76200057D02*
X161833332Y-76295295D01*
X161833332Y-76295295D02*
X161833332Y-76533390D01*
X161833332Y-76533390D02*
X161785713Y-76628628D01*
X161785713Y-76628628D02*
X161738094Y-76676247D01*
X161738094Y-76676247D02*
X161642856Y-76723866D01*
X161642856Y-76723866D02*
X161452380Y-76723866D01*
X161452380Y-76723866D02*
X161357142Y-76676247D01*
X161357142Y-76676247D02*
X161309523Y-76628628D01*
X161309523Y-76628628D02*
X161261904Y-76533390D01*
X155154819Y-119535714D02*
X155964342Y-119535714D01*
X155964342Y-119535714D02*
X156059580Y-119583333D01*
X156059580Y-119583333D02*
X156107200Y-119630952D01*
X156107200Y-119630952D02*
X156154819Y-119726190D01*
X156154819Y-119726190D02*
X156154819Y-119916666D01*
X156154819Y-119916666D02*
X156107200Y-120011904D01*
X156107200Y-120011904D02*
X156059580Y-120059523D01*
X156059580Y-120059523D02*
X155964342Y-120107142D01*
X155964342Y-120107142D02*
X155154819Y-120107142D01*
X156154819Y-121107142D02*
X156154819Y-120535714D01*
X156154819Y-120821428D02*
X155154819Y-120821428D01*
X155154819Y-120821428D02*
X155297676Y-120726190D01*
X155297676Y-120726190D02*
X155392914Y-120630952D01*
X155392914Y-120630952D02*
X155440533Y-120535714D01*
X155154819Y-121726190D02*
X155154819Y-121821428D01*
X155154819Y-121821428D02*
X155202438Y-121916666D01*
X155202438Y-121916666D02*
X155250057Y-121964285D01*
X155250057Y-121964285D02*
X155345295Y-122011904D01*
X155345295Y-122011904D02*
X155535771Y-122059523D01*
X155535771Y-122059523D02*
X155773866Y-122059523D01*
X155773866Y-122059523D02*
X155964342Y-122011904D01*
X155964342Y-122011904D02*
X156059580Y-121964285D01*
X156059580Y-121964285D02*
X156107200Y-121916666D01*
X156107200Y-121916666D02*
X156154819Y-121821428D01*
X156154819Y-121821428D02*
X156154819Y-121726190D01*
X156154819Y-121726190D02*
X156107200Y-121630952D01*
X156107200Y-121630952D02*
X156059580Y-121583333D01*
X156059580Y-121583333D02*
X155964342Y-121535714D01*
X155964342Y-121535714D02*
X155773866Y-121488095D01*
X155773866Y-121488095D02*
X155535771Y-121488095D01*
X155535771Y-121488095D02*
X155345295Y-121535714D01*
X155345295Y-121535714D02*
X155250057Y-121583333D01*
X155250057Y-121583333D02*
X155202438Y-121630952D01*
X155202438Y-121630952D02*
X155154819Y-121726190D01*
X155154819Y-122392857D02*
X155154819Y-123059523D01*
X155154819Y-123059523D02*
X156154819Y-122630952D01*
X141035714Y-61204819D02*
X141035714Y-61919104D01*
X141035714Y-61919104D02*
X141083333Y-62061961D01*
X141083333Y-62061961D02*
X141178571Y-62157200D01*
X141178571Y-62157200D02*
X141321428Y-62204819D01*
X141321428Y-62204819D02*
X141416666Y-62204819D01*
X140035714Y-62204819D02*
X140607142Y-62204819D01*
X140321428Y-62204819D02*
X140321428Y-61204819D01*
X140321428Y-61204819D02*
X140416666Y-61347676D01*
X140416666Y-61347676D02*
X140511904Y-61442914D01*
X140511904Y-61442914D02*
X140607142Y-61490533D01*
X139416666Y-61204819D02*
X139321428Y-61204819D01*
X139321428Y-61204819D02*
X139226190Y-61252438D01*
X139226190Y-61252438D02*
X139178571Y-61300057D01*
X139178571Y-61300057D02*
X139130952Y-61395295D01*
X139130952Y-61395295D02*
X139083333Y-61585771D01*
X139083333Y-61585771D02*
X139083333Y-61823866D01*
X139083333Y-61823866D02*
X139130952Y-62014342D01*
X139130952Y-62014342D02*
X139178571Y-62109580D01*
X139178571Y-62109580D02*
X139226190Y-62157200D01*
X139226190Y-62157200D02*
X139321428Y-62204819D01*
X139321428Y-62204819D02*
X139416666Y-62204819D01*
X139416666Y-62204819D02*
X139511904Y-62157200D01*
X139511904Y-62157200D02*
X139559523Y-62109580D01*
X139559523Y-62109580D02*
X139607142Y-62014342D01*
X139607142Y-62014342D02*
X139654761Y-61823866D01*
X139654761Y-61823866D02*
X139654761Y-61585771D01*
X139654761Y-61585771D02*
X139607142Y-61395295D01*
X139607142Y-61395295D02*
X139559523Y-61300057D01*
X139559523Y-61300057D02*
X139511904Y-61252438D01*
X139511904Y-61252438D02*
X139416666Y-61204819D01*
X138511904Y-61633390D02*
X138607142Y-61585771D01*
X138607142Y-61585771D02*
X138654761Y-61538152D01*
X138654761Y-61538152D02*
X138702380Y-61442914D01*
X138702380Y-61442914D02*
X138702380Y-61395295D01*
X138702380Y-61395295D02*
X138654761Y-61300057D01*
X138654761Y-61300057D02*
X138607142Y-61252438D01*
X138607142Y-61252438D02*
X138511904Y-61204819D01*
X138511904Y-61204819D02*
X138321428Y-61204819D01*
X138321428Y-61204819D02*
X138226190Y-61252438D01*
X138226190Y-61252438D02*
X138178571Y-61300057D01*
X138178571Y-61300057D02*
X138130952Y-61395295D01*
X138130952Y-61395295D02*
X138130952Y-61442914D01*
X138130952Y-61442914D02*
X138178571Y-61538152D01*
X138178571Y-61538152D02*
X138226190Y-61585771D01*
X138226190Y-61585771D02*
X138321428Y-61633390D01*
X138321428Y-61633390D02*
X138511904Y-61633390D01*
X138511904Y-61633390D02*
X138607142Y-61681009D01*
X138607142Y-61681009D02*
X138654761Y-61728628D01*
X138654761Y-61728628D02*
X138702380Y-61823866D01*
X138702380Y-61823866D02*
X138702380Y-62014342D01*
X138702380Y-62014342D02*
X138654761Y-62109580D01*
X138654761Y-62109580D02*
X138607142Y-62157200D01*
X138607142Y-62157200D02*
X138511904Y-62204819D01*
X138511904Y-62204819D02*
X138321428Y-62204819D01*
X138321428Y-62204819D02*
X138226190Y-62157200D01*
X138226190Y-62157200D02*
X138178571Y-62109580D01*
X138178571Y-62109580D02*
X138130952Y-62014342D01*
X138130952Y-62014342D02*
X138130952Y-61823866D01*
X138130952Y-61823866D02*
X138178571Y-61728628D01*
X138178571Y-61728628D02*
X138226190Y-61681009D01*
X138226190Y-61681009D02*
X138321428Y-61633390D01*
X194119047Y-59604819D02*
X194452380Y-59128628D01*
X194690475Y-59604819D02*
X194690475Y-58604819D01*
X194690475Y-58604819D02*
X194309523Y-58604819D01*
X194309523Y-58604819D02*
X194214285Y-58652438D01*
X194214285Y-58652438D02*
X194166666Y-58700057D01*
X194166666Y-58700057D02*
X194119047Y-58795295D01*
X194119047Y-58795295D02*
X194119047Y-58938152D01*
X194119047Y-58938152D02*
X194166666Y-59033390D01*
X194166666Y-59033390D02*
X194214285Y-59081009D01*
X194214285Y-59081009D02*
X194309523Y-59128628D01*
X194309523Y-59128628D02*
X194690475Y-59128628D01*
X193166666Y-59604819D02*
X193738094Y-59604819D01*
X193452380Y-59604819D02*
X193452380Y-58604819D01*
X193452380Y-58604819D02*
X193547618Y-58747676D01*
X193547618Y-58747676D02*
X193642856Y-58842914D01*
X193642856Y-58842914D02*
X193738094Y-58890533D01*
X192214285Y-59604819D02*
X192785713Y-59604819D01*
X192499999Y-59604819D02*
X192499999Y-58604819D01*
X192499999Y-58604819D02*
X192595237Y-58747676D01*
X192595237Y-58747676D02*
X192690475Y-58842914D01*
X192690475Y-58842914D02*
X192785713Y-58890533D01*
X191357142Y-58604819D02*
X191547618Y-58604819D01*
X191547618Y-58604819D02*
X191642856Y-58652438D01*
X191642856Y-58652438D02*
X191690475Y-58700057D01*
X191690475Y-58700057D02*
X191785713Y-58842914D01*
X191785713Y-58842914D02*
X191833332Y-59033390D01*
X191833332Y-59033390D02*
X191833332Y-59414342D01*
X191833332Y-59414342D02*
X191785713Y-59509580D01*
X191785713Y-59509580D02*
X191738094Y-59557200D01*
X191738094Y-59557200D02*
X191642856Y-59604819D01*
X191642856Y-59604819D02*
X191452380Y-59604819D01*
X191452380Y-59604819D02*
X191357142Y-59557200D01*
X191357142Y-59557200D02*
X191309523Y-59509580D01*
X191309523Y-59509580D02*
X191261904Y-59414342D01*
X191261904Y-59414342D02*
X191261904Y-59176247D01*
X191261904Y-59176247D02*
X191309523Y-59081009D01*
X191309523Y-59081009D02*
X191357142Y-59033390D01*
X191357142Y-59033390D02*
X191452380Y-58985771D01*
X191452380Y-58985771D02*
X191642856Y-58985771D01*
X191642856Y-58985771D02*
X191738094Y-59033390D01*
X191738094Y-59033390D02*
X191785713Y-59081009D01*
X191785713Y-59081009D02*
X191833332Y-59176247D01*
X121826785Y-112729819D02*
X121826785Y-113539342D01*
X121826785Y-113539342D02*
X121779166Y-113634580D01*
X121779166Y-113634580D02*
X121731547Y-113682200D01*
X121731547Y-113682200D02*
X121636309Y-113729819D01*
X121636309Y-113729819D02*
X121445833Y-113729819D01*
X121445833Y-113729819D02*
X121350595Y-113682200D01*
X121350595Y-113682200D02*
X121302976Y-113634580D01*
X121302976Y-113634580D02*
X121255357Y-113539342D01*
X121255357Y-113539342D02*
X121255357Y-112729819D01*
X120255357Y-113729819D02*
X120826785Y-113729819D01*
X120541071Y-113729819D02*
X120541071Y-112729819D01*
X120541071Y-112729819D02*
X120636309Y-112872676D01*
X120636309Y-112872676D02*
X120731547Y-112967914D01*
X120731547Y-112967914D02*
X120826785Y-113015533D01*
X119636309Y-112729819D02*
X119541071Y-112729819D01*
X119541071Y-112729819D02*
X119445833Y-112777438D01*
X119445833Y-112777438D02*
X119398214Y-112825057D01*
X119398214Y-112825057D02*
X119350595Y-112920295D01*
X119350595Y-112920295D02*
X119302976Y-113110771D01*
X119302976Y-113110771D02*
X119302976Y-113348866D01*
X119302976Y-113348866D02*
X119350595Y-113539342D01*
X119350595Y-113539342D02*
X119398214Y-113634580D01*
X119398214Y-113634580D02*
X119445833Y-113682200D01*
X119445833Y-113682200D02*
X119541071Y-113729819D01*
X119541071Y-113729819D02*
X119636309Y-113729819D01*
X119636309Y-113729819D02*
X119731547Y-113682200D01*
X119731547Y-113682200D02*
X119779166Y-113634580D01*
X119779166Y-113634580D02*
X119826785Y-113539342D01*
X119826785Y-113539342D02*
X119874404Y-113348866D01*
X119874404Y-113348866D02*
X119874404Y-113110771D01*
X119874404Y-113110771D02*
X119826785Y-112920295D01*
X119826785Y-112920295D02*
X119779166Y-112825057D01*
X119779166Y-112825057D02*
X119731547Y-112777438D01*
X119731547Y-112777438D02*
X119636309Y-112729819D01*
X118350595Y-113729819D02*
X118922023Y-113729819D01*
X118636309Y-113729819D02*
X118636309Y-112729819D01*
X118636309Y-112729819D02*
X118731547Y-112872676D01*
X118731547Y-112872676D02*
X118826785Y-112967914D01*
X118826785Y-112967914D02*
X118922023Y-113015533D01*
X144119047Y-77104819D02*
X144452380Y-76628628D01*
X144690475Y-77104819D02*
X144690475Y-76104819D01*
X144690475Y-76104819D02*
X144309523Y-76104819D01*
X144309523Y-76104819D02*
X144214285Y-76152438D01*
X144214285Y-76152438D02*
X144166666Y-76200057D01*
X144166666Y-76200057D02*
X144119047Y-76295295D01*
X144119047Y-76295295D02*
X144119047Y-76438152D01*
X144119047Y-76438152D02*
X144166666Y-76533390D01*
X144166666Y-76533390D02*
X144214285Y-76581009D01*
X144214285Y-76581009D02*
X144309523Y-76628628D01*
X144309523Y-76628628D02*
X144690475Y-76628628D01*
X143166666Y-77104819D02*
X143738094Y-77104819D01*
X143452380Y-77104819D02*
X143452380Y-76104819D01*
X143452380Y-76104819D02*
X143547618Y-76247676D01*
X143547618Y-76247676D02*
X143642856Y-76342914D01*
X143642856Y-76342914D02*
X143738094Y-76390533D01*
X142214285Y-77104819D02*
X142785713Y-77104819D01*
X142499999Y-77104819D02*
X142499999Y-76104819D01*
X142499999Y-76104819D02*
X142595237Y-76247676D01*
X142595237Y-76247676D02*
X142690475Y-76342914D01*
X142690475Y-76342914D02*
X142785713Y-76390533D01*
X141833332Y-76200057D02*
X141785713Y-76152438D01*
X141785713Y-76152438D02*
X141690475Y-76104819D01*
X141690475Y-76104819D02*
X141452380Y-76104819D01*
X141452380Y-76104819D02*
X141357142Y-76152438D01*
X141357142Y-76152438D02*
X141309523Y-76200057D01*
X141309523Y-76200057D02*
X141261904Y-76295295D01*
X141261904Y-76295295D02*
X141261904Y-76390533D01*
X141261904Y-76390533D02*
X141309523Y-76533390D01*
X141309523Y-76533390D02*
X141880951Y-77104819D01*
X141880951Y-77104819D02*
X141261904Y-77104819D01*
X134119047Y-59604819D02*
X134452380Y-59128628D01*
X134690475Y-59604819D02*
X134690475Y-58604819D01*
X134690475Y-58604819D02*
X134309523Y-58604819D01*
X134309523Y-58604819D02*
X134214285Y-58652438D01*
X134214285Y-58652438D02*
X134166666Y-58700057D01*
X134166666Y-58700057D02*
X134119047Y-58795295D01*
X134119047Y-58795295D02*
X134119047Y-58938152D01*
X134119047Y-58938152D02*
X134166666Y-59033390D01*
X134166666Y-59033390D02*
X134214285Y-59081009D01*
X134214285Y-59081009D02*
X134309523Y-59128628D01*
X134309523Y-59128628D02*
X134690475Y-59128628D01*
X133166666Y-59604819D02*
X133738094Y-59604819D01*
X133452380Y-59604819D02*
X133452380Y-58604819D01*
X133452380Y-58604819D02*
X133547618Y-58747676D01*
X133547618Y-58747676D02*
X133642856Y-58842914D01*
X133642856Y-58842914D02*
X133738094Y-58890533D01*
X132214285Y-59604819D02*
X132785713Y-59604819D01*
X132499999Y-59604819D02*
X132499999Y-58604819D01*
X132499999Y-58604819D02*
X132595237Y-58747676D01*
X132595237Y-58747676D02*
X132690475Y-58842914D01*
X132690475Y-58842914D02*
X132785713Y-58890533D01*
X131261904Y-59604819D02*
X131833332Y-59604819D01*
X131547618Y-59604819D02*
X131547618Y-58604819D01*
X131547618Y-58604819D02*
X131642856Y-58747676D01*
X131642856Y-58747676D02*
X131738094Y-58842914D01*
X131738094Y-58842914D02*
X131833332Y-58890533D01*
X118619047Y-132104819D02*
X118952380Y-131628628D01*
X119190475Y-132104819D02*
X119190475Y-131104819D01*
X119190475Y-131104819D02*
X118809523Y-131104819D01*
X118809523Y-131104819D02*
X118714285Y-131152438D01*
X118714285Y-131152438D02*
X118666666Y-131200057D01*
X118666666Y-131200057D02*
X118619047Y-131295295D01*
X118619047Y-131295295D02*
X118619047Y-131438152D01*
X118619047Y-131438152D02*
X118666666Y-131533390D01*
X118666666Y-131533390D02*
X118714285Y-131581009D01*
X118714285Y-131581009D02*
X118809523Y-131628628D01*
X118809523Y-131628628D02*
X119190475Y-131628628D01*
X117666666Y-132104819D02*
X118238094Y-132104819D01*
X117952380Y-132104819D02*
X117952380Y-131104819D01*
X117952380Y-131104819D02*
X118047618Y-131247676D01*
X118047618Y-131247676D02*
X118142856Y-131342914D01*
X118142856Y-131342914D02*
X118238094Y-131390533D01*
X117047618Y-131104819D02*
X116952380Y-131104819D01*
X116952380Y-131104819D02*
X116857142Y-131152438D01*
X116857142Y-131152438D02*
X116809523Y-131200057D01*
X116809523Y-131200057D02*
X116761904Y-131295295D01*
X116761904Y-131295295D02*
X116714285Y-131485771D01*
X116714285Y-131485771D02*
X116714285Y-131723866D01*
X116714285Y-131723866D02*
X116761904Y-131914342D01*
X116761904Y-131914342D02*
X116809523Y-132009580D01*
X116809523Y-132009580D02*
X116857142Y-132057200D01*
X116857142Y-132057200D02*
X116952380Y-132104819D01*
X116952380Y-132104819D02*
X117047618Y-132104819D01*
X117047618Y-132104819D02*
X117142856Y-132057200D01*
X117142856Y-132057200D02*
X117190475Y-132009580D01*
X117190475Y-132009580D02*
X117238094Y-131914342D01*
X117238094Y-131914342D02*
X117285713Y-131723866D01*
X117285713Y-131723866D02*
X117285713Y-131485771D01*
X117285713Y-131485771D02*
X117238094Y-131295295D01*
X117238094Y-131295295D02*
X117190475Y-131200057D01*
X117190475Y-131200057D02*
X117142856Y-131152438D01*
X117142856Y-131152438D02*
X117047618Y-131104819D01*
X115761904Y-132104819D02*
X116333332Y-132104819D01*
X116047618Y-132104819D02*
X116047618Y-131104819D01*
X116047618Y-131104819D02*
X116142856Y-131247676D01*
X116142856Y-131247676D02*
X116238094Y-131342914D01*
X116238094Y-131342914D02*
X116333332Y-131390533D01*
X184119047Y-77104819D02*
X184452380Y-76628628D01*
X184690475Y-77104819D02*
X184690475Y-76104819D01*
X184690475Y-76104819D02*
X184309523Y-76104819D01*
X184309523Y-76104819D02*
X184214285Y-76152438D01*
X184214285Y-76152438D02*
X184166666Y-76200057D01*
X184166666Y-76200057D02*
X184119047Y-76295295D01*
X184119047Y-76295295D02*
X184119047Y-76438152D01*
X184119047Y-76438152D02*
X184166666Y-76533390D01*
X184166666Y-76533390D02*
X184214285Y-76581009D01*
X184214285Y-76581009D02*
X184309523Y-76628628D01*
X184309523Y-76628628D02*
X184690475Y-76628628D01*
X183166666Y-77104819D02*
X183738094Y-77104819D01*
X183452380Y-77104819D02*
X183452380Y-76104819D01*
X183452380Y-76104819D02*
X183547618Y-76247676D01*
X183547618Y-76247676D02*
X183642856Y-76342914D01*
X183642856Y-76342914D02*
X183738094Y-76390533D01*
X182214285Y-77104819D02*
X182785713Y-77104819D01*
X182499999Y-77104819D02*
X182499999Y-76104819D01*
X182499999Y-76104819D02*
X182595237Y-76247676D01*
X182595237Y-76247676D02*
X182690475Y-76342914D01*
X182690475Y-76342914D02*
X182785713Y-76390533D01*
X181642856Y-76533390D02*
X181738094Y-76485771D01*
X181738094Y-76485771D02*
X181785713Y-76438152D01*
X181785713Y-76438152D02*
X181833332Y-76342914D01*
X181833332Y-76342914D02*
X181833332Y-76295295D01*
X181833332Y-76295295D02*
X181785713Y-76200057D01*
X181785713Y-76200057D02*
X181738094Y-76152438D01*
X181738094Y-76152438D02*
X181642856Y-76104819D01*
X181642856Y-76104819D02*
X181452380Y-76104819D01*
X181452380Y-76104819D02*
X181357142Y-76152438D01*
X181357142Y-76152438D02*
X181309523Y-76200057D01*
X181309523Y-76200057D02*
X181261904Y-76295295D01*
X181261904Y-76295295D02*
X181261904Y-76342914D01*
X181261904Y-76342914D02*
X181309523Y-76438152D01*
X181309523Y-76438152D02*
X181357142Y-76485771D01*
X181357142Y-76485771D02*
X181452380Y-76533390D01*
X181452380Y-76533390D02*
X181642856Y-76533390D01*
X181642856Y-76533390D02*
X181738094Y-76581009D01*
X181738094Y-76581009D02*
X181785713Y-76628628D01*
X181785713Y-76628628D02*
X181833332Y-76723866D01*
X181833332Y-76723866D02*
X181833332Y-76914342D01*
X181833332Y-76914342D02*
X181785713Y-77009580D01*
X181785713Y-77009580D02*
X181738094Y-77057200D01*
X181738094Y-77057200D02*
X181642856Y-77104819D01*
X181642856Y-77104819D02*
X181452380Y-77104819D01*
X181452380Y-77104819D02*
X181357142Y-77057200D01*
X181357142Y-77057200D02*
X181309523Y-77009580D01*
X181309523Y-77009580D02*
X181261904Y-76914342D01*
X181261904Y-76914342D02*
X181261904Y-76723866D01*
X181261904Y-76723866D02*
X181309523Y-76628628D01*
X181309523Y-76628628D02*
X181357142Y-76581009D01*
X181357142Y-76581009D02*
X181452380Y-76533390D01*
D11*
%TO.C,R113*%
X122772936Y-74265000D02*
X123227064Y-74265000D01*
X122772936Y-75735000D02*
X123227064Y-75735000D01*
%TO.C,U109*%
X153275000Y-131015000D02*
X151325000Y-131015000D01*
X153275000Y-131015000D02*
X155225000Y-131015000D01*
X153275000Y-141135000D02*
X151325000Y-141135000D01*
X153275000Y-141135000D02*
X155225000Y-141135000D01*
X155975000Y-131070000D02*
X155735000Y-130740000D01*
X156215000Y-130740000D01*
X155975000Y-131070000D01*
G36*
X155975000Y-131070000D02*
G01*
X155735000Y-130740000D01*
X156215000Y-130740000D01*
X155975000Y-131070000D01*
G37*
%TO.C,R115*%
X112772936Y-91265000D02*
X113227064Y-91265000D01*
X112772936Y-92735000D02*
X113227064Y-92735000D01*
%TO.C,U104*%
X136775000Y-126365000D02*
X134825000Y-126365000D01*
X136775000Y-126365000D02*
X138725000Y-126365000D01*
X136775000Y-136485000D02*
X134825000Y-136485000D01*
X136775000Y-136485000D02*
X138725000Y-136485000D01*
X134315000Y-136760000D02*
X133835000Y-136760000D01*
X134075000Y-136430000D01*
X134315000Y-136760000D01*
G36*
X134315000Y-136760000D02*
G01*
X133835000Y-136760000D01*
X134075000Y-136430000D01*
X134315000Y-136760000D01*
G37*
%TO.C,R120*%
X172772936Y-91265000D02*
X173227064Y-91265000D01*
X172772936Y-92735000D02*
X173227064Y-92735000D01*
%TO.C,R108*%
X147727064Y-118265000D02*
X147272936Y-118265000D01*
X147727064Y-119735000D02*
X147272936Y-119735000D01*
%TO.C,R114*%
X132772936Y-91265000D02*
X133227064Y-91265000D01*
X132772936Y-92735000D02*
X133227064Y-92735000D01*
%TO.C,R121*%
X152772936Y-91265000D02*
X153227064Y-91265000D01*
X152772936Y-92735000D02*
X153227064Y-92735000D01*
%TO.C,R117*%
X172772936Y-56765000D02*
X173227064Y-56765000D01*
X172772936Y-58235000D02*
X173227064Y-58235000D01*
%TO.C,J107*%
X174620000Y-62650000D02*
X174620000Y-80540000D01*
X177380000Y-60000000D02*
X176000000Y-60000000D01*
X177380000Y-61380000D02*
X177380000Y-60000000D01*
X177380000Y-62650000D02*
X174620000Y-62650000D01*
X177380000Y-62650000D02*
X177380000Y-80540000D01*
X177380000Y-80540000D02*
X174620000Y-80540000D01*
%TO.C,C101*%
X152951248Y-142515000D02*
X153473752Y-142515000D01*
X152951248Y-143985000D02*
X153473752Y-143985000D01*
%TO.C,C102*%
X137011252Y-123265000D02*
X136488748Y-123265000D01*
X137011252Y-124735000D02*
X136488748Y-124735000D01*
%TO.C,R110*%
X152772936Y-56765000D02*
X153227064Y-56765000D01*
X152772936Y-58235000D02*
X153227064Y-58235000D01*
%TO.C,R119*%
X162772936Y-74265000D02*
X163227064Y-74265000D01*
X162772936Y-75735000D02*
X163227064Y-75735000D01*
%TO.C,U107*%
X151640000Y-121250000D02*
X151640000Y-119750000D01*
X151640000Y-121250000D02*
X151640000Y-122750000D01*
X154860000Y-121250000D02*
X154860000Y-119750000D01*
X154860000Y-121250000D02*
X154860000Y-122750000D01*
X155015000Y-123702500D02*
X154685000Y-123462500D01*
X155015000Y-123222500D01*
X155015000Y-123702500D01*
G36*
X155015000Y-123702500D02*
G01*
X154685000Y-123462500D01*
X155015000Y-123222500D01*
X155015000Y-123702500D01*
G37*
%TO.C,J108*%
X134620000Y-62570000D02*
X134620000Y-80460000D01*
X137380000Y-59920000D02*
X136000000Y-59920000D01*
X137380000Y-61300000D02*
X137380000Y-59920000D01*
X137380000Y-62570000D02*
X134620000Y-62570000D01*
X137380000Y-62570000D02*
X137380000Y-80460000D01*
X137380000Y-80460000D02*
X134620000Y-80460000D01*
%TO.C,R116*%
X192772936Y-56765000D02*
X193227064Y-56765000D01*
X192772936Y-58235000D02*
X193227064Y-58235000D01*
%TO.C,U101*%
X120112500Y-114115000D02*
X118612500Y-114115000D01*
X120112500Y-114115000D02*
X121612500Y-114115000D01*
X120112500Y-117335000D02*
X118612500Y-117335000D01*
X120112500Y-117335000D02*
X121612500Y-117335000D01*
X122325000Y-114290000D02*
X122085000Y-113960000D01*
X122565000Y-113960000D01*
X122325000Y-114290000D01*
G36*
X122325000Y-114290000D02*
G01*
X122085000Y-113960000D01*
X122565000Y-113960000D01*
X122325000Y-114290000D01*
G37*
%TO.C,R112*%
X142772936Y-74265000D02*
X143227064Y-74265000D01*
X142772936Y-75735000D02*
X143227064Y-75735000D01*
%TO.C,R111*%
X132772936Y-56765000D02*
X133227064Y-56765000D01*
X132772936Y-58235000D02*
X133227064Y-58235000D01*
%TO.C,R101*%
X117272936Y-129265000D02*
X117727064Y-129265000D01*
X117272936Y-130735000D02*
X117727064Y-130735000D01*
%TO.C,R118*%
X182772936Y-74265000D02*
X183227064Y-74265000D01*
X182772936Y-75735000D02*
X183227064Y-75735000D01*
%TD*%
M02*
