M48
; DRILL file {KiCad 9.0.3+dfsg-1} date 2026-02-27T14:08:25+0100
; FORMAT={-:-/ absolute / metric / decimal}
; #@! TF.CreationDate,2026-02-27T14:08:25+01:00
; #@! TF.GenerationSoftware,Kicad,Pcbnew,9.0.3+dfsg-1
; #@! TF.FileFunction,NonPlated,1,2,NPTH
FMAT,2
METRIC
; #@! TA.AperFunction,NonPlated,NPTH,ComponentDrill
T1C0.500
; #@! TA.AperFunction,NonPlated,NPTH,ComponentDrill
T2C1.700
; #@! TA.AperFunction,NonPlated,NPTH,ComponentDrill
T3C4.000
%
G90
G05
T1
X118.9Y-95.75
X119.0Y-109.0
X119.7Y-95.75
X119.8Y-109.0
X120.5Y-95.75
X120.6Y-109.0
X121.3Y-95.75
X121.4Y-109.0
X122.1Y-95.75
X122.2Y-109.0
X122.9Y-95.75
X123.0Y-109.0
X123.7Y-95.75
X123.8Y-109.0
X124.5Y-95.75
X124.6Y-109.0
X125.3Y-95.75
X125.4Y-109.0
X126.1Y-95.75
X126.2Y-109.0
X126.9Y-95.75
X127.0Y-109.0
X127.7Y-95.75
X127.8Y-109.0
X128.5Y-95.75
X128.6Y-109.0
X129.3Y-95.75
X129.4Y-109.0
X130.1Y-95.75
X130.2Y-109.0
X130.9Y-95.75
X131.0Y-109.0
X131.7Y-95.75
X131.8Y-109.0
X159.9Y-95.75
X160.1Y-109.0
X160.7Y-95.75
X160.9Y-109.0
X161.5Y-95.75
X161.7Y-109.0
X162.3Y-95.75
X162.5Y-109.0
X163.1Y-95.75
X163.3Y-109.0
X163.9Y-95.75
X164.1Y-109.0
X164.7Y-95.75
X164.9Y-109.0
X165.5Y-95.75
X165.7Y-109.0
X166.3Y-95.75
X166.5Y-109.0
X167.1Y-95.75
X167.3Y-109.0
X167.9Y-95.75
X168.1Y-109.0
X168.7Y-95.75
X168.9Y-109.0
X169.5Y-95.75
X169.7Y-109.0
X170.3Y-95.75
X170.5Y-109.0
X171.1Y-95.75
X171.3Y-109.0
X171.9Y-95.75
X172.1Y-109.0
X172.7Y-95.75
X172.9Y-109.0
T2
X110.84Y-87.72
X120.88Y-70.4
X121.0Y-87.72
X130.84Y-53.08
X130.84Y-87.72
X131.04Y-70.4
X140.88Y-70.4
X141.0Y-53.08
X141.0Y-87.72
X150.84Y-53.08
X150.84Y-87.72
X151.04Y-70.4
X160.88Y-70.4
X161.0Y-53.08
X161.0Y-87.72
X170.84Y-53.08
X170.88Y-87.72
X171.04Y-70.4
X180.88Y-70.4
X181.0Y-53.08
X181.04Y-87.72
X190.84Y-53.08
X191.04Y-70.4
X201.0Y-53.08
T3
X115.92Y-87.72
X125.96Y-70.4
X135.92Y-53.08
X135.92Y-87.72
X145.96Y-70.4
X155.92Y-53.08
X155.92Y-87.72
X165.96Y-70.4
X175.92Y-53.08
X175.96Y-87.72
X185.96Y-70.4
X195.92Y-53.08
M30
