%TF.GenerationSoftware,KiCad,Pcbnew,9.0.3+dfsg-1*%
%TF.CreationDate,2026-02-27T14:07:47+01:00*%
%TF.ProjectId,tastiera_isomorfa,74617374-6965-4726-915f-69736f6d6f72,rev?*%
%TF.SameCoordinates,Original*%
%TF.FileFunction,Soldermask,Bot*%
%TF.FilePolarity,Negative*%
%FSLAX46Y46*%
G04 Gerber Fmt 4.6, Leading zero omitted, Abs format (unit mm)*
G04 Created by KiCad (PCBNEW 9.0.3+dfsg-1) date 2026-02-27 14:07:47*
%MOMM*%
%LPD*%
G01*
G04 APERTURE LIST*
G04 Aperture macros list*
%AMRoundRect*
0 Rectangle with rounded corners*
0 $1 Rounding radius*
0 $2 $3 $4 $5 $6 $7 $8 $9 X,Y pos of 4 corners*
0 Add a 4 corners polygon primitive as box body*
4,1,4,$2,$3,$4,$5,$6,$7,$8,$9,$2,$3,0*
0 Add four circle primitives for the rounded corners*
1,1,$1+$1,$2,$3*
1,1,$1+$1,$4,$5*
1,1,$1+$1,$6,$7*
1,1,$1+$1,$8,$9*
0 Add four rect primitives between the rounded corners*
20,1,$1+$1,$2,$3,$4,$5,0*
20,1,$1+$1,$4,$5,$6,$7,0*
20,1,$1+$1,$6,$7,$8,$9,0*
20,1,$1+$1,$8,$9,$2,$3,0*%
G04 Aperture macros list end*
%ADD10C,0.500000*%
%ADD11C,1.700000*%
%ADD12C,4.000000*%
%ADD13C,2.200000*%
%ADD14R,1.700000X1.700000*%
%ADD15RoundRect,0.250000X-0.550000X-0.550000X0.550000X-0.550000X0.550000X0.550000X-0.550000X0.550000X0*%
%ADD16C,1.600000*%
%ADD17RoundRect,0.250000X-0.350000X-0.450000X0.350000X-0.450000X0.350000X0.450000X-0.350000X0.450000X0*%
%ADD18RoundRect,0.150000X0.825000X0.150000X-0.825000X0.150000X-0.825000X-0.150000X0.825000X-0.150000X0*%
%ADD19RoundRect,0.150000X-0.825000X-0.150000X0.825000X-0.150000X0.825000X0.150000X-0.825000X0.150000X0*%
%ADD20RoundRect,0.250000X0.350000X0.450000X-0.350000X0.450000X-0.350000X-0.450000X0.350000X-0.450000X0*%
%ADD21RoundRect,0.250000X-0.337500X-0.475000X0.337500X-0.475000X0.337500X0.475000X-0.337500X0.475000X0*%
%ADD22RoundRect,0.250000X0.337500X0.475000X-0.337500X0.475000X-0.337500X-0.475000X0.337500X-0.475000X0*%
%ADD23RoundRect,0.100000X0.100000X-0.712500X0.100000X0.712500X-0.100000X0.712500X-0.100000X-0.712500X0*%
%ADD24RoundRect,0.100000X0.712500X0.100000X-0.712500X0.100000X-0.712500X-0.100000X0.712500X-0.100000X0*%
G04 APERTURE END LIST*
D10*
%TO.C,REF\u002A\u002A13*%
X167900000Y-95750000D03*
%TD*%
%TO.C,REF\u002A\u002A15*%
X169500000Y-95750000D03*
%TD*%
%TO.C,REF\u002A\u002A6*%
X121300000Y-95750000D03*
%TD*%
%TO.C,REF\u002A\u002A18*%
X172900000Y-109000000D03*
%TD*%
%TO.C,REF\u002A\u002A16*%
X170300000Y-95750000D03*
%TD*%
%TO.C,REF\u002A\u002A17*%
X172100000Y-109000000D03*
%TD*%
%TO.C,REF\u002A\u002A9*%
X123700000Y-95750000D03*
%TD*%
%TO.C,REF\u002A\u002A12*%
X126100000Y-95750000D03*
%TD*%
%TO.C,REF\u002A\u002A10*%
X124500000Y-95750000D03*
%TD*%
%TO.C,REF\u002A\u002A18*%
X131000000Y-109000000D03*
%TD*%
%TO.C,REF\u002A\u002A3*%
X159900000Y-95750000D03*
%TD*%
D11*
%TO.C,SW101*%
X150840000Y-53080000D03*
D12*
X155920000Y-53080000D03*
D11*
X161000000Y-53080000D03*
D13*
X158460000Y-48000000D03*
X152110000Y-50540000D03*
%TD*%
D10*
%TO.C,REF\u002A\u002A15*%
X128500000Y-95750000D03*
%TD*%
%TO.C,REF\u002A\u002A9*%
X164700000Y-95750000D03*
%TD*%
%TO.C,REF\u002A\u002A8*%
X163900000Y-95750000D03*
%TD*%
%TO.C,REF\u002A\u002A14*%
X127700000Y-95750000D03*
%TD*%
%TO.C,REF\u002A\u002A11*%
X125300000Y-95750000D03*
%TD*%
%TO.C,REF\u002A\u002A7*%
X122100000Y-95750000D03*
%TD*%
%TO.C,REF\u002A\u002A5*%
X162500000Y-109000000D03*
%TD*%
D14*
%TO.C,J101*%
X112650000Y-124800000D03*
D11*
X112650000Y-127340000D03*
X112650000Y-129880000D03*
X112650000Y-132420000D03*
X112650000Y-134960000D03*
X112650000Y-137500000D03*
%TD*%
D10*
%TO.C,REF\u002A\u002A13*%
X168900000Y-109000000D03*
%TD*%
%TO.C,REF\u002A\u002A9*%
X165700000Y-109000000D03*
%TD*%
%TO.C,REF\u002A\u002A3*%
X118900000Y-95750000D03*
%TD*%
%TO.C,REF\u002A\u002A12*%
X126200000Y-109000000D03*
%TD*%
%TO.C,REF\u002A\u002A2*%
X160100000Y-109000000D03*
%TD*%
%TO.C,REF\u002A\u002A13*%
X127000000Y-109000000D03*
%TD*%
%TO.C,REF\u002A\u002A16*%
X129300000Y-95750000D03*
%TD*%
D11*
%TO.C,SW108*%
X170840000Y-53080000D03*
D12*
X175920000Y-53080000D03*
D11*
X181000000Y-53080000D03*
D13*
X178460000Y-48000000D03*
X172110000Y-50540000D03*
%TD*%
D10*
%TO.C,REF\u002A\u002A11*%
X166300000Y-95750000D03*
%TD*%
%TO.C,REF\u002A\u002A9*%
X123800000Y-109000000D03*
%TD*%
%TO.C,REF\u002A\u002A6*%
X121400000Y-109000000D03*
%TD*%
%TO.C,REF\u002A\u002A16*%
X171300000Y-109000000D03*
%TD*%
%TO.C,REF\u002A\u002A12*%
X168100000Y-109000000D03*
%TD*%
%TO.C,REF\u002A\u002A4*%
X119700000Y-95750000D03*
%TD*%
D11*
%TO.C,SW106*%
X110840000Y-87720000D03*
D12*
X115920000Y-87720000D03*
D11*
X121000000Y-87720000D03*
D13*
X118460000Y-82640000D03*
X112110000Y-85180000D03*
%TD*%
D10*
%TO.C,REF\u002A\u002A19*%
X131800000Y-109000000D03*
%TD*%
%TO.C,REF\u002A\u002A17*%
X171100000Y-95750000D03*
%TD*%
%TO.C,REF\u002A\u002A11*%
X167300000Y-109000000D03*
%TD*%
%TO.C,REF\u002A\u002A7*%
X122200000Y-109000000D03*
%TD*%
%TO.C,REF\u002A\u002A4*%
X119800000Y-109000000D03*
%TD*%
%TO.C,REF\u002A\u002A10*%
X166500000Y-109000000D03*
%TD*%
%TO.C,REF\u002A\u002A16*%
X129400000Y-109000000D03*
%TD*%
%TO.C,REF\u002A\u002A8*%
X123000000Y-109000000D03*
%TD*%
D11*
%TO.C,SW111*%
X170880000Y-87720000D03*
D12*
X175960000Y-87720000D03*
D11*
X181040000Y-87720000D03*
D13*
X178500000Y-82640000D03*
X172150000Y-85180000D03*
%TD*%
D11*
%TO.C,SW107*%
X190840000Y-53080000D03*
D12*
X195920000Y-53080000D03*
D11*
X201000000Y-53080000D03*
D13*
X198460000Y-48000000D03*
X192110000Y-50540000D03*
%TD*%
D10*
%TO.C,REF\u002A\u002A10*%
X124600000Y-109000000D03*
%TD*%
D11*
%TO.C,SW110*%
X160880000Y-70400000D03*
D12*
X165960000Y-70400000D03*
D11*
X171040000Y-70400000D03*
D13*
X168500000Y-65320000D03*
X162150000Y-67860000D03*
%TD*%
D10*
%TO.C,REF\u002A\u002A7*%
X164100000Y-109000000D03*
%TD*%
%TO.C,REF\u002A\u002A6*%
X162300000Y-95750000D03*
%TD*%
%TO.C,REF\u002A\u002A10*%
X165500000Y-95750000D03*
%TD*%
%TO.C,REF\u002A\u002A13*%
X126900000Y-95750000D03*
%TD*%
%TO.C,REF\u002A\u002A5*%
X120600000Y-109000000D03*
%TD*%
%TO.C,REF\u002A\u002A4*%
X160700000Y-95750000D03*
%TD*%
D11*
%TO.C,SW112*%
X150840000Y-87720000D03*
D12*
X155920000Y-87720000D03*
D11*
X161000000Y-87720000D03*
D13*
X158460000Y-82640000D03*
X152110000Y-85180000D03*
%TD*%
D10*
%TO.C,REF\u002A\u002A4*%
X161700000Y-109000000D03*
%TD*%
%TO.C,REF\u002A\u002A19*%
X172700000Y-95750000D03*
%TD*%
%TO.C,REF\u002A\u002A11*%
X125400000Y-109000000D03*
%TD*%
%TO.C,REF\u002A\u002A12*%
X167100000Y-95750000D03*
%TD*%
%TO.C,REF\u002A\u002A18*%
X171900000Y-95750000D03*
%TD*%
D11*
%TO.C,SW105*%
X130840000Y-87720000D03*
D12*
X135920000Y-87720000D03*
D11*
X141000000Y-87720000D03*
D13*
X138460000Y-82640000D03*
X132110000Y-85180000D03*
%TD*%
D14*
%TO.C,J104*%
X178740000Y-124765000D03*
D11*
X178740000Y-127305000D03*
X178740000Y-129845000D03*
X178740000Y-132385000D03*
X178740000Y-134925000D03*
X178740000Y-137465000D03*
%TD*%
D10*
%TO.C,REF\u002A\u002A15*%
X170500000Y-109000000D03*
%TD*%
D11*
%TO.C,SW104*%
X120880000Y-70400000D03*
D12*
X125960000Y-70400000D03*
D11*
X131040000Y-70400000D03*
D13*
X128500000Y-65320000D03*
X122150000Y-67860000D03*
%TD*%
D10*
%TO.C,REF\u002A\u002A19*%
X131700000Y-95750000D03*
%TD*%
%TO.C,REF\u002A\u002A5*%
X120500000Y-95750000D03*
%TD*%
D11*
%TO.C,SW102*%
X130840000Y-53080000D03*
D12*
X135920000Y-53080000D03*
D11*
X141000000Y-53080000D03*
D13*
X138460000Y-48000000D03*
X132110000Y-50540000D03*
%TD*%
D11*
%TO.C,SW109*%
X180880000Y-70400000D03*
D12*
X185960000Y-70400000D03*
D11*
X191040000Y-70400000D03*
D13*
X188500000Y-65320000D03*
X182150000Y-67860000D03*
%TD*%
D10*
%TO.C,REF\u002A\u002A8*%
X164900000Y-109000000D03*
%TD*%
%TO.C,REF\u002A\u002A14*%
X169700000Y-109000000D03*
%TD*%
D14*
%TO.C,J106*%
X125040000Y-122220000D03*
D11*
X125040000Y-124760000D03*
X125040000Y-127300000D03*
X125040000Y-129840000D03*
X125040000Y-132380000D03*
X125040000Y-134920000D03*
X125040000Y-137460000D03*
X125040000Y-140000000D03*
%TD*%
D10*
%TO.C,REF\u002A\u002A14*%
X127800000Y-109000000D03*
%TD*%
D14*
%TO.C,J105*%
X165040000Y-122260000D03*
D11*
X165040000Y-124800000D03*
X165040000Y-127340000D03*
X165040000Y-129880000D03*
X165040000Y-132420000D03*
X165040000Y-134960000D03*
X165040000Y-137500000D03*
X165040000Y-140040000D03*
%TD*%
D15*
%TO.C,C105*%
X170817600Y-147000000D03*
D16*
X173317600Y-147000000D03*
%TD*%
D10*
%TO.C,REF\u002A\u002A8*%
X122900000Y-95750000D03*
%TD*%
%TO.C,REF\u002A\u002A3*%
X119000000Y-109000000D03*
%TD*%
%TO.C,REF\u002A\u002A17*%
X130200000Y-109000000D03*
%TD*%
%TO.C,REF\u002A\u002A17*%
X130100000Y-95750000D03*
%TD*%
D14*
%TO.C,J102*%
X159040000Y-112350000D03*
D11*
X156500000Y-112350000D03*
X153960000Y-112350000D03*
X151420000Y-112350000D03*
X148880000Y-112350000D03*
X146340000Y-112350000D03*
X143800000Y-112350000D03*
X141260000Y-112350000D03*
%TD*%
D10*
%TO.C,REF\u002A\u002A18*%
X130900000Y-95750000D03*
%TD*%
%TO.C,REF\u002A\u002A7*%
X163100000Y-95750000D03*
%TD*%
%TO.C,REF\u002A\u002A15*%
X128600000Y-109000000D03*
%TD*%
%TO.C,REF\u002A\u002A14*%
X168700000Y-95750000D03*
%TD*%
%TO.C,REF\u002A\u002A6*%
X163300000Y-109000000D03*
%TD*%
%TO.C,REF\u002A\u002A3*%
X160900000Y-109000000D03*
%TD*%
D11*
%TO.C,SW103*%
X140880000Y-70400000D03*
D12*
X145960000Y-70400000D03*
D11*
X151040000Y-70400000D03*
D13*
X148500000Y-65320000D03*
X142150000Y-67860000D03*
%TD*%
D14*
%TO.C,J103*%
X149040000Y-150410000D03*
D11*
X146500000Y-150410000D03*
X143960000Y-150410000D03*
X141420000Y-150410000D03*
X138880000Y-150410000D03*
X136340000Y-150410000D03*
X133800000Y-150410000D03*
X131260000Y-150410000D03*
%TD*%
D10*
%TO.C,REF\u002A\u002A5*%
X161500000Y-95750000D03*
%TD*%
D17*
%TO.C,R113*%
X122000000Y-75000000D03*
X124000000Y-75000000D03*
%TD*%
D18*
%TO.C,U109*%
X155750000Y-131630000D03*
X155750000Y-132900000D03*
X155750000Y-134170000D03*
X155750000Y-135440000D03*
X155750000Y-136710000D03*
X155750000Y-137980000D03*
X155750000Y-139250000D03*
X155750000Y-140520000D03*
X150800000Y-140520000D03*
X150800000Y-139250000D03*
X150800000Y-137980000D03*
X150800000Y-136710000D03*
X150800000Y-135440000D03*
X150800000Y-134170000D03*
X150800000Y-132900000D03*
X150800000Y-131630000D03*
%TD*%
D17*
%TO.C,R115*%
X112000000Y-92000000D03*
X114000000Y-92000000D03*
%TD*%
D19*
%TO.C,U104*%
X134300000Y-135870000D03*
X134300000Y-134600000D03*
X134300000Y-133330000D03*
X134300000Y-132060000D03*
X134300000Y-130790000D03*
X134300000Y-129520000D03*
X134300000Y-128250000D03*
X134300000Y-126980000D03*
X139250000Y-126980000D03*
X139250000Y-128250000D03*
X139250000Y-129520000D03*
X139250000Y-130790000D03*
X139250000Y-132060000D03*
X139250000Y-133330000D03*
X139250000Y-134600000D03*
X139250000Y-135870000D03*
%TD*%
D17*
%TO.C,R120*%
X172000000Y-92000000D03*
X174000000Y-92000000D03*
%TD*%
D20*
%TO.C,R108*%
X148500000Y-119000000D03*
X146500000Y-119000000D03*
%TD*%
D17*
%TO.C,R114*%
X132000000Y-92000000D03*
X134000000Y-92000000D03*
%TD*%
%TO.C,R121*%
X152000000Y-92000000D03*
X154000000Y-92000000D03*
%TD*%
%TO.C,R117*%
X172000000Y-57500000D03*
X174000000Y-57500000D03*
%TD*%
D14*
%TO.C,J107*%
X176000000Y-61380000D03*
D11*
X176000000Y-63920000D03*
X176000000Y-66460000D03*
X176000000Y-69000000D03*
X176000000Y-71540000D03*
X176000000Y-74080000D03*
X176000000Y-76620000D03*
X176000000Y-79160000D03*
%TD*%
D21*
%TO.C,C101*%
X152175000Y-143250000D03*
X154250000Y-143250000D03*
%TD*%
D22*
%TO.C,C102*%
X137787500Y-124000000D03*
X135712500Y-124000000D03*
%TD*%
D17*
%TO.C,R110*%
X152000000Y-57500000D03*
X154000000Y-57500000D03*
%TD*%
%TO.C,R119*%
X162000000Y-75000000D03*
X164000000Y-75000000D03*
%TD*%
D23*
%TO.C,U107*%
X154225000Y-123362500D03*
X153575000Y-123362500D03*
X152925000Y-123362500D03*
X152275000Y-123362500D03*
X152275000Y-119137500D03*
X152925000Y-119137500D03*
X153575000Y-119137500D03*
X154225000Y-119137500D03*
%TD*%
D14*
%TO.C,J108*%
X136000000Y-61300000D03*
D11*
X136000000Y-63840000D03*
X136000000Y-66380000D03*
X136000000Y-68920000D03*
X136000000Y-71460000D03*
X136000000Y-74000000D03*
X136000000Y-76540000D03*
X136000000Y-79080000D03*
%TD*%
D17*
%TO.C,R116*%
X192000000Y-57500000D03*
X194000000Y-57500000D03*
%TD*%
D24*
%TO.C,U101*%
X122225000Y-114750000D03*
X122225000Y-115400000D03*
X122225000Y-116050000D03*
X122225000Y-116700000D03*
X118000000Y-116700000D03*
X118000000Y-116050000D03*
X118000000Y-115400000D03*
X118000000Y-114750000D03*
%TD*%
D17*
%TO.C,R112*%
X142000000Y-75000000D03*
X144000000Y-75000000D03*
%TD*%
%TO.C,R111*%
X132000000Y-57500000D03*
X134000000Y-57500000D03*
%TD*%
%TO.C,R101*%
X116500000Y-130000000D03*
X118500000Y-130000000D03*
%TD*%
%TO.C,R118*%
X182000000Y-75000000D03*
X184000000Y-75000000D03*
%TD*%
M02*
