%TF.GenerationSoftware,KiCad,Pcbnew,9.0.3+dfsg-1*%
%TF.CreationDate,2026-02-26T14:57:31+01:00*%
%TF.ProjectId,tastiera_isomorfa,74617374-6965-4726-915f-69736f6d6f72,rev?*%
%TF.SameCoordinates,Original*%
%TF.FileFunction,Profile,NP*%
%FSLAX46Y46*%
G04 Gerber Fmt 4.6, Leading zero omitted, Abs format (unit mm)*
G04 Created by KiCad (PCBNEW 9.0.3+dfsg-1) date 2026-02-26 14:57:31*
%MOMM*%
%LPD*%
G01*
G04 APERTURE LIST*
%TA.AperFunction,Profile*%
%ADD10C,0.050000*%
%TD*%
G04 APERTURE END LIST*
D10*
X118500000Y-108750000D02*
X109000000Y-108750000D01*
X118500000Y-96000000D02*
X118500000Y-108750000D01*
X159500000Y-96000000D02*
X132250000Y-96000000D01*
X159500000Y-108750000D02*
X159500000Y-96000000D01*
X132250000Y-108750000D02*
X159500000Y-108750000D01*
X132250000Y-96000000D02*
X132250000Y-108750000D01*
X107500000Y-96000000D02*
X118500000Y-96000000D01*
X173250000Y-108750000D02*
X182250000Y-108750000D01*
X173250000Y-96000000D02*
X173250000Y-108750000D01*
X184500000Y-96000000D02*
X173250000Y-96000000D01*
X117500000Y-61500000D02*
X127500000Y-61500000D01*
X194500000Y-61500000D02*
X204500000Y-61500000D01*
X182250000Y-154000000D02*
X109000000Y-154000000D01*
X107500000Y-79640000D02*
X117500000Y-79640000D01*
X194500000Y-79640000D02*
X194500000Y-61500000D01*
X184500000Y-96000000D02*
X184500000Y-79640000D01*
X182250000Y-108750000D02*
X182250000Y-154000000D01*
X184500000Y-79640000D02*
X194500000Y-79640000D01*
X109000000Y-108750000D02*
X109000000Y-154000000D01*
X107500000Y-96000000D02*
X107500000Y-79640000D01*
X117500000Y-79640000D02*
X117500000Y-61500000D01*
X127500000Y-45000000D02*
X204500000Y-45000000D01*
X204500000Y-61500000D02*
X204500000Y-45000000D01*
X127500000Y-61500000D02*
X127500000Y-45000000D01*
M02*
